/* XPM */
static char * optimize_xpm[] = {
"22 22 5 1",
" 	c None",
".	c #232121",
"+	c #000000",
"@	c #4F2B23",
"#	c #161616",
"  .                .  ",
"      +         +  .  ",
"  .   +  @@@@@@ +  .  ",
"  .   @@@    @@@+  .  ",
"  .   @@      @@+  .  ",
"  .  @@        @@  .  ",
"  . @@+       @@+  .  ",
"  . @@+       @@+     ",
"    @@+       @@+     ",
"   @@ +      @@    #  ",
"  .@@ +      @@ +  .  ",
"  . @@+     @@  +  .  ",
"  . @@+   @@@   +  .  ",
"  .  @@@@@@     +  .  ",
"  .             +  .  ",
"  .   +            .  ",
"      +         +     ",
"  .   +         +  .  ",
"  .   +         +  .  ",
"....++++++ ++ ++++....",
"  .   +         +  .  ",
"      +         +     "};
