/* XPM */
static char * searchfind_xpm[] = {
"22 22 106 2",
"  	c None",
". 	c #B5B5B5",
"+ 	c #949494",
"@ 	c #7B7B7B",
"# 	c #6B7373",
"$ 	c #9C9C9C",
"% 	c #BDBDBD",
"& 	c #ADADAD",
"* 	c #737B7B",
"= 	c #849C94",
"- 	c #ADCEC6",
"; 	c #ADDECE",
"> 	c #94BDAD",
", 	c #6B7B7B",
"' 	c #5A5A5A",
") 	c #94A59C",
"! 	c #CEFFEF",
"~ 	c #C6F7E7",
"{ 	c #BDEFDE",
"] 	c #B5EFD6",
"^ 	c #A5E7C6",
"/ 	c #6B8C7B",
"( 	c #737373",
"_ 	c #737B73",
": 	c #9CBDB5",
"< 	c #C6DEF7",
"[ 	c #BDD6FF",
"} 	c #BDC6F7",
"| 	c #A5B5DE",
"1 	c #94CEB5",
"2 	c #94D6BD",
"3 	c #738C84",
"4 	c #8C8C8C",
"5 	c #D6FFF7",
"6 	c #CEDEFF",
"7 	c #B5BDDE",
"8 	c #A5CECE",
"9 	c #ADADEF",
"0 	c #9C94D6",
"a 	c #8CC6AD",
"b 	c #94C6AD",
"c 	c #636B6B",
"d 	c #7B8484",
"e 	c #ADD6C6",
"f 	c #B5DEDE",
"g 	c #ADB5DE",
"h 	c #9CE7BD",
"i 	c #8CCEAD",
"j 	c #A594DE",
"k 	c #84ADA5",
"l 	c #6B847B",
"m 	c #BDE7D6",
"n 	c #BDF7DE",
"o 	c #9CE7C6",
"p 	c #9CDEBD",
"q 	c #94D6B5",
"r 	c #9CCECE",
"s 	c #A5B5EF",
"t 	c #8484B5",
"u 	c #7BBD9C",
"v 	c #94C6B5",
"w 	c #739484",
"x 	c #848484",
"y 	c #94DEBD",
"z 	c #9CBDD6",
"A 	c #8C94B5",
"B 	c #7BAD94",
"C 	c #7BBDA5",
"D 	c #8CB5A5",
"E 	c #73948C",
"F 	c #ADE7CE",
"G 	c #8CCEB5",
"H 	c #8C8CBD",
"I 	c #7BC69C",
"J 	c #7BB59C",
"K 	c #84BDA5",
"L 	c #A5DEC6",
"M 	c #84CEAD",
"N 	c #8CADBD",
"O 	c #84A5AD",
"P 	c #73BD9C",
"Q 	c #73B594",
"R 	c #7BAD9C",
"S 	c #5A736B",
"T 	c #9CCEBD",
"U 	c #84C6A5",
"V 	c #94A5CE",
"W 	c #63AD8C",
"X 	c #6BAD94",
"Y 	c #6B9484",
"Z 	c #7BC6A5",
"` 	c #73A59C",
" .	c #5A9C84",
"..	c #636363",
"+.	c #CED6CE",
"@.	c #6B7B73",
"#.	c #84B59C",
"$.	c #84B5A5",
"%.	c #63736B",
"&.	c #6B6B6B",
"*.	c #C6C6C6",
"=.	c #292929",
"-.	c #393939",
";.	c #A5A5A5",
">.	c #424242",
",.	c #212121",
"                                            ",
"                                            ",
"      . + @ # # @ $ %                       ",
"    & * = - ; ; > , @ .                     ",
"  & ' ) ! ! ~ { ] ^ / ( %                   ",
"% _ : { ~ < [ } | 1 2 3 4                   ",
"$ = 5 { 6 7 8 8 9 0 a b c .                 ",
"d e ! f g 1 h i | j k 1 l $                 ",
"* m n o o p q r s t u v w x                 ",
"* ; ] p y q z s A B C D E x                 ",
"_ e F q q G | H u I J K l 4                 ",
"4 D L G a M N O P Q Q R S &                 ",
"& * T U U C V t W X X Y ( %                 ",
"  4 / Z C u ` E Q  . ...$ +.& %             ",
"  % @ @.#.$.K J B w ' $   & ..' &           ",
"    % 4 c @.l l %.&.&     *.@ =.-.4 %       ",
"        . $ 4 + ;.*.          ;.>.=.&.&     ",
"                                % ( ,.-.+   ",
"                                    $ -.,.&.",
"                                      . ..' ",
"                                            ",
"                                            "};
