<?xml version="1.0" encoding="UTF-8" standalone="no"?>
<!-- Created with Inkscape (http://www.inkscape.org/) -->

<svg
   xmlns:dc="http://purl.org/dc/elements/1.1/"
   xmlns:cc="http://creativecommons.org/ns#"
   xmlns:rdf="http://www.w3.org/1999/02/22-rdf-syntax-ns#"
   xmlns:svg="http://www.w3.org/2000/svg"
   xmlns="http://www.w3.org/2000/svg"
   xmlns:xlink="http://www.w3.org/1999/xlink"
   xmlns:sodipodi="http://sodipodi.sourceforge.net/DTD/sodipodi-0.dtd"
   xmlns:inkscape="http://www.inkscape.org/namespaces/inkscape"
   width="22"
   height="22"
   id="svg2"
   sodipodi:version="0.32"
   inkscape:version="0.47 r22583"
   sodipodi:docname="info.svg"
   inkscape:output_extension="org.inkscape.output.svg.inkscape"
   version="1.0">
  <defs
     id="defs4">
    <linearGradient
       id="linearGradient2390">
      <stop
         style="stop-color:#ffffff;stop-opacity:1;"
         offset="0"
         id="stop2392" />
      <stop
         style="stop-color:#181818;stop-opacity:1;"
         offset="1"
         id="stop2394" />
    </linearGradient>
    <inkscape:perspective
       sodipodi:type="inkscape:persp3d"
       inkscape:vp_x="0 : 526.18109 : 1"
       inkscape:vp_y="0 : 1000 : 0"
       inkscape:vp_z="744.09448 : 526.18109 : 1"
       inkscape:persp3d-origin="372.04724 : 350.78739 : 1"
       id="perspective10" />
    <inkscape:perspective
       id="perspective2578"
       inkscape:persp3d-origin="0.5 : 0.33333333 : 1"
       inkscape:vp_z="1 : 0.5 : 1"
       inkscape:vp_y="0 : 1000 : 0"
       inkscape:vp_x="0 : 0.5 : 1"
       sodipodi:type="inkscape:persp3d" />
    <linearGradient
       inkscape:collect="always"
       xlink:href="#linearGradient2390"
       id="linearGradient2396"
       x1="0.88388348"
       y1="0.25390288"
       x2="38.811108"
       y2="40.429825"
       gradientUnits="userSpaceOnUse" />
    <inkscape:perspective
       id="perspective2912"
       inkscape:persp3d-origin="0.5 : 0.33333333 : 1"
       inkscape:vp_z="1 : 0.5 : 1"
       inkscape:vp_y="0 : 1000 : 0"
       inkscape:vp_x="0 : 0.5 : 1"
       sodipodi:type="inkscape:persp3d" />
    <linearGradient
       inkscape:collect="always"
       xlink:href="#linearGradient4904"
       id="linearGradient4912"
       x1="142.60271"
       y1="499.76523"
       x2="585.11169"
       y2="499.76523"
       gradientUnits="userSpaceOnUse"
       gradientTransform="translate(184.32804,-158.95131)" />
    <linearGradient
       id="linearGradient4904">
      <stop
         style="stop-color:#04b315;stop-opacity:1;"
         offset="0"
         id="stop4906" />
      <stop
         id="stop3227"
         offset="0.5"
         style="stop-color:#03b614;stop-opacity:0;" />
      <stop
         id="stop3225"
         offset="1"
         style="stop-color:#01ba13;stop-opacity:1;" />
    </linearGradient>
    <filter
       color-interpolation-filters="sRGB"
       inkscape:collect="always"
       id="filter5126">
      <feGaussianBlur
         inkscape:collect="always"
         stdDeviation="2.8426918"
         id="feGaussianBlur5128" />
    </filter>
    <linearGradient
       inkscape:collect="always"
       xlink:href="#linearGradient4892"
       id="linearGradient4898"
       x1="162.13763"
       y1="444.11441"
       x2="585.82159"
       y2="444.11441"
       gradientUnits="userSpaceOnUse"
       gradientTransform="translate(184.32804,-158.95131)"
       spreadMethod="pad" />
    <linearGradient
       id="linearGradient4892">
      <stop
         style="stop-color:#00e4ff;stop-opacity:1;"
         offset="0"
         id="stop4894" />
      <stop
         id="stop4902"
         offset="0.52631581"
         style="stop-color:#00e3ff;stop-opacity:0;" />
      <stop
         style="stop-color:#00e4ff;stop-opacity:1;"
         offset="1"
         id="stop4896" />
    </linearGradient>
    <filter
       color-interpolation-filters="sRGB"
       inkscape:collect="always"
       id="filter5130">
      <feGaussianBlur
         inkscape:collect="always"
         stdDeviation="2.6835434"
         id="feGaussianBlur5132" />
    </filter>
    <radialGradient
       inkscape:collect="always"
       xlink:href="#linearGradient4886"
       id="radialGradient4892"
       cx="377.79706"
       cy="476.57523"
       fx="377.79706"
       fy="476.57523"
       r="39.192898"
       gradientTransform="matrix(1,0,0,0.9742261,0,12.28319)"
       gradientUnits="userSpaceOnUse" />
    <linearGradient
       id="linearGradient4886">
      <stop
         style="stop-color:#fffa2a;stop-opacity:1;"
         offset="0"
         id="stop4888" />
      <stop
         style="stop-color:#fffa2a;stop-opacity:0;"
         offset="1"
         id="stop4890" />
    </linearGradient>
    <filter
       color-interpolation-filters="sRGB"
       inkscape:collect="always"
       id="filter5072"
       x="-0.25927606"
       width="1.5185521"
       y="-0.26613539"
       height="1.5322708">
      <feGaussianBlur
         inkscape:collect="always"
         stdDeviation="8.4681497"
         id="feGaussianBlur5074" />
    </filter>
    <filter
       color-interpolation-filters="sRGB"
       inkscape:collect="always"
       id="filter5098"
       x="-0.29641566"
       width="1.5928313"
       y="-0.048933536"
       height="1.0978671">
      <feGaussianBlur
         inkscape:collect="always"
         stdDeviation="2.316633"
         id="feGaussianBlur5100" />
    </filter>
    <filter
       color-interpolation-filters="sRGB"
       inkscape:collect="always"
       id="filter5118"
       x="-0.30774987"
       width="1.6154999"
       y="-0.09398941"
       height="1.1879787">
      <feGaussianBlur
         inkscape:collect="always"
         stdDeviation="2.3332357"
         id="feGaussianBlur5120" />
    </filter>
    <filter
       color-interpolation-filters="sRGB"
       inkscape:collect="always"
       id="filter5564"
       x="-0.36298603"
       width="1.7259721"
       y="-0.099092647"
       height="1.1981853">
      <feGaussianBlur
         inkscape:collect="always"
         stdDeviation="0.84938479"
         id="feGaussianBlur5566" />
    </filter>
    <filter
       color-interpolation-filters="sRGB"
       inkscape:collect="always"
       id="filter5560"
       x="-0.24490859"
       width="1.4898171"
       y="-0.15099469"
       height="1.3019894">
      <feGaussianBlur
         inkscape:collect="always"
         stdDeviation="0.84938479"
         id="feGaussianBlur5562" />
    </filter>
    <filter
       color-interpolation-filters="sRGB"
       inkscape:collect="always"
       id="filter5170"
       x="-0.018497335"
       width="1.0369947"
       y="-0.66947192"
       height="2.3389437">
      <feGaussianBlur
         inkscape:collect="always"
         stdDeviation="1.3275287"
         id="feGaussianBlur5172" />
    </filter>
    <filter
       color-interpolation-filters="sRGB"
       inkscape:collect="always"
       id="filter5174">
      <feGaussianBlur
         inkscape:collect="always"
         stdDeviation="1.4850009"
         id="feGaussianBlur5176" />
    </filter>
    <filter
       color-interpolation-filters="sRGB"
       inkscape:collect="always"
       id="filter5220"
       x="-0.091558799"
       width="1.1831176"
       y="-0.10089402"
       height="1.2017879">
      <feGaussianBlur
         inkscape:collect="always"
         stdDeviation="1.4843048"
         id="feGaussianBlur5222" />
    </filter>
    <filter
       color-interpolation-filters="sRGB"
       inkscape:collect="always"
       id="filter5568"
       x="-0.26486647"
       width="1.5297329"
       y="-0.15291525"
       height="1.3058305">
      <feGaussianBlur
         inkscape:collect="always"
         stdDeviation="0.84938479"
         id="feGaussianBlur5570" />
    </filter>
    <filter
       color-interpolation-filters="sRGB"
       inkscape:collect="always"
       id="filter5572"
       x="-0.2503452"
       width="1.5006903"
       y="-0.33346882"
       height="1.6669377">
      <feGaussianBlur
         inkscape:collect="always"
         stdDeviation="0.84938479"
         id="feGaussianBlur5574" />
    </filter>
    <filter
       color-interpolation-filters="sRGB"
       inkscape:collect="always"
       id="filter5588"
       x="-0.11889412"
       width="1.2377882"
       y="-0.1430386"
       height="1.2860771">
      <feGaussianBlur
         inkscape:collect="always"
         stdDeviation="0.88149045"
         id="feGaussianBlur5590" />
    </filter>
    <filter
       color-interpolation-filters="sRGB"
       inkscape:collect="always"
       id="filter5630"
       x="-0.15916829"
       width="1.3183366"
       y="-0.48278859"
       height="1.9655772">
      <feGaussianBlur
         inkscape:collect="always"
         stdDeviation="0.86571435"
         id="feGaussianBlur5632" />
    </filter>
    <filter
       color-interpolation-filters="sRGB"
       inkscape:collect="always"
       id="filter5634"
       x="-0.2608788"
       width="1.5217576"
       y="-0.67891312"
       height="2.3578262">
      <feGaussianBlur
         inkscape:collect="always"
         stdDeviation="0.86571435"
         id="feGaussianBlur5636" />
    </filter>
    <filter
       color-interpolation-filters="sRGB"
       inkscape:collect="always"
       id="filter5626"
       x="-0.20740104"
       width="1.4148021"
       y="-0.077003323"
       height="1.1540066">
      <feGaussianBlur
         inkscape:collect="always"
         stdDeviation="0.86571435"
         id="feGaussianBlur5628" />
    </filter>
    <filter
       color-interpolation-filters="sRGB"
       inkscape:collect="always"
       id="filter5646"
       x="-0.33300766"
       width="1.6660153"
       y="-0.099952102"
       height="1.1999042">
      <feGaussianBlur
         inkscape:collect="always"
         stdDeviation="0.9935714"
         id="feGaussianBlur5648" />
    </filter>
    <filter
       color-interpolation-filters="sRGB"
       inkscape:collect="always"
       id="filter5642"
       x="-0.45767176"
       width="1.9153435"
       y="-0.27618566"
       height="1.5523713">
      <feGaussianBlur
         inkscape:collect="always"
         stdDeviation="0.9935714"
         id="feGaussianBlur5644" />
    </filter>
    <linearGradient
       inkscape:collect="always"
       xlink:href="#linearGradient4904"
       id="linearGradient3018"
       gradientUnits="userSpaceOnUse"
       gradientTransform="translate(184.32804,-158.95131)"
       x1="142.60271"
       y1="499.76523"
       x2="585.11169"
       y2="499.76523" />
    <linearGradient
       inkscape:collect="always"
       xlink:href="#linearGradient4892"
       id="linearGradient3020"
       gradientUnits="userSpaceOnUse"
       gradientTransform="translate(184.32804,-158.95131)"
       spreadMethod="pad"
       x1="162.13763"
       y1="444.11441"
       x2="585.82159"
       y2="444.11441" />
    <radialGradient
       inkscape:collect="always"
       xlink:href="#linearGradient4886"
       id="radialGradient3022"
       gradientUnits="userSpaceOnUse"
       gradientTransform="matrix(1,0,0,0.9742261,0,12.28319)"
       cx="377.79706"
       cy="476.57523"
       fx="377.79706"
       fy="476.57523"
       r="39.192898" />
    <linearGradient
       inkscape:collect="always"
       xlink:href="#linearGradient4904"
       id="linearGradient3054"
       gradientUnits="userSpaceOnUse"
       gradientTransform="translate(184.32804,-158.95131)"
       x1="142.60271"
       y1="499.76523"
       x2="585.11169"
       y2="499.76523" />
    <linearGradient
       inkscape:collect="always"
       xlink:href="#linearGradient4892"
       id="linearGradient3056"
       gradientUnits="userSpaceOnUse"
       gradientTransform="translate(184.32804,-158.95131)"
       spreadMethod="pad"
       x1="162.13763"
       y1="444.11441"
       x2="585.82159"
       y2="444.11441" />
    <radialGradient
       inkscape:collect="always"
       xlink:href="#linearGradient4886"
       id="radialGradient3058"
       gradientUnits="userSpaceOnUse"
       gradientTransform="matrix(1,0,0,0.9742261,0,12.28319)"
       cx="377.79706"
       cy="476.57523"
       fx="377.79706"
       fy="476.57523"
       r="39.192898" />
  </defs>
  <sodipodi:namedview
     id="base"
     pagecolor="#ffffff"
     bordercolor="#666666"
     borderopacity="1.0"
     gridtolerance="10000"
     guidetolerance="10"
     objecttolerance="10"
     inkscape:pageopacity="0.0"
     inkscape:pageshadow="2"
     inkscape:zoom="29.953744"
     inkscape:cx="12.40377"
     inkscape:cy="8.7361243"
     inkscape:document-units="px"
     inkscape:current-layer="layer1"
     showgrid="false"
     inkscape:window-width="1400"
     inkscape:window-height="1003"
     inkscape:window-x="0"
     inkscape:window-y="20"
     inkscape:window-maximized="0">
    <inkscape:grid
       type="xygrid"
       id="grid2388" />
  </sodipodi:namedview>
  <metadata
     id="metadata7">
    <rdf:RDF>
      <cc:Work
         rdf:about="">
        <dc:format>image/svg+xml</dc:format>
        <dc:type
           rdf:resource="http://purl.org/dc/dcmitype/StillImage" />
        <dc:title />
      </cc:Work>
    </rdf:RDF>
  </metadata>
  <g
     inkscape:label="Layer 1"
     inkscape:groupmode="layer"
     id="layer1"
     style="display:inline">
    <rect
       style="opacity:0.50000000000000000;fill:url(#linearGradient2396);fill-opacity:1;stroke:none;stroke-width:4;stroke-linecap:round;stroke-linejoin:round;stroke-miterlimit:5.69999980999999960;stroke-dasharray:none;stroke-opacity:1"
       id="rect2390"
       width="22"
       height="22"
       x="0"
       y="0" />
    <path
       style="fill:#7f7f7f;fill-opacity:1;fill-rule:evenodd;stroke:none;stroke-width:1px;stroke-linecap:butt;stroke-linejoin:miter;stroke-opacity:1"
       d="M 0,0 L 0,22 L 22,22 L 22,0 L 0,0 z M 1,1 L 21,1 L 21,21 L 1,21 L 1,1 z"
       id="path2398" />
    <g
       id="g3043"
       transform="translate(-0.6794366,-20.265499)">
      <path
         transform="matrix(0.04767101,0,0,0.04767101,-14.462409,14.646961)"
         d="m 326.99324,375.99176 c 4.69387,-1.86073 8.63673,-5.18636 12.31976,-8.56141 3.63392,-3.81309 7.34175,-7.54684 11.07345,-11.26394 3.1343,-3.54184 5.40667,-7.11612 9.39708,-9.75846 2.6769,-2.01839 5.92811,-2.74505 9.13555,-3.43235 2.48972,-0.63388 4.95201,-1.31146 7.46506,-1.85116 9.4758,-1.47324 2.94349,-0.75857 21.12849,15.59803 0.45079,0.40546 -0.28747,1.17839 -0.40738,1.77273 -0.41218,2.04307 -0.82005,4.08574 -1.24167,6.12808 -1.00379,4.2035 -2.11314,8.37512 -2.78223,12.64827 -0.58083,3.28268 -1.20197,6.54394 -1.89751,9.80366 -0.66009,2.48538 -2.03137,4.67688 -3.19597,6.94125 -0.70126,2.19322 -2.31198,3.7942 -3.68856,5.558 -0.15145,0.24494 -0.95174,1.45867 -0.96845,1.79663 -0.008,0.17197 0.23644,0.25036 0.35466,0.37554 -6.24874,-5.12206 -12.57247,-10.15397 -18.74622,-15.36617 -0.24774,-0.20915 0.59861,0.36017 0.91984,0.31623 0.68845,-0.0942 1.30659,-0.47341 1.95989,-0.71012 5.32068,-3.07977 9.61548,-7.57762 13.42669,-12.33782 2.73936,-2.87155 4.08635,-6.63678 6.10126,-9.97565 2.09259,-3.17749 4.88877,-5.66368 7.96674,-7.84476 2.50077,-1.74744 5.19966,-3.15067 7.97484,-4.39941 2.73962,-1.13987 5.49917,-2.27785 8.12718,-3.65928 2.51286,-1.38516 4.9378,-2.92209 7.58875,-4.03353 8.54875,-3.7054 2.30088,-1.29721 21.05879,14.89321 0.44759,0.38633 -0.36954,1.12345 -0.53915,1.68987 -0.69073,2.30671 -1.49817,4.42611 -2.48127,6.63115 -2.49004,5.30507 -5.06892,10.57703 -7.81446,15.75328 -1.67481,3.38952 -3.41057,6.80705 -5.57775,9.91684 -2.49001,3.57304 -0.96224,0.89045 -2.67606,4.16757 -0.62591,9.26087 0.21862,1.4283 -18.59917,-14.5974 -0.1771,-0.15083 0.30773,0.50922 0.53285,0.45063 0.69106,-0.17985 1.27112,-0.6605 1.8547,-1.07201 1.51845,-1.07071 4.43162,-3.6689 5.69089,-4.76 6.17929,-5.40125 12.87558,-10.14984 19.56267,-14.88953 0.7192,-0.49237 1.44357,-0.97727 2.15761,-1.47711 1.17335,-0.82136 2.27528,-1.7476 3.48993,-2.50657 2.18458,-1.36502 4.59677,-2.41044 6.87131,-3.61524 3.80913,-1.97994 7.59257,-4.0087 11.39392,-6.00402 10.17796,-6.17835 1.09064,-8.73701 22.33903,14.36365 0.58295,0.63376 -0.89756,1.46983 -1.3399,2.20863 -0.55194,0.92188 -1.09526,1.84889 -1.64289,2.77334 -4.05516,6.36553 -7.61092,13.01442 -11.39407,19.53899 -0.96978,2.31183 -3.38238,4.90665 -3.59351,7.52143 -0.0363,0.44897 0.0534,0.99367 0.389,1.29409 0.30503,0.27304 1.53648,0.40475 1.21949,0.14569 -6.04673,-4.94166 -12.36664,-9.53929 -18.54997,-14.30894 0.44317,0.0531 0.88564,0.20621 1.32949,0.15925 2.24595,-0.2376 4.65887,-1.23982 6.69247,-2.02426 6.07441,-2.34314 11.91148,-5.04836 17.7343,-7.95167 7.13985,-4.00935 14.25941,-8.05159 21.40321,-12.05209 3.91939,-2.33099 8.01429,-4.31073 11.93067,-6.65149 2.01522,-1.12351 3.96815,-2.34852 5.90425,-3.60133 0.7979,-0.5163 1.94602,-0.9928 2.30016,-1.98246 6.52932,5.29109 13.45399,10.12852 19.58796,15.87326 0.45407,0.42526 -0.59837,1.09104 -0.88428,1.64357 -1.32786,2.56611 -2.82198,5.12852 -3.95034,7.78922 -0.30249,0.71326 -0.50356,1.46539 -0.75534,2.19809 0.78773,9.18556 0.43612,1.66914 -18.21004,-14.2192 -0.1698,-0.14469 0.3673,0.41514 0.57702,0.33906 0.6673,-0.24206 1.19087,-0.77393 1.76657,-1.18921 2.36208,-1.70387 2.60372,-1.99395 4.8877,-3.94173 2.35542,-2.21432 4.79599,-4.33106 7.14,-6.55757 1.46146,-1.38819 2.66433,-2.68112 4.36758,-3.74057 18.17638,16.69446 20.67915,9.15153 18.47265,20.43445 -0.24267,1.24091 -0.60227,2.46016 -0.78243,3.71167 -0.48989,3.40318 -0.2228,5.38977 0.97264,8.5065 8.24424,5.57909 -7.95343,-5.33524 -16.4896,-13.18765 -0.68336,-0.62862 1.84734,0.31054 2.77405,0.25276 4.69422,-0.29267 9.07627,-2.27472 13.33893,-4.05539 7.64899,-3.45298 14.57549,-8.24705 21.55219,-12.86102 4.15066,-2.84537 7.88164,-6.23607 11.77419,-9.4139 1.26818,-0.78205 2.24962,-1.93195 3.42287,-2.82935 0.30714,-0.23493 0.6455,-0.87516 0.96038,-0.65071 20.71318,14.76456 22.15574,7.48782 19.68016,17.00033 -0.7261,3.22613 -0.96155,6.52345 -1.09791,9.81818 0.0795,3.1076 -0.48171,6.1647 -0.77785,9.24672 -0.0633,0.84237 -0.46629,1.46451 0.5102,1.81107 0.27916,0.0991 1.12143,0.20757 0.88832,0.0248 -6.28272,-4.92608 -12.8843,-9.43603 -19.16973,-14.35866 -0.23136,-0.1812 0.59773,0.1137 0.88092,0.0352 0.61762,-0.17125 1.17511,-0.51213 1.76267,-0.76819 8.5273,-4.9901 17.30309,-9.52102 26.01989,-14.16165 6.2477,-3.25113 12.02971,-7.28356 17.36002,-11.87108 1.6426,-1.57962 3.49323,-2.96158 4.99109,-4.69119 6.92684,-7.99865 -5.19378,-6.79316 21.67451,13.19852 -2.32797,4.61945 -3.97939,9.56939 -5.84936,14.39782 -2.70339,6.42597 -5.90878,12.61475 -8.74335,18.98126 -2.14232,4.96554 -4.77583,9.70669 -7.40586,14.42734 -6.13778,10.58071 -0.80647,8.85408 -21.76091,-10.9706 -0.5219,-0.49377 1.22719,-0.75413 1.78988,-1.20086 1.0037,-0.79686 1.9339,-1.68214 2.90085,-2.52321 1.21814,-1.16737 2.47007,-2.30047 3.65441,-3.50211 2.60999,-2.64814 5.06358,-5.44614 7.61791,-8.14801 3.66747,-3.87928 7.33143,-7.74116 10.90192,-11.71075 5.21438,-5.65981 10.88994,-10.91888 15.871,-16.78871 3.29372,-3.7183 5.47244,-8.21736 8.03899,-12.43229 2.757,-4.11643 5.52924,-8.22029 7.37844,-12.84042 1.13048,-2.27384 3.0463,-4.03238 5.13864,-5.43047 0.40851,-0.27296 0.88192,-0.97861 1.29243,-0.70865 7.10811,4.67457 13.72068,10.06231 20.58102,15.09347 -2.08195,8.10174 -5.43347,15.77744 -8.5509,23.51648 -2.34338,6.90391 -5.61947,13.429 -8.43479,20.1384 -2.42239,6.14236 -1.1794,3.12547 -3.72269,9.05323 -2.53696,6.68312 -6.03846,12.92593 -9.17392,19.3337 0.0194,9.05529 0.41128,8.41731 -18.03002,-13.93279 -0.86052,-1.04291 2.26856,-1.49426 3.26034,-2.41325 5.08061,-4.70778 9.10105,-10.51039 13.09891,-16.10966 4.51428,-6.87637 9.28375,-13.59889 12.96003,-20.98052 1.1449,-2.29884 2.15259,-4.66355 3.24524,-6.98769 1.44823,-3.5417 2.95107,-7.12624 5.32798,-10.16939 0.97989,-1.25454 3.12927,-3.41656 4.22404,-4.54898 3.95627,-4.72712 8.74934,-8.59451 13.28986,-12.722 7.87496,-8.00733 1.92005,-6.94009 23.12466,11.68257 0.75952,0.66704 -0.99849,1.75941 -1.44203,2.66776 -1.59257,3.26146 -2.16825,5.03443 -3.53821,8.59742 -4.0697,11.43648 -7.70345,23.03049 -10.79624,34.76893 -1.06507,3.55884 -1.79044,7.23259 -2.88066,10.78336 -0.0265,0.0863 -1.9956,5.55283 -2.06022,5.79594 -0.16253,0.61144 -0.17196,1.2536 -0.25794,1.88041 0.4139,-0.0838 1.56443,0.0208 1.24169,-0.25151 -6.17472,-5.21073 -13.45352,-9.12955 -19.14904,-14.86016 -0.73119,-0.7357 1.43901,-1.4994 2.07619,-2.31787 3.40446,-4.37305 6.12574,-9.26716 8.93411,-14.02544 5.1973,-9.66612 10.13057,-19.45948 15.33,-29.12531 3.32361,-6.48263 7.79439,-12.24104 12.38859,-17.8557 2.73283,-2.97566 4.33622,-6.80839 6.96639,-9.85526 0.61296,-0.71006 1.31199,-1.341 1.96798,-2.0115 3.13017,-2.48353 6.534,-4.58547 9.88847,-6.74464 1.81435,-1.16784 3.57432,-2.39067 5.50739,-3.34952 22.02143,15.6137 22.82578,6.46553 20.26243,16.55878 -0.63731,2.50945 -1.49391,4.91967 -2.2873,7.38243 -0.18,0.67067 -0.31437,1.35529 -0.54,2.01202 -0.37068,1.07896 -1.58703,3.701 -1.97401,4.71498 -1.14599,3.00273 -2.2341,6.04039 -3.34121,9.05972 -1.78586,4.39602 -3.15801,8.93617 -4.8332,13.37316 -1.57022,4.87821 -3.71805,9.54169 -5.47392,14.35457 -2.72538,7.05437 -4.79186,14.32174 -6.68457,21.63385 -1.36242,5.5255 -2.97269,10.52655 -5.74351,15.51455 -1.12222,1.9488 -2.14989,3.95136 -3.17768,5.95109 -0.21123,0.41099 -0.62365,0.78375 -0.60849,1.2456 0.008,0.23093 0.82081,-0.11984 0.64069,-0.26455 -6.50544,-5.22675 -13.26072,-10.13469 -19.89108,-15.20203 3.0093,-3.91367 5.78661,-7.99608 8.71779,-11.9674 1.58416,-1.88576 2.7143,-4.18024 4.37969,-6.00044 0.46588,-0.50918 1.50522,-1.36313 2.06596,-1.83694 2.17083,-1.51382 3.86804,-3.42533 5.19592,-5.7014 1.69629,-3.14546 3.44272,-6.28538 5.0392,-9.48337 l 19.86044,14.5964 c -1.98334,2.98027 -3.51673,6.1795 -5.13236,9.37081 -1.40305,2.57931 -3.19598,4.86532 -5.60952,6.58726 -0.6168,0.45852 -1.28707,0.85193 -1.85344,1.37145 -1.7887,1.64074 -3.06235,3.83638 -4.6083,5.68212 -2.99248,3.81671 -6.08965,7.63519 -8.1541,12.05854 -32.20772,-20.15193 -25.44603,-6.44154 -19.68403,-14.87303 1.255,-1.83643 2.14247,-3.89068 3.38597,-5.73477 2.5173,-4.72572 4.08529,-9.78515 5.7433,-14.85989 2.23088,-7.26214 4.30669,-14.57234 6.63603,-21.80507 1.51909,-4.96147 3.60984,-9.7091 5.14951,-14.6655 1.57195,-4.44224 3.23194,-8.84679 5.23514,-13.11627 2.02473,-5.23935 3.69514,-10.60963 5.35512,-15.97112 0.5493,-1.81313 1.24359,-3.66829 1.43374,-5.56764 0.045,-0.44948 0.14906,-0.92726 0.004,-1.35516 -0.0733,-0.21661 -0.77215,-0.48982 -0.58437,-0.35934 6.54333,4.54671 13.10124,9.07241 19.65186,13.60861 -0.36395,-0.0659 -0.72828,-0.26581 -1.09184,-0.19777 -0.96087,0.17982 -4.18221,1.82934 -4.73724,2.12255 -3.32605,1.75709 -6.43174,3.82166 -9.07752,6.52487 -3.22001,3.72012 -5.67801,8.0211 -9.08805,11.5946 -4.59462,5.42174 -8.93227,11.07618 -12.54476,17.21065 -5.57737,9.40922 -10.98324,18.91106 -15.98686,28.64207 -2.68722,4.98558 -5.33486,9.99567 -8.04084,14.97067 -0.59599,1.09573 -0.68149,3.71786 -1.8409,3.25785 -23.27954,-9.2365 -24.1533,-4.80864 -21.34495,-13.97976 2.44242,-5.79199 4.25571,-11.80601 6.32478,-17.73609 3.85387,-11.49115 7.88713,-22.93874 11.03919,-34.64842 0.27056,-1.05347 2.07215,-7.74326 2.23294,-9.40892 0.0428,-0.4436 -0.71197,-1.52935 -0.33297,-1.29487 6.94637,4.29767 13.55804,9.11416 20.33705,13.67125 -0.35217,0.14976 -0.74502,0.22697 -1.05652,0.44929 -0.65224,0.46549 -1.20145,1.06061 -1.80217,1.59092 -4.70508,3.84244 -9.30938,7.79083 -13.26001,12.43435 -0.9349,1.01199 -2.99464,3.18876 -3.86505,4.32744 -2.27873,2.98106 -3.6687,6.47343 -5.44923,9.74412 -5.38959,9.41357 -11.4762,18.3716 -17.778,27.19845 -4.06003,5.74411 -8.14886,11.46832 -12.24414,17.18725 -0.93907,1.31139 -1.3675,4.55094 -2.84836,3.91168 -23.53466,-10.15952 -24.40965,-6.88786 -20.14725,-15.86366 3.32571,-6.21111 6.8406,-12.33358 9.74374,-18.75888 4.35454,-9.51422 8.6026,-19.09651 12.44386,-28.82894 1.71072,-4.84903 3.5389,-9.6747 4.86602,-14.64839 0.44071,-1.65169 1.2414,-4.79131 1.17659,-6.64364 -0.0192,-0.54986 -0.31677,-1.05382 -0.47515,-1.58073 6.54212,4.5084 13.18296,8.8768 19.62636,13.5252 0.26628,0.1921 -0.66865,-0.17245 -0.98214,-0.0749 -2.07645,0.64628 -3.17536,2.80139 -4.35881,4.41783 -2.46909,4.33699 -5.11557,8.55084 -7.79051,12.76118 -2.45674,4.47078 -4.93221,8.99509 -8.4823,12.71377 -5.30769,5.65442 -11.1864,10.73894 -16.64036,16.25026 -7.40798,7.7687 -15.01727,15.36584 -21.741,23.75222 -0.79165,0.98485 -1.61426,1.94559 -2.37495,2.95455 -0.50399,0.66849 -0.69784,2.50386 -1.41632,2.07413 -25.96643,-15.53066 -23.54099,-8.51935 -17.28345,-19.06873 2.74236,-4.54985 5.34973,-9.19562 7.64643,-13.98716 3.03265,-6.23349 6.15546,-12.427 8.53424,-18.95105 1.79809,-4.50902 3.89786,-9.39421 4.38084,-14.2419 6.74156,4.7053 13.58856,9.26304 20.22469,14.11591 0.17396,0.12722 -0.43463,0.0986 -0.60312,0.23299 -0.41826,0.3336 -0.73574,0.7777 -1.12468,1.14507 -1.71839,1.62315 -3.62405,3.02478 -5.45251,4.51718 -5.63495,4.67028 -11.69537,8.75942 -18.41282,11.73547 -8.76012,4.1107 -17.47639,8.49655 -24.87039,14.84631 -0.59934,0.46921 -1.17345,0.97257 -1.79801,1.40764 -0.46177,0.32166 -0.97375,1.1509 -1.45413,0.85776 -13.45029,-8.20787 -22.27465,-7.32244 -20.90018,-18.11058 0.38786,-3.00715 0.75621,-6.01125 0.84131,-9.0457 0.24978,-3.30952 0.55484,-6.61805 0.75397,-9.92887 -4.09533,-7.84657 0.20357,0.60954 19.24655,13.84694 0.2234,0.1553 0.28141,-0.64372 0.0687,-0.81333 -0.26283,-0.20954 -1.41888,0.67144 -2.07478,1.11829 -0.52559,0.35806 -1.04803,0.72073 -1.57204,1.0811 -1.73392,1.362 -3.38635,2.86578 -5.14184,4.19327 -2.36027,1.78483 -4.9665,3.26418 -7.42909,4.89477 -7.23328,4.55107 -14.16852,9.64546 -22.17086,12.84533 -13.45176,6.03182 -29.37059,14.40897 -37.81518,-10.55939 -0.4487,-3.22793 -0.22682,-5.69862 0.12819,-8.95372 0.13611,-1.24798 0.33835,-2.4906 0.40655,-3.74412 0.56435,-10.37297 -6.09402,-7.45736 18.91048,10.60723 0.0807,-0.51086 0.64568,-1.20896 0.24223,-1.53257 -0.38902,-0.31203 -0.94103,0.35905 -1.35065,0.64352 -0.70129,0.48701 -1.30237,1.10448 -1.95654,1.65317 -2.478,2.07846 -5.04071,4.06917 -7.27515,6.41968 -2.11213,2.01907 -4.21334,4.0612 -6.34939,6.05376 -0.67698,0.6315 -1.30602,2.35565 -2.0773,1.84357 -20.99199,-13.93733 -22.68453,-8.52271 -18.9657,-17.60825 1.22771,-2.49587 2.57966,-4.95341 3.62555,-7.53393 0.33476,-0.82593 0.62423,-1.67032 0.89356,-2.51985 0.20588,-0.64939 -0.0556,-2.31998 0.53101,-1.97357 7.11261,4.20034 13.5126,9.50461 20.2689,14.25692 -0.7999,0.12712 -0.17499,-0.0189 -1.43941,0.71307 -2.5767,1.49165 -5.13711,3.01181 -7.74373,4.45252 -3.9785,2.31096 -7.77967,4.92361 -12.04465,6.71271 -7.56819,3.71796 -15.37486,6.96699 -22.82818,10.93222 -3.43694,1.72018 -8.52331,4.24423 -11.93234,6.03628 -2.9048,1.52698 -5.70245,3.25405 -8.6225,4.75167 -0.675,0.34619 -3.60147,1.57105 -4.4927,1.94781 -2.15979,-1.54508 -24.17003,-8.44151 -20.61393,-18.32675 0.96999,-2.69638 3.00335,-4.9215 4.26612,-7.4611 3.88947,-6.41848 7.641,-12.9132 11.18659,-19.52986 0.43296,-0.95726 0.91685,-1.89308 1.29887,-2.87178 0.28164,-0.72152 0.0259,-2.62057 0.68837,-2.21932 6.94577,4.20671 12.89725,9.88115 19.57971,14.4947 0.25427,0.17554 0.37996,-0.86266 0.0771,-0.92373 -1.11537,-0.22492 -1.87806,2.05931 -2.97389,1.67564 -3.8225,2.02417 -7.64359,4.05032 -11.58404,5.83964 -2.17308,1.15373 -4.41252,2.25236 -6.51311,3.53644 -4.88663,2.98715 1.54946,-0.70522 -3.74735,2.46034 -0.75142,0.44908 -1.52928,0.85236 -2.29392,1.27854 -6.91731,4.2377 -13.81515,8.58817 -19.66923,14.26753 -2.3116,2.42092 -4.53168,4.96618 -7.01836,7.21235 -0.61326,0.55394 -1.19809,2.08737 -1.87834,1.61811 -20.82096,-14.36314 -23.09349,-8.91058 -18.53318,-17.61523 3.0299,-4.45229 6.23865,-8.79946 8.42634,-13.76326 2.60425,-5.17522 5.37894,-10.27069 7.57654,-15.63823 0.6607,-1.87595 1.04687,-2.69774 1.37784,-4.60925 0.0998,-0.57623 0.20639,-1.16356 0.16339,-1.74678 -0.0244,-0.33108 -0.6342,-1.11643 -0.36065,-0.92834 22.98405,15.80297 27.10242,17.65265 19.20498,14.0182 -2.67638,0.78942 -5.06428,2.22794 -7.44612,3.65468 -2.63471,1.49105 -5.40479,2.71108 -8.2416,3.76524 -2.63055,1.27843 -5.32315,2.45588 -7.78007,4.05643 -2.88633,1.86095 -5.4933,4.02411 -7.33851,6.96783 -2.02108,3.48833 -3.78048,7.19861 -6.57926,10.15566 -4.33103,4.68158 -9.12468,8.89805 -13.93684,13.07535 -0.67206,0.46962 -1.32892,0.96179 -2.01619,1.40885 -0.54751,0.35614 -1.14658,1.36799 -1.68559,0.99911 -14.50333,-9.9256 -24.49137,-9.57006 -18.2677,-19.1299 1.24856,-1.67837 2.7124,-3.21029 3.47933,-5.18953 1.09558,-2.07711 2.26835,-4.17165 2.83331,-6.46543 0.85365,-3.13262 1.55564,-6.2838 2.07695,-9.49191 0.83054,-4.23608 2.03973,-8.38445 2.89735,-12.61563 0.22166,-1.23754 0.55242,-2.91263 0.66355,-4.17963 0.0524,-0.59766 0.11844,-1.20191 0.0589,-1.79891 -0.0378,-0.37915 -0.6601,-1.3063 -0.34699,-1.08915 17.31896,12.0111 24.84719,20.20207 18.73258,13.61343 -2.56755,0.31184 -4.99445,1.01566 -7.48534,1.66954 -2.98278,0.6662 -6.13063,0.82735 -8.68669,2.71551 -0.97401,0.56362 -1.83667,1.01031 -2.71262,1.72896 -2.54937,2.09155 -4.50847,4.84468 -6.7791,7.20849 -3.6468,3.85879 -7.17293,7.8391 -11.12913,11.39329 -3.79445,3.47321 -7.77907,6.74384 -11.99886,9.69068 l -19.16534,-15.87947 z"
         id="path3194"
         style="opacity:0.86462881;fill:url(#linearGradient3054);fill-opacity:1;fill-rule:nonzero;stroke:none;stroke-width:0.1;marker:none;visibility:visible;display:inline;overflow:visible;filter:url(#filter5126);enable-background:accumulate" />
      <path
         transform="matrix(0.04767101,0,0,0.04767101,-14.462409,14.646961)"
         d="m 346.46568,259.70945 c 3.78228,-1.7045 7.22694,-4.12842 10.61627,-6.50638 3.96774,-2.42053 7.94119,-4.92898 12.40589,-6.31025 0.53831,-0.0587 1.07373,-0.19389 1.61492,-0.17596 0.48599,0.0161 1.04139,-0.0124 1.43225,0.27687 5.32731,3.94263 10.62615,7.9472 15.59946,12.32792 0.8073,0.7111 0.23225,5.17332 0.15019,6.13781 -0.79473,3.43315 -2.44948,6.55932 -3.81434,9.77987 -1.97687,4.66467 0.0436,0.3323 -2.07353,4.7324 -1.61448,3.72266 -3.98076,6.9613 -6.52355,10.08701 -0.80939,1.03609 -4.47874,4.9709 -4.14494,6.30826 0.0405,0.16225 0.26275,0.20694 0.39412,0.3104 -4.65904,-3.80895 -9.35095,-7.57807 -13.97714,-11.42686 -0.2052,-0.17072 0.43614,0.38046 0.70305,0.38338 1.07813,0.0118 3.63092,-0.99677 4.3395,-1.32875 2.48891,-1.16609 4.31124,-2.47313 6.63214,-3.97706 6.5254,-4.04767 11.949,-9.39348 17.30832,-14.8124 0.68918,-0.6863 1.42751,-1.32656 2.06754,-2.05892 4.75092,-5.43627 -2.4223,-13.56007 14.1935,11.61038 0.75082,1.13738 -1.69157,2.14024 -2.4584,3.26689 -2.5171,3.69816 -3.9624,6.42053 -6.2007,10.34065 -4.5081,8.86937 -9.62327,17.39803 -14.83457,25.86555 -0.58352,0.96002 -1.183,1.91051 -1.75054,2.88006 -0.16578,0.28321 -2.19675,3.64072 -2.11386,4.42846 0.0427,0.40625 1.31733,0.96474 1.0039,0.70279 -13.49433,-11.2779 -18.80502,-11.22256 -10.96337,-10.68263 1.02005,-0.36456 2.08553,-0.62093 3.06016,-1.09369 2.69082,-1.30524 6.78997,-4.17582 9.00767,-5.83563 5.94969,-4.45299 11.39039,-9.4158 16.74999,-14.54639 8.22563,-7.95343 14.64075,-17.44838 22.09485,-26.07449 0.828,-0.97348 1.69965,-1.91146 2.48399,-2.92045 5.66471,-7.28718 -2.01439,-9.74359 17.04595,8.43319 0.49749,0.47443 -0.69086,1.18936 -1.06486,1.76617 -0.65375,1.0083 -1.34496,1.99181 -2.01745,2.98772 -5.47746,8.99085 -10.96237,17.97945 -16.24586,27.0864 -3.75182,6.49024 -7.3254,13.09346 -10.43479,19.9167 -2.23076,4.23644 -3.74935,8.83767 -6.31872,12.89103 -0.80696,1.35514 -1.94587,2.58646 -2.61222,4.02527 -0.15663,0.33821 -0.39372,0.73254 -0.27158,1.08467 0.0731,0.21067 0.83819,0.19712 0.66673,0.0545 -4.6624,-3.87663 -9.48651,-7.55452 -14.22977,-11.33178 6.46004,-2.04188 12.29865,-5.68406 17.95074,-9.34306 10.56522,-7.17679 21.23668,-14.16788 31.27138,-22.08069 5.81228,-4.48034 10.95885,-9.70788 16.35626,-14.65332 2.13035,-1.95196 8.01645,-7.08429 10.11608,-8.92309 1.36547,-1.37331 2.7622,-2.71623 4.09642,-4.11993 4.55579,-4.79302 1.28092,-1.4726 4.30167,-5.0374 0.23738,-0.28013 0.49342,-1.01692 0.77571,-0.78211 15.42447,12.831 17.15977,7.67603 12.88268,15.68931 -3.66017,6.28638 -8.83684,11.49423 -13.3777,17.12801 -2.81257,3.48952 -5.4798,7.0721 -8.18197,10.64603 -4.87027,6.87531 -9.5004,13.91571 -13.91218,21.0915 -1.42932,2.6835 -2.99463,5.31982 -4.29724,8.06983 -0.55313,1.16776 -1.23426,2.48698 -0.81465,3.77391 -4.69749,-3.91652 -9.3881,-7.84131 -14.09248,-11.74955 -0.159,-0.1321 0.24905,0.42471 0.45572,0.42058 0.44835,-0.009 0.87457,-0.23626 1.26604,-0.45501 2.5228,-1.40971 4.69337,-3.71624 6.80077,-5.63918 7.92922,-6.54392 15.3976,-13.58849 22.40007,-21.11078 5.299,-5.87419 10.10424,-12.1344 14.33986,-18.80981 2.93875,-4.38018 5.50501,-9.0019 8.42916,-13.38794 7.04989,-9.20603 8.78577,-4.6509 20.81508,6.59121 0.64425,0.60209 -0.59871,1.65886 -0.89807,2.48829 -4.40134,11.02093 -8.95955,21.96009 -14.05414,32.68191 -3.40825,7.0744 -7.27067,13.90666 -11.00451,20.80858 -0.25757,0.94919 -0.96705,1.95034 0.1026,2.72827 0.30721,0.22342 1.40973,0.47078 1.11622,0.22965 -4.55161,-3.73942 -9.64656,-6.81891 -13.98581,-10.80278 -0.41845,-0.38418 1.11929,-0.27301 1.60962,-0.55985 0.98648,-0.57708 1.85291,-1.33843 2.77937,-2.00764 1.07725,-0.97793 2.17936,-1.92915 3.23174,-2.93379 3.89982,-3.72289 7.61547,-7.64195 11.52344,-11.35824 3.53628,-3.36282 4.84619,-4.45008 8.44912,-7.60962 5.83761,-4.98843 11.88715,-9.74903 16.98174,-15.51948 2.97318,-3.64668 6.17378,-7.05375 9.70991,-10.15153 2.71084,-1.97159 5.50464,-3.88645 8.65531,-5.09202 1.40815,-0.53881 2.86459,-0.9445 4.27582,-1.47518 6.90717,-2.5304 2.95566,-1.3963 16.14999,11.63859 0.53196,0.52553 -0.66066,1.34182 -1.0047,2.00575 -2.12408,4.09894 -4.40361,8.11371 -6.66456,12.13779 -5.42446,9.38915 -10.3986,19.02558 -15.11946,28.78445 -1.95848,4.61846 -3.74391,9.26005 -6.16831,13.6608 -0.12051,0.46464 -0.35196,0.914 -0.36153,1.39392 -0.004,0.22318 0.21466,0.39145 0.322,0.58717 -4.67172,-3.86844 -9.33565,-7.7463 -14.01515,-11.60532 -0.16076,-0.13257 0.25795,0.36735 0.45809,0.42533 0.51806,0.15007 1.33355,-0.40702 1.67571,-0.58216 2.65261,-1.46348 4.94698,-3.47695 6.85347,-5.81867 1.97276,-2.57751 3.55935,-5.4868 4.98235,-8.40309 1.97262,-3.76675 4.11318,-7.44784 6.03336,-11.24582 1.85847,-4.9546 4.80926,-9.3724 7.77767,-13.7164 1.86937,-2.77269 4.1364,-5.34342 6.93027,-7.22106 1.78168,-1.19739 3.73231,-2.10633 5.63914,-3.07443 9.25192,-4.70872 19.09994,-8.05559 28.41179,-12.64342 8.3113,-2.9626 6.18747,0.11747 17.46202,11.89685 0.0488,0.051 -2.60792,4.54374 -2.81555,4.89426 -1.72248,3.06994 -3.40946,6.13157 -4.9351,9.30104 -0.22809,0.40345 -0.92444,0.81396 -0.68428,1.21035 0.22568,0.37248 1.61371,0.0787 1.28928,-0.21181 -4.25529,-3.81087 -9.1788,-6.83027 -13.42239,-10.65415 -0.50779,-0.45757 1.33381,0.33067 2.01585,0.37578 1.65093,0.10919 2.96941,-0.23009 4.58541,-0.51516 3.61223,-0.88254 6.58944,-2.97606 9.56805,-5.07829 1.08949,-0.76893 5.10081,-3.46812 6.10159,-4.1438 3.39515,-2.11592 6.75715,-4.28368 10.13885,-6.42089 2.03192,-1.28416 3.93213,-2.62896 6.17778,-3.49171 5.26783,3.882 11.01389,7.18735 15.80349,11.64602 0.62789,0.5845 -0.41466,1.66491 -0.6064,2.50104 -1.13855,4.96501 -2.78427,9.35441 -4.58804,14.11001 -2.05099,6.30268 -4.76221,12.33732 -7.69685,18.26879 -1.07627,1.68684 -1.82472,3.54861 -2.73676,5.31719 -0.66817,1.29567 -1.48675,2.48808 -2.13164,3.79891 -0.10006,0.14759 -1.38442,1.95162 -1.47955,2.37108 -0.0277,0.12225 0.36191,0.34639 0.26524,0.26659 -4.72111,-3.89736 -9.59866,-7.61487 -14.13992,-11.72039 -0.2775,-0.25087 0.77614,0.0953 1.12118,-0.0492 0.93482,-0.39154 1.75451,-1.01513 2.63176,-1.5227 9.04542,-6.41354 17.19363,-14.0019 25.43125,-21.40101 3.37387,-3.22164 6.56865,-6.66408 9.45255,-10.33532 2.11343,-2.69042 3.96324,-5.56115 6.0846,-8.24949 1.48421,-2.1109 3.20814,-4.03765 4.72512,-6.12328 0.3372,-0.46361 0.70547,-0.91181 0.96848,-1.42118 0.0829,-0.16057 -0.0998,-0.64932 0.0443,-0.54031 5.07326,3.83738 9.95955,7.91587 14.93932,11.87381 -3.92465,6.40106 -7.09645,13.23188 -10.74347,19.79336 -3.6679,5.84744 -6.9473,11.9236 -10.67821,17.73164 -1.20797,2.15857 -2.56848,4.23762 -3.72937,6.42304 -0.13706,0.25802 -1.44583,2.5017 -1.11481,3.21982 0.12898,0.27982 0.60229,0.13029 0.90344,0.19543 -4.7306,-3.70549 -9.4612,-7.41099 -14.1918,-11.11648 0.19731,0.0511 0.42552,0.0355 0.59194,0.15321 5.27835,3.73204 10.61823,7.38818 15.70899,11.37231 0.527,0.41243 -0.33386,1.84961 0.0205,2.63795 -5.07963,-3.7599 -10.47294,-7.12938 -15.23889,-11.2797 -0.37739,-0.32864 0.67201,-0.74255 0.98435,-1.13353 0.59441,-0.74406 1.18557,-1.49202 1.7347,-2.27009 2.85877,-4.05064 5.35864,-8.34259 7.88706,-12.60133 3.97208,-6.48346 7.20183,-13.37586 10.5957,-20.16918 2.02368,-4.5347 4.63022,-8.77703 8.1247,-12.3144 3.08584,-2.5842 6.5668,-4.45632 10.23451,-6.0553 2.47956,-0.94779 4.85257,-2.1701 7.32379,-3.13542 0.4568,-0.17843 0.99377,-0.72261 1.40094,-0.44928 16.61177,11.15132 17.26086,5.70119 15.08672,14.19089 -3.54472,9.11868 -8.01571,17.86131 -12.61247,26.49025 -4.31186,7.11158 -7.50548,14.86156 -12.10593,21.79576 -1.17512,1.78014 -2.18927,3.65745 -3.36406,5.4377 -0.27689,0.41958 -0.61092,0.80205 -0.86131,1.23796 -0.093,0.16183 -0.0103,0.6508 -0.15829,0.53706 -4.99455,-3.8392 -9.7731,-7.95151 -14.65965,-11.92727 0.30652,-0.10489 0.64064,-0.14985 0.91955,-0.31467 1.26192,-0.7457 2.54726,-2.02585 3.60364,-2.96748 3.01709,-2.68935 5.94745,-5.45315 8.87031,-8.24498 4.32364,-3.96352 8.30086,-8.2714 12.19646,-12.64881 0.85265,-0.9581 1.65276,-1.96485 2.54965,-2.88168 0.89697,-0.91691 1.88346,-1.74176 2.82519,-2.61264 4.07168,-3.78862 8.30168,-7.40204 12.39693,-11.16417 1.8913,-1.81624 3.91216,-3.6632 6.31896,-4.78602 0.3364,-0.15694 0.76782,-0.57624 1.05864,-0.34555 5.11451,4.05709 9.83278,8.59006 14.74917,12.88509 -2.99642,6.56315 -6.75076,12.73839 -9.92143,19.21657 -0.61479,2.78164 -3.44281,5.75104 -4.00986,8.41788 -0.0577,0.2715 0.29687,1.00111 0.0792,0.82894 -4.8108,-3.80426 -9.3679,-7.9188 -14.05186,-11.87819 0.15753,0.0897 0.30444,0.33696 0.47258,0.26917 2.08923,-0.8424 4.36108,-3.96482 5.76441,-5.55856 3.00225,-3.40961 2.18885,-2.48793 5.34859,-5.88539 5.20277,-6.0447 11.74666,-10.56251 18.27566,-15.02785 7.98124,-5.343 16.04395,-10.57189 24.21404,-15.62234 5.56887,-2.83883 9.74398,-7.41688 14.26088,-11.58274 3.70962,-2.94981 7.63104,-5.62476 11.58657,-8.23156 6.74105,-3.0293 2.59443,-1.50682 15.85359,11.9799 0.47708,0.48527 -0.59761,1.22311 -0.91722,1.82391 -1.30263,2.44869 -2.70427,4.8403 -4.14231,7.21084 -2.13798,3.82392 -4.47135,7.52126 -6.97434,11.11157 -0.74993,1.15232 -1.74192,2.02089 -2.81922,2.8441 L 740.5223,253.12301 c 1.00655,-0.59121 1.87786,-1.25808 2.57165,-2.22416 2.60599,-3.43125 5.06212,-6.97517 7.23219,-10.70235 1.23227,-2.13616 1.66601,-2.77426 2.69101,-4.98906 0.33283,-0.71918 0.67085,-1.4399 0.91987,-2.19223 0.15393,-0.46505 -0.13475,-1.69782 0.28307,-1.44208 8.54164,5.22805 19.77364,14.93819 14.37831,10.28646 -4.2988,1.74679 -7.85727,4.98361 -11.63062,7.60681 -4.7196,4.16425 -9.02813,8.90678 -14.84043,11.60469 -8.43331,4.54636 -16.49859,9.72445 -24.137,15.51388 -6.42295,4.36478 -12.82803,8.86811 -18.03123,14.69829 -2.89212,3.19826 -2.46728,2.63183 -5.12203,5.94212 -2.26865,2.82885 -4.3707,5.82961 -7.31229,8.02416 -4.93395,-4.13438 -10.10186,-8.00462 -14.80185,-12.40315 -0.27709,-0.25931 0.25157,-0.71778 0.41633,-1.05965 0.26543,-0.55077 0.56905,-1.08258 0.87202,-1.61363 1.24001,-2.17357 2.52101,-4.32243 3.61311,-6.5785 2.85555,-5.12566 6.64418,-10.94264 8.3761,-16.51986 0.23384,-0.75305 0.29329,-1.54952 0.43993,-2.32428 4.89555,3.47627 9.73032,7.03977 14.68664,10.42883 0.22043,0.15073 -0.16428,-0.62825 -0.42663,-0.67804 -0.42988,-0.0816 -0.86791,0.16947 -1.26308,0.35734 -1.87097,0.8895 -3.42151,2.39186 -4.95583,3.73665 -4.1895,3.69574 -8.43477,7.32662 -12.75193,10.87265 -6.26374,5.61306 -11.46251,12.31156 -17.72061,17.94854 -4.33019,4.31943 -8.45723,8.84699 -12.82891,13.11828 -5.03806,-3.92935 -10.2301,-7.66888 -15.11418,-11.78805 -0.18707,-0.15777 0.33906,-0.3531 0.50245,-0.53528 0.30591,-0.34107 0.62536,-0.67154 0.90527,-1.03427 1.30965,-1.69716 2.27432,-3.62453 3.58795,-5.31962 4.86049,-6.62794 8.85693,-13.81879 12.80221,-21.01723 3.41527,-6.41833 6.61061,-12.844 9.17222,-19.65809 0.48865,-1.29982 1.01542,-2.58971 1.39417,-3.9257 0.28262,-0.9969 0.38955,-2.03543 0.58433,-3.05314 -1.25182,-7.16884 -0.83249,-2.73603 14.31784,8.57568 0.35836,0.26757 -0.89455,-0.22003 -1.33445,-0.13938 -0.95253,0.17463 -4.07631,1.58532 -4.81506,1.91047 -0.82983,0.36525 -1.655,0.74102 -2.4825,1.11153 -3.37533,1.65484 -6.64294,3.52024 -9.75221,5.63921 -3.49382,3.27519 -5.89223,7.43682 -7.92144,11.74379 -3.646,6.64439 -7.34769,13.26842 -11.40582,19.67143 -2.47768,4.37287 -4.87078,8.76767 -7.227,13.20535 -0.45422,0.85548 -0.94402,1.69164 -1.40647,2.5427 -0.28256,0.51999 -0.30695,1.85001 -0.82846,1.57027 -5.60226,-3.00514 -10.59639,-7.02717 -15.89459,-10.54076 0.0492,-0.42945 0.18316,-0.66489 -0.18903,-1.00792 -0.15675,-0.14446 -0.73924,-0.42129 -0.56708,-0.2956 4.90324,3.57961 9.89457,7.03854 14.7659,10.66146 0.18111,0.13469 -0.43734,-0.11177 -0.65602,-0.16765 -5.2503,-3.84909 -10.50061,-7.69817 -15.75092,-11.54726 0.0205,-0.43959 -0.0385,-0.89024 0.0616,-1.31876 0.77572,-3.31924 4.06052,-6.78107 5.583,-9.8069 3.80069,-5.7014 7.23326,-11.62903 10.9364,-17.39249 3.74558,-6.56242 7.24198,-13.30377 9.79271,-20.43122 5.22876,3.48861 10.59619,6.77783 15.68629,10.46583 0.19928,0.14438 -0.36491,0.33222 -0.52454,0.5195 -0.39243,0.46038 -0.74003,0.95759 -1.12926,1.42068 -1.65439,1.96834 -3.50368,3.76919 -5.02066,5.85403 -5.09005,6.44259 -10.08555,12.97643 -16.3378,18.38013 -8.45897,7.17015 -16.61295,14.66636 -24.89291,22.0389 -0.81721,0.7135 -1.6076,1.45893 -2.45162,2.14051 -0.56066,0.45275 -1.14872,1.64396 -1.75772,1.25868 -17.60869,-11.13988 -18.28098,-7.1811 -13.47811,-15.09249 1.60606,-3.02967 3.53992,-5.88589 5.22428,-8.87589 3.14619,-5.7065 5.75113,-11.65677 7.99632,-17.77517 1.32942,-3.64915 2.76625,-7.30798 3.40659,-11.16079 0.15969,-0.96082 0.29779,-1.93544 0.27369,-2.90914 -0.0134,-0.54 -0.84848,-1.85099 -0.38464,-1.57417 5.07739,3.03009 9.73876,6.70833 14.60814,10.06249 -0.43729,-0.0558 -0.88441,-0.27523 -1.31188,-0.16747 -0.87995,0.22185 -4.44907,2.31206 -4.97252,2.60888 -3.45482,1.95898 -6.86223,3.99662 -10.1201,6.27412 -5.05523,3.66893 -9.82417,7.94508 -15.78051,10.09912 -1.19437,0.27347 -5.88277,1.63988 -6.96182,0.97104 -5.95846,-3.69336 -18.19338,-6.34797 -16.427,-13.13207 0.10775,-0.41385 0.43211,-0.73811 0.64817,-1.10716 1.6445,-3.12888 3.44315,-6.15355 5.16332,-9.24356 0.46064,-0.86075 1.34395,-2.44714 1.72807,-3.39384 0.14956,-0.36861 0.0139,-1.36022 0.34643,-1.14199 5.11411,3.35576 9.72506,7.42425 14.68435,11.00484 0.28448,0.20539 -0.28105,-0.76044 -0.62016,-0.85055 -0.68308,-0.18151 -1.41118,0.0822 -2.11676,0.1233 -9.86232,3.05655 -19.36254,7.25096 -28.25059,12.51417 -0.94395,0.52561 -4.21011,2.30945 -5.23939,3.00413 -2.63445,1.77803 -4.7512,4.23463 -6.59806,6.78939 -3.07954,4.19274 -5.64152,8.69615 -7.57321,13.53529 -1.93963,3.79221 -3.86998,7.58712 -5.82935,11.36777 -1.51947,3.03746 -3.14728,6.06996 -5.14531,8.81902 -2.03818,2.44006 -4.51418,4.55147 -7.17038,6.29433 -0.31364,0.24039 -3.04952,2.23486 -3.46484,1.93293 -13.4486,-9.77672 -17.62736,-6.89921 -14.11713,-14.892 2.45809,-4.2885 4.28022,-8.88337 6.68643,-13.2009 5.18989,-9.48834 10.6744,-18.81612 15.58691,-28.45514 1.52903,-3.17273 3.05925,-6.16766 4.33814,-9.44311 0.41481,-1.0624 0.79249,-2.14243 1.08718,-3.2442 0.12728,-0.47586 -0.24819,-1.72286 0.17309,-1.46759 18.15159,10.99878 20.90862,10.97462 13.94771,10.5803 -4.6513,1.1858 -8.78107,2.6835 -12.41579,5.97171 -3.43735,3.10162 -7.0888,5.97536 -9.9622,9.6633 -0.73442,0.85045 -1.42068,1.74499 -2.20324,2.55136 -4.66346,4.80536 -10.46534,8.37772 -15.52021,12.72443 -3.63203,2.99586 -5.05813,4.05076 -8.48798,7.39438 -4.91617,4.79256 -9.37406,10.04279 -14.20783,14.91608 -0.8686,0.84722 -1.69761,1.737 -2.60578,2.54165 -0.6618,0.58635 -1.30799,2.02441 -2.09672,1.62478 -3.26669,-1.65514 -18.42069,-7.34223 -16.63686,-13.88657 0.17847,-0.65475 0.56519,-1.23399 0.84778,-1.85099 4.0926,-6.58855 8.26226,-13.13838 11.92137,-19.98251 5.29974,-10.57442 10.21416,-21.39249 12.61594,-33.05068 -1.01004,-7.67284 -0.83502,-3.06608 14.91466,8.64593 0.25419,0.18902 -0.63749,0.0839 -0.92551,0.21578 -1.60285,0.73397 -2.81945,2.08662 -3.87942,3.44349 -2.97288,4.32514 -5.65269,8.85456 -8.6304,13.17941 -4.35208,6.75043 -9.7729,12.67602 -15.22752,18.54836 -7.05582,7.45366 -14.2563,14.76811 -21.89888,21.62635 -2.15582,2.13337 -4.22379,4.56374 -6.57492,6.4894 -0.0197,0.0162 -2.79319,1.84766 -2.87688,1.78891 -5.28555,-3.71016 -9.9505,-8.23388 -14.92575,-12.35082 0.65894,-2.37365 2.06865,-4.33682 3.2551,-6.47229 0.51244,-0.92232 0.98227,-1.86775 1.48659,-2.79454 0.52393,-0.96285 1.06535,-1.91609 1.59803,-2.87414 4.40687,-7.25521 9.97214,-13.69809 14.92403,-20.57751 5.09634,-6.42313 3.12784,-3.89767 8.29368,-10.59559 4.32683,-5.61008 8.99951,-11.08614 11.96182,-17.58633 2.79273,-8.43379 -0.10917,-2.39192 15.88827,7.90986 0.25645,0.16514 0.0913,-0.9689 -0.2039,-0.89206 -0.79131,0.20598 -1.3413,0.93851 -1.97231,1.45853 -1.11931,0.92245 -2.18837,1.90429 -3.27457,2.86551 -1.4759,1.30608 -2.94109,2.62421 -4.41164,3.93631 -1.69739,1.54591 -3.4177,3.06703 -5.09217,4.63774 -6.97135,6.53937 -13.40614,13.6873 -21.34913,19.12318 -10.19947,7.62318 -20.74887,14.75594 -30.71359,22.69411 -5.70325,3.78724 -11.64213,7.16968 -17.58535,10.56147 -15.68958,-10.59227 -19.95946,-7.02669 -12.72636,-17.39427 2.70086,-3.81824 4.54672,-8.13543 6.66588,-12.28588 3.23255,-6.82294 6.91171,-13.40206 10.93665,-19.79349 5.63701,-8.89432 11.30096,-17.79317 15.87667,-27.29753 0.49316,-1.05017 1.04566,-2.07447 1.4795,-3.15051 0.2406,-0.59675 -0.0272,-2.16095 0.53812,-1.85374 27.24999,14.80747 19.52775,6.28509 14.56855,11.30231 -1.54986,1.56799 -2.86927,3.35574 -4.53902,4.81074 -7.83382,8.37149 -14.45059,17.82445 -22.98965,25.54789 -5.38759,5.12689 -10.82594,10.16148 -16.48554,14.98936 -2.90281,2.47622 -5.37372,4.63343 -8.53058,6.70898 -1.02695,0.67519 -2.12971,1.22735 -3.19456,1.84102 -0.82409,0.17296 -1.75071,0.95292 -2.47226,0.51887 -0.40757,-0.24518 -18.11537,-7.19204 -16.25737,-13.59098 0.68534,-2.36032 3.40736,-5.02071 4.47588,-7.19606 5.52675,-8.1824 10.88504,-16.49279 15.46861,-25.2499 11.47917,-21.51876 -4.94533,9.35316 5.67615,-10.86961 0.67116,-1.27785 0.6942,-4.22026 2.0752,-3.8005 5.96317,1.8125 11.1335,5.70946 16.19056,9.35236 1.30618,0.94091 -6.10829,2.49344 -3.48874,3.3394 -5.61703,5.32627 -11.31684,10.53076 -17.79948,14.81966 -3.46823,2.52084 -6.81274,4.96422 -10.75504,6.69114 -0.49122,0.21518 -1.0505,0.91054 -1.49093,0.60457 -5.36455,-3.72677 -10.19132,-8.17348 -15.28698,-12.26023 0.62033,-3.05933 3.1113,-5.31252 5.03316,-7.62619 2.45046,-3.00841 4.57667,-6.24214 6.38479,-9.67912 2.25992,-4.41096 4.30225,-9.09433 5.37742,-13.93911 0.008,-1.34045 0.14496,-2.54966 -0.31124,-3.84147 -0.16899,-0.47855 -1.18158,-1.6023 -0.76049,-1.319 4.7706,3.20954 9.2315,6.85883 13.9271,10.17715 0.35387,0.25007 -0.49589,-0.75616 -0.87992,-0.95688 -0.42687,-0.22311 -0.94913,-0.16478 -1.4237,-0.24717 -0.60542,0.0727 -1.23013,0.05 -1.81626,0.21816 -3.53972,1.01547 -6.94909,3.75208 -10.16719,5.49107 -3.43587,2.39609 -7.02716,4.57219 -10.44609,6.99929 l -14.56565,-12.06839 z"
         id="path3196"
         style="fill:url(#linearGradient3056);fill-opacity:1;fill-rule:nonzero;stroke:none;stroke-width:0.1;marker:none;visibility:visible;display:inline;overflow:visible;filter:url(#filter5130);enable-background:accumulate" />
      <path
         transform="matrix(0.04767101,0,0,0.04767101,-5.6753056,7.069591)"
         d="m 396.98996,476.57523 c 0,10.04205 -8.59296,18.18274 -19.1929,18.18274 -10.59995,0 -19.1929,-8.14069 -19.1929,-18.18274 0,-10.04206 8.59295,-18.18275 19.1929,-18.18275 10.59994,0 19.1929,8.14069 19.1929,18.18275 z"
         sodipodi:ry="18.182745"
         sodipodi:rx="19.192898"
         sodipodi:cy="476.57523"
         sodipodi:cx="377.79706"
         id="path4914"
         style="fill:url(#radialGradient3058);fill-opacity:1;fill-rule:nonzero;stroke:#fff744;stroke-width:40;stroke-linecap:square;stroke-linejoin:round;stroke-miterlimit:10;stroke-opacity:1;stroke-dasharray:none;stroke-dashoffset:20;marker:none;visibility:visible;display:inline;overflow:visible;filter:url(#filter5072);enable-background:accumulate"
         sodipodi:type="arc" />
      <path
         sodipodi:nodetypes="cssssssssssssssssssssssscccssssssssssssssssssssssssscccssssssssssssssssssssscccsssssssssscccsccscssssssssscccsssssssssssssscccsccscsssccscssc"
         id="path2416"
         d="m 12.751555,37.207125 c -0.01386,-0.03613 -0.0078,-0.0844 0.01351,-0.10726 0.07803,-0.08376 0.153101,-1.179455 0.121835,-1.778259 -0.03577,-0.685095 -0.133838,-1.432529 -0.238108,-1.814794 -0.09604,-0.352081 -0.254899,-0.923369 -0.338036,-1.21561 -0.03729,-0.131096 -0.09121,-0.340252 -0.11981,-0.464793 -0.0454,-0.197693 -0.06814,-0.227261 -0.179147,-0.232929 -0.112331,-0.0057 -0.114648,-0.0089 -0.01989,-0.02715 0.06048,-0.01165 0.107259,-0.05559 0.107259,-0.100768 0,-0.04924 0.04134,-0.08279 0.10726,-0.08705 0.05899,-0.0038 0.337313,-0.02311 0.61849,-0.04287 0.442036,-0.03106 0.515112,-0.0258 0.539914,0.03883 0.02514,0.06551 0.197949,0.07464 1.398503,0.0739 1.488989,-9.25e-4 2.044363,0.0196 3.533065,0.130573 1.046578,0.07801 1.44725,0.150251 1.853012,0.334078 0.140819,0.0638 0.264167,0.115993 0.274108,0.115993 0.04098,0 0.01,-0.177923 -0.143239,-0.8228 -0.08872,-0.37336 -0.187049,-0.818274 -0.218502,-0.988698 -0.03145,-0.170429 -0.08757,-0.453539 -0.124709,-0.629139 -0.08725,-0.41256 -0.08533,-0.676075 0.0072,-0.98773 0.04111,-0.138441 0.06487,-0.26159 0.05279,-0.273666 -0.01208,-0.01208 -0.179789,0.08393 -0.372694,0.213343 -2.020683,1.35562 -4.449982,2.259385 -6.929336,2.577899 -1.914415,0.24594 -3.8037977,0.337719 -5.0769631,0.24662 C 7.1854815,31.333891 6.5419229,31.288399 6.1879656,31.263752 5.1864335,31.194014 4.01854,31.072137 3.6824489,31.002285 l -0.1458013,-0.0303 -0.108606,0.58491 c -0.059733,0.3217 -0.1493362,0.688243 -0.1991176,0.81454 -0.1025398,0.260145 -0.1046969,0.25869 0.275201,0.185634 0.1258309,-0.0242 0.4325772,-0.06907 0.6816582,-0.09971 0.2490811,-0.03064 0.5708604,-0.07446 0.7150652,-0.09737 0.1442048,-0.02291 0.3694503,-0.05297 0.5005456,-0.06679 0.1310953,-0.01383 0.3777927,-0.04531 0.5482166,-0.06997 0.289968,-0.04195 0.5698225,-0.07609 1.5731433,-0.191895 0.222862,-0.02572 0.673353,-0.07831 1.0010912,-0.116849 0.3277382,-0.03854 0.8211332,-0.09243 1.0964333,-0.119745 0.2753001,-0.02732 0.7378986,-0.07393 1.0279966,-0.103578 0.290097,-0.02965 0.568973,-0.04472 0.619723,-0.03349 0.05075,0.01123 -0.06862,0.03583 -0.26526,0.05465 -0.335725,0.03215 -0.535581,0.05325 -1.6684857,0.176198 -0.249081,0.02703 -0.6137642,0.06966 -0.8104072,0.09472 -0.1966429,0.02507 -0.4540663,0.05701 -0.5720521,0.07098 -0.1179857,0.01397 -0.461217,0.05798 -0.7627361,0.09779 -0.3015192,0.03981 -0.7091063,0.09164 -0.9057492,0.115182 -0.1966429,0.02354 -0.5935041,0.07757 -0.8819137,0.12007 -0.2884096,0.0425 -0.6638188,0.09676 -0.8342427,0.120578 -0.1704239,0.02382 -0.5225119,0.07599 -0.7824181,0.115939 -0.2599061,0.03995 -0.5464399,0.07263 -0.6367412,0.07263 -0.1376891,0 -0.1586339,-0.01346 -0.1297872,-0.08342 0.2061924,-0.50008 0.4352054,-1.629077 0.3360997,-1.656918 -0.027739,-0.0078 -0.1523317,-0.0405 -0.2768723,-0.07269 -0.1245405,-0.03219 -0.2264373,-0.07719 -0.2264373,-0.1 0,-0.02281 0.1268817,-0.04148 0.2819588,-0.04148 l 0.2819588,0 0.034464,-0.367785 c 0.097805,-1.043721 -0.1467647,-2.889943 -0.4239221,-3.200131 -0.085426,-0.09561 -0.1213694,-0.270082 -0.055282,-0.268352 0.2865328,0.0075 2.1626988,0.350513 3.5276547,0.644948 1.5985448,0.344824 3.4362842,0.456766 5.4344959,0.331031 1.502814,-0.09456 2.85836,-0.218554 3.622997,-0.331397 0.157314,-0.02322 0.468367,-0.06711 0.691229,-0.09755 0.657542,-0.0898 1.998218,-0.323466 2.455057,-0.427896 0.104876,-0.02397 0.351574,-0.07875 0.548217,-0.121713 1.1116,-0.242894 1.402876,-0.329374 1.552831,-0.461036 0.127355,-0.11182 0.160797,-0.122504 0.207455,-0.06629 0.04397,0.05297 0.02018,0.122431 -0.113457,0.331341 -0.19246,0.300863 -0.522974,1.02719 -0.484795,1.065369 0.01394,0.01394 0.117504,-0.04557 0.230145,-0.132251 0.338935,-0.260816 0.348164,-0.264915 0.235868,-0.104766 -0.05952,0.08488 -0.222879,0.243886 -0.363019,0.353337 -0.236497,0.184706 -0.261012,0.223272 -0.341289,0.536894 -0.158675,0.619902 -0.12887,0.888264 0.325085,2.927042 0.133051,0.597553 0.178927,0.888447 0.145401,0.921973 -0.03353,0.03353 -0.159676,-0.0041 -0.399824,-0.119204 -0.516888,-0.247783 -0.719197,-0.301959 -1.351934,-0.362035 -0.314628,-0.02987 -0.786571,-0.07498 -1.048762,-0.100236 -0.607461,-0.05852 -1.983824,-0.12788 -3.379148,-0.170299 l -1.090939,-0.03317 0.03365,0.281558 c 0.05189,0.434208 0.155761,0.799294 0.416278,1.463165 0.282202,0.719132 0.926078,2.009413 1.133301,2.271054 0.08018,0.101231 0.145776,0.219324 0.145776,0.262428 0,0.04311 -0.23827,0.335701 -0.529488,0.650215 -0.403864,0.436169 -0.544016,0.559787 -0.59072,0.521026 -0.04936,-0.04096 -0.04375,-0.09683 0.02894,-0.288136 0.116131,-0.305632 0.11686,-0.763455 0.0017,-1.098892 -0.288955,-0.842028 -0.641944,-1.699701 -0.739825,-1.797582 -0.06779,-0.06779 -0.06995,-0.05737 -0.02346,0.112893 0.02817,0.103164 0.0686,0.209022 0.08984,0.235241 0.09091,0.112189 0.376377,1.577733 0.413271,2.121654 l 0.0275,0.405497 -0.472242,0.321486 c -0.259732,0.176817 -0.485519,0.321485 -0.501748,0.321485 -0.01623,0 -0.04085,-0.02956 -0.05472,-0.0657 l 6.1e-5,8e-6 z m -1.915669,-6.369966 c 0.524382,-0.02483 1.002782,-0.05922 1.06311,-0.0764 0.108155,-0.03082 0.107649,-0.03249 -0.03619,-0.119965 -0.182708,-0.111111 -0.335276,-0.356247 -0.33551,-0.539073 -9.5e-5,-0.0768 -0.02477,-0.207632 -0.05482,-0.290747 -0.07604,-0.210276 -0.02176,-0.374821 0.204647,-0.620448 0.373836,-0.405563 0.985704,-0.414948 1.387308,-0.02128 0.37771,0.37025 0.396829,0.929838 0.04436,1.298538 -0.202084,0.211392 -0.177257,0.218647 0.379655,0.110934 0.192893,-0.03731 0.597412,-0.115542 0.898931,-0.173855 1.582661,-0.306083 3.563999,-1.095068 5.214212,-2.076342 0.441347,-0.262441 0.476684,-0.295022 0.562243,-0.518396 0.09492,-0.247828 0.168056,-0.413784 0.353267,-0.801669 l 0.109639,-0.229616 -0.15216,0.03101 c -0.08369,0.01705 -0.377406,0.08395 -0.652706,0.148668 -0.745419,0.175221 -0.843516,0.196254 -1.310953,0.281092 -0.235971,0.04283 -0.504121,0.09586 -0.595887,0.117843 -0.17048,0.04084 -0.50895,0.09776 -1.144105,0.192393 -0.196643,0.0293 -0.5506,0.08258 -0.786571,0.118418 -0.71181,0.108087 -1.326197,0.172716 -3.170123,0.333474 -0.540442,0.04712 -1.421842,0.07351 -2.502728,0.07495 -1.6244564,0.0022 -2.1827945,-0.03438 -3.2892997,-0.215249 -0.078657,-0.01286 -0.2931767,-0.04746 -0.4767101,-0.07689 C 6.0756302,27.709202 4.590274,27.412859 4.3049578,27.337547 4.1738625,27.302937 3.937891,27.248007 3.7805766,27.21546 3.6232623,27.18292 3.4323566,27.13715 3.3563418,27.113763 c -0.209157,-0.06436 -0.2275485,-0.05384 -0.1548182,0.08857 0.093204,0.182494 0.2934484,1.044432 0.3661758,1.576184 0.040713,0.297674 0.05096,0.692039 0.031095,1.196645 l -0.029631,0.752647 1.440495,0.03621 c 0.7922721,0.01992 1.7837262,0.05116 2.2032311,0.06944 1.1869657,0.05171 2.5794554,0.05313 3.6229965,0.0037 z m 1.947206,-0.502764 c 0.157077,-0.152551 0.174009,-0.193468 0.172642,-0.417121 -0.0016,-0.266247 -0.06064,-0.378675 -0.271848,-0.517947 -0.289134,-0.190655 -0.775163,-0.04639 -0.989938,0.293837 -0.139529,0.221026 -0.14227,0.246035 -0.04713,0.430007 0.121798,0.235531 0.386237,0.380368 0.694465,0.380368 0.242071,0 0.284291,-0.01616 0.441809,-0.169144 z m -1.244047,1.280431 c 0.04588,-0.01199 0.120957,-0.01199 0.16684,0 0.04588,0.01199 0.0083,0.0218 -0.08342,0.0218 -0.09177,0 -0.129307,-0.0098 -0.08342,-0.0218 z"
         style="fill:#000000" />
      <path
         transform="matrix(0.04767101,0,0,0.04767101,-14.462409,14.646961)"
         sodipodi:nodetypes="cccc"
         id="path5078"
         d="m 562.12509,356.51479 13.13199,52.02286 c 0,0 4.29314,21.2132 3.53553,31.31473 l -2.52538,28.28427"
         style="fill:none;stroke:#ffffff;stroke-width:2;stroke-linecap:butt;stroke-linejoin:miter;stroke-miterlimit:4;stroke-opacity:1;stroke-dasharray:none;filter:url(#filter5098)" />
      <path
         transform="matrix(0.04767101,0,0,0.04767101,-14.462409,14.646961)"
         sodipodi:nodetypes="cccc"
         id="path5084"
         d="m 586.87383,400.2039 10.85914,27.02158 c 5.47604,11.36545 5.12312,17.68195 5.3033,21.46573 0.25254,5.30331 -1.01015,9.09138 -1.01015,9.09138"
         style="fill:none;stroke:#ffffff;stroke-width:2;stroke-linecap:butt;stroke-linejoin:miter;stroke-miterlimit:4;stroke-opacity:1;stroke-dasharray:none;filter:url(#filter5118)" />
      <path
         transform="matrix(0.04767101,0,0,0.04767101,-14.462409,14.646961)"
         sodipodi:nodetypes="ccc"
         id="path5150"
         d="m 375.06027,339.42102 c 4.54569,0.75762 91.54555,4.64786 105.6784,4.07651 15.46111,0.67433 43.59553,-1.11475 65.56635,-2.12491"
         style="fill:none;stroke:#ffffff;stroke-width:1px;stroke-linecap:butt;stroke-linejoin:miter;stroke-opacity:1;filter:url(#filter5170)" />
      <path
         transform="matrix(0.04767101,0,0,0.04767101,-14.462409,14.646961)"
         sodipodi:nodetypes="cccc"
         id="path5152"
         d="m 580.39947,337.69659 c 0,0 28.11573,-4.72274 45,-9.28572 15.9099,-4.29315 42.17393,-15.83323 47.58986,-18.11055 8.46003,-3.53553 43.05776,-21.46575 49.49748,-26.51651"
         style="fill:none;stroke:#ffffff;stroke-width:1px;stroke-linecap:butt;stroke-linejoin:miter;stroke-opacity:1;filter:url(#filter5174)" />
      <path
         transform="matrix(0.04767101,0,0,0.04767101,-14.462409,14.646961)"
         sodipodi:nodetypes="cccc"
         id="path5210"
         d="m 544.32804,313.94659 c 1.16071,-4.91072 8.125,-13.75 18.125,-14.28571 9.80745,-0.5314 19.34973,8.69022 19.64286,16.07142 0.98214,7.67857 -3.39286,14.375 -7.5,18.21428"
         style="fill:none;stroke:#ffffff;stroke-width:1px;stroke-linecap:butt;stroke-linejoin:miter;stroke-opacity:1;filter:url(#filter5220)" />
    </g>
  </g>
  <g
     inkscape:groupmode="layer"
     id="layer2"
     inkscape:label="dark blue" />
</svg>
