<?xml version="1.0" encoding="UTF-8" standalone="no"?>
<!-- Created with Inkscape (http://www.inkscape.org/) -->
<svg
   xmlns:dc="http://purl.org/dc/elements/1.1/"
   xmlns:cc="http://creativecommons.org/ns#"
   xmlns:rdf="http://www.w3.org/1999/02/22-rdf-syntax-ns#"
   xmlns:svg="http://www.w3.org/2000/svg"
   xmlns="http://www.w3.org/2000/svg"
   xmlns:xlink="http://www.w3.org/1999/xlink"
   xmlns:sodipodi="http://sodipodi.sourceforge.net/DTD/sodipodi-0.dtd"
   xmlns:inkscape="http://www.inkscape.org/namespaces/inkscape"
   width="22"
   height="22"
   id="svg2"
   sodipodi:version="0.32"
   inkscape:version="0.46"
   version="1.0"
   sodipodi:docname="preview_control_point_tool.svg"
   inkscape:output_extension="org.inkscape.output.svg.inkscape"
   inkscape:export-filename="/home/james/programs/graphics/hugin/src/hugin1/hugin/xrc/data/preview_control_point_tool.png"
   inkscape:export-xdpi="90"
   inkscape:export-ydpi="90">
  <defs
     id="defs4">
    <linearGradient
       id="linearGradient5047">
      <stop
         style="stop-color:#800000;stop-opacity:1;"
         offset="0"
         id="stop5049" />
      <stop
         style="stop-color:#ff0000;stop-opacity:1;"
         offset="1"
         id="stop5051" />
    </linearGradient>
    <marker
       inkscape:stockid="Arrow2Send"
       orient="auto"
       refY="0.0"
       refX="0.0"
       id="Arrow2Send"
       style="overflow:visible;">
      <path
         id="path3652"
         style="font-size:12.0;fill-rule:evenodd;stroke-width:0.62500000;stroke-linejoin:round;"
         d="M 8.7185878,4.0337352 L -2.2072895,0.016013256 L 8.7185884,-4.0017078 C 6.9730900,-1.6296469 6.9831476,1.6157441 8.7185878,4.0337352 z "
         transform="scale(0.3) rotate(180) translate(-2.3,0)" />
    </marker>
    <marker
       inkscape:stockid="Arrow2Mend"
       orient="auto"
       refY="0.0"
       refX="0.0"
       id="Arrow2Mend"
       style="overflow:visible;">
      <path
         id="path3646"
         style="font-size:12.0;fill-rule:evenodd;stroke-width:0.62500000;stroke-linejoin:round;"
         d="M 8.7185878,4.0337352 L -2.2072895,0.016013256 L 8.7185884,-4.0017078 C 6.9730900,-1.6296469 6.9831476,1.6157441 8.7185878,4.0337352 z "
         transform="scale(0.6) rotate(180) translate(0,0)" />
    </marker>
    <linearGradient
       id="linearGradient3169">
      <stop
         style="stop-color:#000000;stop-opacity:0;"
         offset="0"
         id="stop3171" />
      <stop
         id="stop3179"
         offset="0.18367347"
         style="stop-color:#000000;stop-opacity:0;" />
      <stop
         style="stop-color:#000000;stop-opacity:0.78504676;"
         offset="1"
         id="stop3173" />
    </linearGradient>
    <linearGradient
       id="linearGradient3159">
      <stop
         style="stop-color:#295c96;stop-opacity:1;"
         offset="0"
         id="stop3161" />
      <stop
         style="stop-color:#75cbd9;stop-opacity:1;"
         offset="1"
         id="stop3163" />
    </linearGradient>
    <inkscape:perspective
       sodipodi:type="inkscape:persp3d"
       inkscape:vp_x="0 : 526.18109 : 1"
       inkscape:vp_y="0 : 1000 : 0"
       inkscape:vp_z="744.09448 : 526.18109 : 1"
       inkscape:persp3d-origin="372.04724 : 350.78739 : 1"
       id="perspective10" />
    <radialGradient
       inkscape:collect="always"
       xlink:href="#linearGradient5047"
       id="radialGradient5053"
       cx="6"
       cy="20"
       fx="6"
       fy="20"
       r="6"
       gradientUnits="userSpaceOnUse"
       gradientTransform="matrix(-1.1466666e-7,-0.6666666,1,-7.2007469e-7,-13.999999,24.000014)" />
    <filter
       inkscape:collect="always"
       id="filter5401"
       x="-0.10908"
       width="1.21816"
       y="-0.10908"
       height="1.21816">
      <feGaussianBlur
         inkscape:collect="always"
         stdDeviation="0.49995"
         id="feGaussianBlur5403" />
    </filter>
  </defs>
  <sodipodi:namedview
     id="base"
     pagecolor="#ffffff"
     bordercolor="#666666"
     borderopacity="1.0"
     gridtolerance="10000"
     guidetolerance="10"
     objecttolerance="10"
     inkscape:pageopacity="0.0"
     inkscape:pageshadow="2"
     inkscape:zoom="1"
     inkscape:cx="-140.66795"
     inkscape:cy="19.560211"
     inkscape:document-units="px"
     inkscape:current-layer="layer1"
     showgrid="false"
     inkscape:window-width="1247"
     inkscape:window-height="728"
     inkscape:window-x="1280"
     inkscape:window-y="47"
     showguides="true"
     inkscape:guide-bbox="true">
    <inkscape:grid
       type="xygrid"
       id="grid2383"
       visible="true"
       enabled="true"
       empspacing="2"
       spacingx="0.5px"
       spacingy="0.5px" />
  </sodipodi:namedview>
  <metadata
     id="metadata7">
    <rdf:RDF>
      <cc:Work
         rdf:about="">
        <dc:format>image/svg+xml</dc:format>
        <dc:type
           rdf:resource="http://purl.org/dc/dcmitype/StillImage" />
        <dc:rights>
          <cc:Agent>
            <dc:title>Copyright (C) 2009  James Legg

    This program is free software: you can redistribute it and/or modify
    it under the terms of the GNU General Public License as published by
    the Free Software Foundation, either version 2 of the License, or
    (at your option) any later version.

    This program is distributed in the hope that it will be useful,
    but WITHOUT ANY WARRANTY; without even the implied warranty of
    MERCHANTABILITY or FITNESS FOR A PARTICULAR PURPOSE.  See the
    GNU General Public License for more details.

    You should have received a copy of the GNU General Public License
    along with this program.  If not, see &lt;http://www.gnu.org/licenses/&gt;.</dc:title>
          </cc:Agent>
        </dc:rights>
        <cc:license
           rdf:resource="http://www.gnu.org/licenses/old-licenses/gpl-2.0.html" />
      </cc:Work>
    </rdf:RDF>
  </metadata>
  <g
     inkscape:label="Layer 1"
     inkscape:groupmode="layer"
     id="layer1">
    <path
       sodipodi:nodetypes="ccccccc"
       id="rect2385"
       d="M 18.000002,9.9999954 L 12,10 L 12,6 L -3.5527137e-15,6 L 1.8e-06,18.999995 L 18.000002,18.999995 L 18.000002,9.9999954 z"
       style="fill:#80b3ff;fill-opacity:1;fill-rule:evenodd;stroke:none;stroke-width:1;stroke-linecap:butt;stroke-linejoin:miter;marker:none;marker-start:none;marker-mid:none;marker-end:none;stroke-miterlimit:1;stroke-dashoffset:0;stroke-opacity:1;visibility:visible;display:inline;overflow:visible" />
    <path
       style="fill:#165016;fill-opacity:1;fill-rule:evenodd;stroke:none;stroke-width:1px;stroke-linecap:butt;stroke-linejoin:miter;stroke-opacity:1"
       d="M 18.000002,16.999995 C 16.850896,18.258276 13.178463,17.812224 10.000003,16.999991 L 10.000005,13.999987 C 6.2208624,13.253983 1.3339371,12.517843 3.5527137e-15,13.999995 L 2.1e-06,18.999991 L 8,19 L 8,22 L 18,21.999996 L 18.000002,16.999995 z"
       id="path2387"
       sodipodi:nodetypes="ccccccccc" />
    <path
       id="path5023"
       d="M 7.5,17 L 7.5,14"
       style="fill:none;fill-rule:evenodd;stroke:#ff6600;stroke-width:1px;stroke-linecap:butt;stroke-linejoin:miter;stroke-opacity:1" />
    <path
       style="fill:none;fill-rule:evenodd;stroke:#ff6600;stroke-width:1px;stroke-linecap:butt;stroke-linejoin:miter;stroke-opacity:1"
       d="M 10.5,21 L 10.5,18"
       id="path5025" />
    <path
       id="path5027"
       d="M 16.500004,10.999991 L 16.500004,13.999992"
       style="fill:none;fill-rule:evenodd;stroke:#ff6600;stroke-width:1px;stroke-linecap:butt;stroke-linejoin:miter;stroke-opacity:1" />
    <path
       style="fill:none;fill-rule:evenodd;stroke:#ff6600;stroke-width:1px;stroke-linecap:butt;stroke-linejoin:miter;stroke-opacity:1"
       d="M 6.5000043,6.9999912 L 6.5000043,9.9999916"
       id="path5029" />
    <path
       sodipodi:nodetypes="ccccccccccccc"
       id="path5323"
       d="M 13.49975,1.50025 L 11.49975,3.50025 L 13.99975,6.00025 L 11.49975,8.50025 L 13.49975,10.50025 L 15.99975,8.00025 L 18.49975,10.50025 L 20.49975,8.50025 L 17.99975,6.00025 L 20.49975,3.50025 L 18.49975,1.50025 L 15.99975,4.00025 L 13.49975,1.50025 z"
       style="fill:#000000;fill-opacity:1;fill-rule:evenodd;stroke:#000000;stroke-width:1;stroke-linecap:butt;stroke-linejoin:miter;stroke-miterlimit:4;stroke-dasharray:none;stroke-opacity:1;filter:url(#filter5401)" />
    <path
       style="fill:#ff0000;fill-opacity:1;fill-rule:evenodd;stroke:none;stroke-width:1px;stroke-linecap:butt;stroke-linejoin:miter;stroke-opacity:1"
       d="M 12.99975,1.50025 L 10.99975,3.50025 L 13.49975,6.00025 L 10.99975,8.50025 L 12.99975,10.50025 L 15.49975,8.00025 L 17.99975,10.50025 L 19.99975,8.50025 L 17.49975,6.00025 L 19.99975,3.50025 L 17.99975,1.50025 L 15.49975,4.00025 L 12.99975,1.50025 z"
       id="path3383"
       sodipodi:nodetypes="ccccccccccccc" />
    <path
       style="fill:#550000;fill-opacity:1;fill-rule:evenodd;stroke:none;stroke-width:1px;stroke-linecap:butt;stroke-linejoin:miter;stroke-opacity:1"
       d="M 13.49975,0.7815 L 10.781,3.50025 L 12.18725,3.50025 L 13.49975,2.18775 L 15.99975,4.719 L 18.49975,2.18775 L 19.81225,3.50025 L 21.2185,3.50025 L 20.8435,3.1565 L 18.8435,1.1565 L 18.49975,0.7815 L 18.156,1.1565 L 15.99975,3.31275 L 13.49975,0.7815 z M 13.31225,6.00025 L 10.781,8.50025 L 12.18725,8.50025 L 14.7185,6.00025 L 13.99975,6.00025 L 13.31225,6.00025 z M 17.281,6.00025 L 19.81225,8.50025 L 21.2185,8.50025 L 20.8435,8.1565 L 18.68725,6.00025 L 17.281,6.00025 z"
       id="path5222" />
    <path
       id="path5265"
       d="M 13.49975,11.219 L 10.781,8.50025 L 12.18725,8.50025 L 13.49975,9.81275 L 15.99975,7.2815 L 18.49975,9.81275 L 19.81225,8.50025 L 21.2185,8.50025 L 20.8435,8.844 L 18.8435,10.844 L 18.49975,11.219 L 18.156,10.844 L 15.99975,8.68775 L 13.49975,11.219 z M 13.31225,6.00025 L 10.781,3.50025 L 12.18725,3.50025 L 14.7185,6.00025 L 13.99975,6.00025 L 13.31225,6.00025 z M 17.281,6.00025 L 19.81225,3.50025 L 21.2185,3.50025 L 20.8435,3.844 L 18.68725,6.00025 L 17.281,6.00025 z"
       style="fill:#aa0000;fill-opacity:1;fill-rule:evenodd;stroke:none;stroke-width:1px;stroke-linecap:butt;stroke-linejoin:miter;stroke-opacity:1" />
  </g>
</svg>
