/* XPM */
static char *control_[] = {
/* columns rows colors chars-per-pixel */
"27 26 167 2",
"   c #000000",
/*"   c opaque",*/
".  c #000008",
"X  c #000800",
"o  c #000018",
"O  c #000020",
"+  c #000029",
"@  c #000031",
"#  c #000831",
"$  c #000041",
"%  c #08004a",
"&  c #00184a",
"*  c #001052",
"=  c #001062",
"-  c #00106a",
";  c #001073",
":  c #001873",
">  c #181062",
",  c #18395a",
"<  c #002073",
"1  c #102062",
"2  c #182062",
"3  c #10207b",
"4  c #102973",
"5  c #182073",
"6  c #20186a",
"7  c #202052",
"8  c #292952",
"9  c #202962",
"0  c #292962",
"q  c #202973",
"w  c #29297b",
"e  c #203173",
"r  c #20317b",
"t  c #31396a",
"y  c #393962",
"u  c #31397b",
"i  c #39397b",
"p  c #104139",
"a  c #39416a",
"s  c #31417b",
"d  c #39417b",
"f  c #41396a",
"g  c #4a4a6a",
"h  c #414a73",
"j  c #4a4a73",
"k  c #41527b",
"l  c #52417b",
"z  c #52527b",
"x  c #5a5a7b",
"c  c #625a7b",
"v  c #735a7b",
"b  c #62627b",
"n  c #002083",
"m  c #08208b",
"M  c #20318b",
"N  c #29398b",
"B  c #203994",
"V  c #313983",
"C  c #294194",
"Z  c #294a94",
"A  c #205a94",
"S  c #394183",
"D  c #394a83",
"F  c #394a9c",
"G  c #39529c",
"H  c #413983",
"J  c #414a83",
"K  c #4a4a83",
"L  c #4a4a8b",
"P  c #414a94",
"I  c #4a528b",
"U  c #415294",
"Y  c #4a529c",
"T  c #4a5a9c",
"R  c #525294",
"E  c #525a94",
"W  c #525a9c",
"Q  c #5a5a94",
"!  c #4a629c",
"~  c #5a6283",
"^  c #52629c",
"/  c #5a629c",
"(  c #625a94",
")  c #62628b",
"_  c #626294",
"`  c #62629c",
"'  c #626a9c",
"]  c #6a6a94",
"[  c #627394",
"{  c #7b6a8b",
"}  c #736a94",
"|  c #737383",
" . c #737394",
".. c #73739c",
"X. c #737b94",
"o. c #7b739c",
"O. c #7b7b9c",
"+. c #626aa4",
"@. c #6a6aa4",
"#. c #6273a4",
"$. c #627ba4",
"%. c #6a73a4",
"&. c #7373a4",
"*. c #737ba4",
"=. c #7b7ba4",
"-. c #7b7bac",
";. c #73839c",
":. c #837ba4",
">. c #838b9c",
",. c #8b839c",
"<. c #94949c",
"1. c #8383a4",
"2. c #8383ac",
"3. c #838bac",
"4. c #8b83ac",
"5. c #8b8ba4",
"6. c #8b8bac",
"7. c #8383b4",
"8. c #8b8bbd",
"9. c #8b94ac",
"0. c #8b9cb4",
"q. c #9483ac",
"w. c #948bac",
"e. c #948bb4",
"r. c #9494b4",
"t. c #9494bd",
"y. c #9c94bd",
"u. c #9c9cb4",
"i. c #9c9cbd",
"p. c #9ca4b4",
"a. c #a49cac",
"s. c #a494b4",
"d. c #a49cbd",
"f. c #a4a4ac",
"g. c #a4a4bd",
"h. c #a4acbd",
"j. c #acacb4",
"k. c #a49cc5",
"l. c #aca4c5",
"z. c #acacc5",
"x. c #acaccd",
"c. c #a4b4c5",
"v. c #b4acc5",
"b. c #b4accd",
"n. c #b4b4c5",
"m. c #b4b4cd",
"M. c #b4bdcd",
"N. c #bdb4cd",
"B. c #bdbdcd",
"V. c #bdb4d5",
"C. c #bdbdd5",
"Z. c #bdbdde",
"A. c #c5bdde",
"S. c #c5c5cd",
"D. c #cdc5cd",
"F. c #c5c5d5",
"G. c #c5c5de",
"H. c #cdcdde",
"J. c #d5cdde",
"K. c #d5d5de",
"L. c #cdcde6",
"P. c #d5cde6",
"I. c #d5d5e6",
"U. c #ded5e6",
"Y. c #dedee6",
"T. c #eeeef6",
"R. c white",
/* pixels */
"R.R.R.R.R.R.R.R.R.R.R.R.R.R.R.R.R.R.R.R.R.R.R.R.R.R.R.",
"R.                                                  R.",
"R.                  = t S } Q                       R.",
"R.              $ e ] %.N L :.-.g.>.                R.",
"R.            # 4 2 X.i.g.=.n.0.z.&.`               R.",
"R.          * e J 4 < D k s s i.M B @.d.            R.",
"R.        @ t d d O...i.g.I 4 g.D V B T !           R.",
"R.        = h u 1 ~ q u.k 4 , 6.1.E *.U G +.        R.",
"R.      + 4 9 O.l z ' 9 K.m.H.2.I.1.S C.T #.X       R.",
"R.      $ 0 b h O.O.r.v.c H.z.C.Y.1.^ M W W q.      R.",
"R.      7 j z d q O.R ;.v.| T.:.J.C.u.O.N 3.8.      R.",
"R.      - 1 q z S r ^ : u { j.F.F.U.u.m n P $.      R.",
"R.    + 8 - > w.I ; 6 5 q D...G.c.L.M W m A.T O     R.",
"R.    O f j ) 1 Z 6.%.} p.h.x a._ H.M 7.B C +.m     R.",
"R.    o y ] > u :.} u.l.v g i r.T.Z.i.^ m m h.      R.",
"R.    . & ) <.k r.6.n.6.c u M.Y.L.Z.+.7.m m -.      R.",
"R.      7 6 o.w.i.g.n.H.q 9.,.k.} [ y.w Y / t.      R.",
"R.      7 y 4 5.6.g.N.m.M.f.n.l.n.P.( W H Z y.      R.",
"R.      + z ]  .5.3 ;.q.g.N.l.J.P.p.N.$.A.G         R.",
"R.        & K 5.u.f.n.F.L.G.G.D.v.J.p.P F -.        R.",
"R.        o a O.i.v.C.H.H.L.I.G.m.m.b.@.x.          R.",
"R.          # ) 6.f.z.B.F.G.C.v.S.s.l.t.            R.",
"R.            % ) 1.u.v.m.V.x.e.y.z.A               R.",
"R.                l  .:.r.l.3.4.p                   R.",
"R.                                                  R.",
"R.R.R.R.R.R.R.R.R.R.R.R.R.R.R.R.R.R.R.R.R.R.R.R.R.R.R."
};
