<?xml version="1.0" encoding="UTF-8" standalone="no"?>
<!-- Created with Inkscape (http://www.inkscape.org/) -->

<svg
   xmlns:dc="http://purl.org/dc/elements/1.1/"
   xmlns:cc="http://creativecommons.org/ns#"
   xmlns:rdf="http://www.w3.org/1999/02/22-rdf-syntax-ns#"
   xmlns:svg="http://www.w3.org/2000/svg"
   xmlns="http://www.w3.org/2000/svg"
   xmlns:xlink="http://www.w3.org/1999/xlink"
   xmlns:sodipodi="http://sodipodi.sourceforge.net/DTD/sodipodi-0.dtd"
   xmlns:inkscape="http://www.inkscape.org/namespaces/inkscape"
   width="48.000000px"
   height="48.000000px"
   id="svg14603"
   sodipodi:version="0.32"
   inkscape:version="0.48.0 r9654"
   sodipodi:docname="hugin-installer-icon.svg"
   inkscape:output_extension="org.inkscape.output.svg.inkscape"
   version="1.1"
   inkscape:export-filename="C:\Documents and Settings\Matthew\Desktop\hugin-installer-icon-48x48.png"
   inkscape:export-xdpi="90"
   inkscape:export-ydpi="90">
  <defs
     id="defs3">
    <linearGradient
       id="linearGradient7844"
       inkscape:collect="always">
      <stop
         id="stop7846"
         offset="0"
         style="stop-color: rgb(0, 0, 0); stop-opacity: 1;" />
      <stop
         id="stop7848"
         offset="1"
         style="stop-color: rgb(0, 0, 0); stop-opacity: 0;" />
    </linearGradient>
    <linearGradient
       id="linearGradient7834"
       inkscape:collect="always">
      <stop
         id="stop7836"
         offset="0"
         style="stop-color: rgb(255, 255, 255); stop-opacity: 1;" />
      <stop
         id="stop7838"
         offset="1"
         style="stop-color: rgb(255, 255, 255); stop-opacity: 0;" />
    </linearGradient>
    <linearGradient
       id="linearGradient7670">
      <stop
         id="stop7672"
         offset="0"
         style="stop-color: rgb(223, 223, 223); stop-opacity: 1;" />
      <stop
         id="stop7674"
         offset="1.0000000"
         style="stop-color: rgb(192, 192, 192); stop-opacity: 1;" />
    </linearGradient>
    <linearGradient
       gradientTransform="matrix(1.00851,0,0,1,-47.5958,-0.285714)"
       gradientUnits="userSpaceOnUse"
       y2="40.857143"
       x2="72.857140"
       y1="9.7142859"
       x1="64.571426"
       id="linearGradient7676"
       xlink:href="#linearGradient7670"
       inkscape:collect="always" />
    <linearGradient
       gradientTransform="translate(-2,0)"
       gradientUnits="userSpaceOnUse"
       y2="0.50379461"
       x2="19.323767"
       y1="11.312428"
       x1="19.362535"
       id="linearGradient7840"
       xlink:href="#linearGradient7834"
       inkscape:collect="always" />
    <linearGradient
       id="aigrd1"
       gradientUnits="userSpaceOnUse"
       x1="14.9966"
       y1="11.1885"
       x2="32.511"
       y2="34.3075">
      <stop
         offset="0"
         style="stop-color: rgb(235, 235, 235);"
         id="stop3034" />
      <stop
         offset="0.5"
         style="stop-color: rgb(255, 255, 255);"
         id="stop3036" />
      <stop
         offset="1"
         style="stop-color: rgb(235, 235, 235);"
         id="stop3038" />
    </linearGradient>
    <linearGradient
       id="aigrd2"
       gradientUnits="userSpaceOnUse"
       x1="12.2744"
       y1="32.4165"
       x2="35.3912"
       y2="14.2033">
      <stop
         offset="0"
         style="stop-color: rgb(251, 251, 251);"
         id="stop3043" />
      <stop
         offset="0.5"
         style="stop-color: rgb(182, 182, 182);"
         id="stop3045" />
      <stop
         offset="1"
         style="stop-color: rgb(228, 228, 228);"
         id="stop3047" />
    </linearGradient>
    <linearGradient
       id="linearGradient4236">
      <stop
         style="stop-color: rgb(255, 255, 255); stop-opacity: 0.326733;"
         offset="0.0000000"
         id="stop4238" />
      <stop
         style="stop-color: rgb(255, 255, 255); stop-opacity: 0.60396;"
         offset="1.0000000"
         id="stop4240" />
    </linearGradient>
    <linearGradient
       inkscape:collect="always"
       id="linearGradient6028">
      <stop
         style="stop-color: rgb(255, 255, 255); stop-opacity: 1;"
         offset="0"
         id="stop6030" />
      <stop
         style="stop-color: rgb(255, 255, 255); stop-opacity: 0;"
         offset="1"
         id="stop6032" />
    </linearGradient>
    <linearGradient
       inkscape:collect="always"
       id="linearGradient6036">
      <stop
         style="stop-color: rgb(255, 255, 255); stop-opacity: 1;"
         offset="0"
         id="stop6038" />
      <stop
         style="stop-color: rgb(255, 255, 255); stop-opacity: 0;"
         offset="1"
         id="stop6040" />
    </linearGradient>
    <linearGradient
       y2="14.2033"
       x2="35.3912"
       y1="32.4165"
       x1="12.2744"
       gradientUnits="userSpaceOnUse"
       id="linearGradient3394">
      <stop
         id="stop3396"
         style="stop-color: rgb(255, 243, 7); stop-opacity: 1;"
         offset="0.0000000" />
      <stop
         id="stop3398"
         style="stop-color: rgb(22, 110, 255); stop-opacity: 1;"
         offset="0.50000000" />
      <stop
         id="stop3400"
         style="stop-color: rgb(255, 255, 255); stop-opacity: 0;"
         offset="1.0000000" />
    </linearGradient>
    <radialGradient
       r="21.333334"
       fy="27.569166"
       fx="37.751469"
       cy="27.569166"
       cx="37.751469"
       gradientTransform="matrix(0.441746,0.498655,-0.407098,0.360624,32.0075,10.2131)"
       gradientUnits="userSpaceOnUse"
       id="radialGradient10580"
       xlink:href="#linearGradient3394"
       inkscape:collect="always" />
    <radialGradient
       inkscape:collect="always"
       xlink:href="#linearGradient7844"
       id="radialGradient3095"
       gradientUnits="userSpaceOnUse"
       gradientTransform="matrix(1,0,0,0.333333,0,25.0636)"
       cx="24.546707"
       cy="37.595428"
       fx="24.546707"
       fy="37.595428"
       r="22.728432" />
    <radialGradient
       inkscape:collect="always"
       xlink:href="#linearGradient7844"
       id="radialGradient3097"
       gradientUnits="userSpaceOnUse"
       gradientTransform="matrix(1,0,0,0.333333,0,25.0636)"
       cx="24.546707"
       cy="37.595428"
       fx="24.546707"
       fy="37.595428"
       r="22.728432" />
    <linearGradient
       inkscape:collect="always"
       xlink:href="#aigrd1"
       id="linearGradient3099"
       gradientUnits="userSpaceOnUse"
       gradientTransform="matrix(0.683145,0,0,0.683145,18.5558,18.1289)"
       x1="14.9966"
       y1="11.1885"
       x2="32.511"
       y2="34.3075" />
    <linearGradient
       inkscape:collect="always"
       xlink:href="#aigrd2"
       id="linearGradient3101"
       gradientUnits="userSpaceOnUse"
       gradientTransform="matrix(0.705308,0,0,0.705308,18.0239,17.6169)"
       x1="12.2744"
       y1="32.4165"
       x2="35.3912"
       y2="14.2033" />
    <linearGradient
       inkscape:collect="always"
       xlink:href="#linearGradient4236"
       id="linearGradient3103"
       gradientUnits="userSpaceOnUse"
       gradientTransform="matrix(0.717302,0,0,0.717302,17.736,18.0691)"
       x1="21.125000"
       y1="14.625000"
       x2="29.000000"
       y2="28.000000" />
    <linearGradient
       inkscape:collect="always"
       xlink:href="#linearGradient4236"
       id="linearGradient3105"
       gradientUnits="userSpaceOnUse"
       gradientTransform="matrix(0.717302,0,0,0.717302,17.736,18.0691)"
       x1="21.125000"
       y1="14.625000"
       x2="29.000000"
       y2="28.000000" />
    <linearGradient
       inkscape:collect="always"
       xlink:href="#linearGradient6036"
       id="linearGradient3107"
       gradientUnits="userSpaceOnUse"
       gradientTransform="matrix(0.573842,0,0,0.573842,20.9799,19.5635)"
       x1="10.501720"
       y1="3.6100161"
       x2="48.798885"
       y2="54.698483" />
    <linearGradient
       inkscape:collect="always"
       xlink:href="#linearGradient6028"
       id="linearGradient3109"
       gradientUnits="userSpaceOnUse"
       x1="28.702885"
       y1="31.494707"
       x2="17.742729"
       y2="18.366575" />
    <filter
       inkscape:collect="always"
       id="filter3884">
      <feGaussianBlur
         inkscape:collect="always"
         stdDeviation="1.0377025"
         id="feGaussianBlur3886" />
    </filter>
  </defs>
  <sodipodi:namedview
     fill="#a40000"
     id="base"
     pagecolor="#ffffff"
     bordercolor="#000000"
     borderopacity="1"
     inkscape:pageopacity="0.0"
     inkscape:pageshadow="2"
     inkscape:zoom="1"
     inkscape:cx="48.747088"
     inkscape:cy="30.99751"
     inkscape:current-layer="layer1"
     showgrid="false"
     inkscape:grid-bbox="true"
     inkscape:document-units="px"
     inkscape:showpageshadow="true"
     inkscape:window-width="1280"
     inkscape:window-height="744"
     inkscape:window-x="-4"
     inkscape:window-y="-4"
     inkscape:window-maximized="1" />
  <metadata
     id="metadata4">
    <rdf:RDF>
      <cc:Work
         rdf:about="">
        <dc:format>image/svg+xml</dc:format>
        <dc:type
           rdf:resource="http://purl.org/dc/dcmitype/StillImage" />
        <dc:title></dc:title>
        <dc:creator>
          <cc:Agent>
            <dc:title>jakub Steiner</dc:title>
          </cc:Agent>
        </dc:creator>
        <dc:source>http://jimmac.musichall.cz</dc:source>
        <cc:license
           rdf:resource="http://creativecommons.org/licenses/by-sa/2.0/" />
      </cc:Work>
      <cc:License
         rdf:about="http://creativecommons.org/licenses/by-sa/2.0/">
        <cc:permits
           rdf:resource="http://web.resource.org/cc/Reproduction" />
        <cc:permits
           rdf:resource="http://web.resource.org/cc/Distribution" />
        <cc:requires
           rdf:resource="http://web.resource.org/cc/Notice" />
        <cc:requires
           rdf:resource="http://web.resource.org/cc/Attribution" />
        <cc:permits
           rdf:resource="http://web.resource.org/cc/DerivativeWorks" />
        <cc:requires
           rdf:resource="http://web.resource.org/cc/ShareAlike" />
      </cc:License>
    </rdf:RDF>
  </metadata>
  <g
     id="layer1"
     inkscape:label="Layer 1"
     inkscape:groupmode="layer">
    <g
       id="g3052"
       transform="translate(1.4532978,2.5905717)">
      <path
         style="color:#000000;fill:#6b6c69;fill-opacity:1;fill-rule:evenodd;stroke:#606060;stroke-width:1;stroke-linecap:round;stroke-linejoin:round;stroke-miterlimit:4;stroke-opacity:1;stroke-dasharray:none;stroke-dashoffset:0;marker:none;visibility:visible;display:inline;overflow:visible"
         d="m 7.0663522,9.8326324 4.0765048,-4.2612038 23.571429,0 4.320377,4.3622191 L 7.0663522,9.8326324 z"
         id="path7822"
         sodipodi:nodetypes="ccccc"
         inkscape:connector-curvature="0" />
      <path
         sodipodi:type="arc"
         style="opacity:0.62566798;color:#000000;fill:url(#radialGradient3095);fill-opacity:1;fill-rule:evenodd;stroke:none;stroke-width:1;marker:none;visibility:visible;display:inline;overflow:visible"
         id="path7842"
         sodipodi:cx="24.546707"
         sodipodi:cy="37.595428"
         sodipodi:rx="22.728432"
         sodipodi:ry="7.5761442"
         d="m 47.275139,37.595428 c 0,4.184189 -10.175866,7.576145 -22.728432,7.576145 -12.552566,0 -22.7284315,-3.391956 -22.7284315,-7.576145 0,-4.184188 10.1758655,-7.576144 22.7284315,-7.576144 12.552566,0 22.728432,3.391956 22.728432,7.576144 z"
         transform="matrix(0.902222,0,0,0.902222,0.400123,3.676)" />
      <g
         id="g10554"
         transform="translate(-10.749997,-20.035714)">
        <path
           sodipodi:type="arc"
           style="opacity:0.62566798;color:#000000;fill:url(#radialGradient3097);fill-opacity:1;fill-rule:evenodd;stroke:none;stroke-width:1;marker:none;visibility:visible;display:inline;overflow:visible"
           id="path10170"
           sodipodi:cx="24.546707"
           sodipodi:cy="37.595428"
           sodipodi:rx="22.728432"
           sodipodi:ry="7.5761442"
           d="m 47.275139,37.595428 c 0,4.184189 -10.175866,7.576145 -22.728432,7.576145 -12.552566,0 -22.7284315,-3.391956 -22.7284315,-7.576145 0,-4.184188 10.1758655,-7.576144 22.7284315,-7.576144 12.552566,0 22.728432,3.391956 22.728432,7.576144 z"
           transform="matrix(0.55024,0,0,0.55024,19.8973,20.6232)" />
        <g
           transform="translate(-1.64286,-2.64286)"
           id="g10156">
          <path
             inkscape:connector-curvature="0"
             id="path3040"
             d="m 34.951289,21.954475 c -6.626509,0 -11.955042,5.328533 -11.955042,11.955042 0,6.626509 5.328533,11.955042 11.955042,11.955042 6.62651,0 11.955043,-5.328533 11.955043,-11.955042 0,-6.626509 -5.328533,-11.955042 -11.955043,-11.955042 l 0,0 z m 0,14.824252 c -1.571234,0 -2.86921,-1.297976 -2.86921,-2.86921 0,-1.571234 1.297976,-2.86921 2.86921,-2.86921 1.571234,0 2.86921,1.297976 2.86921,2.86921 0,1.571234 -1.297976,2.86921 -2.86921,2.86921 z"
             style="fill:url(#linearGradient3099);fill-rule:nonzero;stroke:none" />
          <path
             inkscape:connector-curvature="0"
             id="path3049"
             d="m 34.951305,21.566644 c -6.841486,0 -12.342888,5.501401 -12.342888,12.342888 0,6.841486 5.501402,12.342887 12.342888,12.342887 6.841487,0 12.342888,-5.501401 12.342888,-12.342887 0,-6.841487 -5.501401,-12.342888 -12.342888,-12.342888 l 0,0 z m 0,15.30518 c -1.622208,0 -2.962293,-1.340084 -2.962293,-2.962292 0,-1.622208 1.340085,-2.962293 2.962293,-2.962293 1.622208,0 2.962293,1.340085 2.962293,2.962293 0,1.622208 -1.340085,2.962292 -2.962293,2.962292 z"
             style="fill:url(#linearGradient3101);fill-rule:nonzero;stroke:#808080;stroke-miterlimit:4;stroke-opacity:1" />
          <path
             inkscape:connector-curvature="0"
             id="path3051"
             d="m 34.951289,28.111323 c -3.237952,0 -5.798194,2.635543 -5.798194,5.798194 0,3.237954 2.635543,5.798195 5.798194,5.798195 3.237953,0 5.798195,-2.635543 5.798195,-5.798195 0,-3.237953 -2.635544,-5.798194 -5.798195,-5.798194 l 0,0 z m 0,8.960846 c -1.731928,0 -3.162651,-1.430723 -3.162651,-3.162652 0,-1.731928 1.430723,-3.162651 3.162651,-3.162651 1.731928,0 3.162651,1.430723 3.162651,3.162651 0,1.731929 -1.430723,3.162652 -3.162651,3.162652 z"
             style="opacity:0.11000001;fill-rule:nonzero;stroke:none" />
          <path
             inkscape:connector-curvature="0"
             style="fill:url(#linearGradient3103);fill-opacity:1;fill-rule:nonzero;stroke:none"
             d="m 38.150519,22.816711 -2.063876,8.030725 c 0.645402,0.171876 1.161538,0.571243 1.512147,1.123894 l 7.111176,-4.332097 c -1.454832,-2.369804 -3.789773,-4.113338 -6.559447,-4.822522 z"
             id="path3916" />
          <path
             inkscape:connector-curvature="0"
             id="path4214"
             d="m 30.911911,44.678269 2.717288,-7.833804 c -0.629082,-0.224368 -1.110628,-0.664826 -1.414602,-1.244438 l -7.44334,3.73264 c 1.255025,2.481415 3.438679,4.411057 6.140654,5.345602 z"
             style="fill:url(#linearGradient3105);fill-opacity:1;fill-rule:nonzero;stroke:none" />
          <path
             inkscape:connector-curvature="0"
             style="opacity:0.54644799;fill:none;stroke:url(#linearGradient3107);stroke-miterlimit:4;stroke-opacity:1"
             d="m 34.951287,22.548803 c -6.29708,0 -11.360712,5.063632 -11.360712,11.360712 0,6.297081 5.063632,11.360712 11.360712,11.360712 6.297081,0 11.360712,-5.063631 11.360712,-11.360712 0,-6.29708 -5.063631,-11.360712 -11.360712,-11.360712 l 0,0 z"
             id="path5264"
             sodipodi:nodetypes="cccccc" />
          <path
             sodipodi:type="arc"
             style="opacity:0.67213099;color:#000000;fill:none;stroke:url(#linearGradient3109);stroke-width:1.62159002;stroke-linecap:butt;stroke-linejoin:miter;stroke-miterlimit:4;stroke-opacity:1;stroke-dashoffset:0;marker:none;visibility:visible;display:inline;overflow:visible"
             id="path6026"
             sodipodi:cx="24.306795"
             sodipodi:cy="24.930641"
             sodipodi:rx="6.0987959"
             sodipodi:ry="6.0987959"
             d="m 30.405591,24.930641 c 0,3.368272 -2.730524,6.098796 -6.098796,6.098796 -3.368272,0 -6.098796,-2.730524 -6.098796,-6.098796 0,-3.368272 2.730524,-6.098796 6.098796,-6.098796 3.368272,0 6.098796,2.730524 6.098796,6.098796 z"
             transform="matrix(0.573842,0,0,0.573842,21.0307,19.6142)" />
          <path
             inkscape:connector-curvature="0"
             style="opacity:0.114286;fill:url(#radialGradient10580);fill-opacity:1;fill-rule:nonzero;stroke:none"
             d="m 34.951289,23.065643 c -6.010605,0 -10.843874,4.833269 -10.843874,10.843874 0,6.010605 4.833269,10.843874 10.843874,10.843874 6.010606,0 10.843875,-4.833269 10.843875,-10.843874 0,-6.010605 -4.833269,-10.843874 -10.843875,-10.843874 l 0,0 z m 0,13.446404 c -1.425195,0 -2.60253,-1.177335 -2.60253,-2.60253 0,-1.425195 1.177335,-2.60253 2.60253,-2.60253 1.425195,0 2.60253,1.177335 2.60253,2.60253 0,1.425195 -1.177335,2.60253 -2.60253,2.60253 z"
             id="path3390" />
        </g>
      </g>
      <rect
         style="color:#000000;fill:url(#linearGradient7676);fill-opacity:1;fill-rule:evenodd;stroke:#606060;stroke-width:1;stroke-linecap:butt;stroke-linejoin:miter;stroke-miterlimit:4;stroke-opacity:1;stroke-dasharray:none;stroke-dashoffset:0;marker:none;visibility:visible;display:inline;overflow:visible"
         id="rect6910"
         width="32.848644"
         height="31.142857"
         x="6.5756874"
         y="9.4285717"
         rx="1.4285721"
         ry="1.4285715" />
      <path
         style="opacity:0.62566798;color:#000000;fill:none;stroke:url(#linearGradient7840);stroke-width:1;stroke-linecap:butt;stroke-linejoin:miter;stroke-miterlimit:4;stroke-opacity:1;stroke-dashoffset:0;marker:none;visibility:visible;display:inline;overflow:visible"
         d="m 34.285047,6.5274685 4.256999,4.2569985 0,28.431057 c 0,0.287766 -0.231668,0.519434 -0.519434,0.519434 l -30.0452141,0 c -0.2877664,0 -0.519434,-0.231668 -0.519434,-0.519434 l 0,-28.431057 4.0549681,-4.2569985"
         id="rect7829"
         sodipodi:nodetypes="cccccccc"
         inkscape:connector-curvature="0" />
      <g
         id="g3060"
         transform="matrix(0.25042956,0,0,0.25042956,6.6460929,9.2516853)"
         style="filter:url(#filter3884)">
        <path
           sodipodi:nodetypes="cccccc"
           inkscape:connector-curvature="0"
           d="m 9.8555132,24.577947 0,0 C 14.878892,38.571644 16.676123,63.094331 9.4904942,72.51711 41.737279,61.329385 85.712137,55.031885 117.41445,68.380228 111.84506,52.467698 110.03653,27.837507 120.09125,18.737643 89.586809,30.778871 37.079786,38.256757 9.8555132,24.577947 z"
           style="fill:#9bc158;fill-opacity:1;stroke:#000000;stroke-width:1.99656941;stroke-linecap:round;stroke-linejoin:round;stroke-opacity:1;stroke-miterlimit:4;stroke-dasharray:none"
           id="path3861" />
        <path
           inkscape:connector-curvature="0"
           id="path3861-4"
           d="m 119.91587,18.737643 c -30.504434,12.04122 -83.025721,19.52256 -110.2499944,5.84375 3.0642174,8.53603 4.8932214,20.97679 4.2500004,31.53125 27.214471,2.48141 54.613413,0.87056 77.625,-9.5625 7.85887,-3.56308 14.648404,-7.35228 21.656244,-12.4375 0.87191,-6.44657 2.97323,-11.98517 6.71875,-15.375 z"
           style="fill:#a8e1f8;fill-opacity:1;stroke:#000000;stroke-width:1.99656941;stroke-linecap:round;stroke-linejoin:round;stroke-opacity:1;stroke-miterlimit:4;stroke-dasharray:none" />
        <path
           transform="matrix(0.93323903,0,0,1.0835064,4.8575798,-3.5351597)"
           d="m 78.292582,44.545269 c 0,5.606919 -5.277178,10.152225 -11.786906,10.152225 -6.509728,0 -11.786905,-4.545306 -11.786905,-10.152225 0,-5.606919 5.277177,-10.152225 11.786905,-10.152225 6.509728,0 11.786906,4.545306 11.786906,10.152225 z"
           sodipodi:ry="10.152225"
           sodipodi:rx="11.786905"
           sodipodi:cy="44.545269"
           sodipodi:cx="66.505676"
           id="path3962"
           style="fill:#fefe98;fill-opacity:1;fill-rule:nonzero;stroke:none"
           sodipodi:type="arc" />
        <path
           sodipodi:nodetypes="ssssssss"
           inkscape:connector-curvature="0"
           id="path3065"
           d="m 63.320057,51.492527 c -1.661404,-0.698568 -3.323675,-2.059572 -3.693935,-3.024453 -0.984639,-2.565929 -0.203971,-2.764071 1.86833,-0.474205 5.102418,5.638109 14.045908,-0.494607 9.377092,-6.430045 -2.55537,-3.248626 -4.912237,-3.241908 -8.794819,0.02507 C 59.11593,44.080238 59,44.099078 59,42.088894 c 0,-6.409705 9.884789,-8.391391 14.499703,-2.906878 5.88178,6.990098 -1.526354,15.948947 -10.179646,12.310511 z"
           style="fill:#000000" />
        <path
           inkscape:connector-curvature="0"
           id="path3906"
           d="m 66.950394,111.94335 c 4.021184,-9.51279 4.014557,-9.43994 2.18712,-24.046096 C 67.516955,74.944625 66.225546,67.093539 64.8468,61.811982 c -0.519353,-1.989483 -0.107216,-2.263335 4.282618,-2.845667 6.640902,-0.880947 6.71799,-0.832812 7.915982,4.942839 1.307214,6.302223 4.113638,11.764658 13.847578,26.952981 8.998713,14.041125 8.791636,12.266495 1.983114,16.995195 -6.307522,4.38074 -6.982721,4.3212 -4.994556,-0.44047 1.658635,-3.97244 0.576216,-8.331534 -3.480572,-14.016854 -1.32785,-1.860888 -4.089934,-6.53417 -6.137964,-10.385067 -4.662683,-8.767209 -4.771011,-6.341311 -0.65406,14.646977 1.107999,5.648594 1.107999,5.648594 -3.149338,9.500004 -6.559824,5.93435 -8.525694,7.1861 -7.509208,4.78143 z"
           style="fill:#000000" />
        <path
           sodipodi:nodetypes="scscs"
           inkscape:connector-curvature="0"
           d="M 92.714829,49.885932 C 69.219042,62.939147 33.848655,61.876058 8.9004192,55.600442 37.806302,58.778769 67.25147,57.635743 91.731206,46.537056 102.77158,41.531542 111.66033,36.155046 122.0833,27.229756 113.0369,36.843333 103.58313,43.847988 92.714829,49.885932 z"
           style="fill:#000000;fill-opacity:1;stroke:#000000;stroke-width:1.99656941;stroke-linecap:round;stroke-linejoin:round;stroke-opacity:1;stroke-miterlimit:4;stroke-dasharray:none"
           id="path3883-7" />
      </g>
      <g
         style="font-size:144px;font-style:normal;font-weight:normal;line-height:125%;letter-spacing:0px;word-spacing:0px;fill:#ff0000;fill-opacity:1;stroke:#ff0000;stroke-width:4.00234556;stroke-linejoin:round;stroke-miterlimit:4;stroke-opacity:1;stroke-dasharray:none;font-family:Garamond;-inkscape-font-specification:Garamond"
         id="text3050-5"
         transform="matrix(0.69081238,0,0,0.59800051,7.4321202,12.994587)">
        <path
           style="font-size:56px;font-style:normal;font-variant:normal;font-weight:normal;font-stretch:normal;text-indent:0;text-align:start;text-decoration:none;line-height:125%;letter-spacing:0;word-spacing:0;text-transform:none;direction:ltr;block-progression:tb;writing-mode:lr-tb;text-anchor:start;baseline-shift:baseline;color:#000000;fill:#ff0000;fill-opacity:1;fill-rule:nonzero;stroke:#000000;stroke-width:1.24590921;marker:none;visibility:visible;display:inline;overflow:visible;enable-background:accumulate;font-family:sans;-inkscape-font-specification:sans;stroke-opacity:1;stroke-miterlimit:4;stroke-dasharray:none"
           d="M 6,-1.875 C 5.2724594,-1.8715343 4.5631791,-1.4366212 4.2301467,-0.78976978 3.8971142,-0.14291833 3.9551652,0.68705634 4.375,1.28125 L 17.1875,19.3125 2.5625,39.03125 C 2.1283265,39.621254 2.0567722,40.4573 2.3843729,41.112501 2.7119735,41.767702 3.423743,42.212087 4.15625,42.21875 l 6.375,0 c 0.633908,-0.0024 1.258341,-0.326637 1.625,-0.84375 l 10.0625,-13.96875 c 0.01042,8.1e-5 0.02083,8.1e-5 0.03125,0 0.06551,-0.09358 0.207013,-0.358519 0.28125,-0.46875 0.02755,0.0402 0.06627,0.08511 0.09375,0.125 L 32.71875,41.375 c 0.366659,0.517113 0.991092,0.841338 1.625,0.84375 l 6.5625,0 c 0.727541,-0.0035 1.436821,-0.438379 1.769853,-1.08523 0.333033,-0.646852 0.274982,-1.476826 -0.144853,-2.07102 l -14.3125,-20 13.21875,-17.75 C 41.874738,0.71830113 41.943619,-0.12541755 41.60855,-0.78266786 41.273482,-1.4399182 40.550217,-1.8797975 39.8125,-1.875 l -5.75,0 c -0.618163,0.00503 -1.226552,0.3151906 -1.59375,0.8125 l -8.0625,10.625 C 23.82343,10.319297 23.388876,11.016311 22.875,11.75 22.326483,10.91538 21.970618,10.309888 21.21875,9.25 L 13.9375,-1.03125 C 13.570841,-1.5483627 12.946408,-1.8725876 12.3125,-1.875 z"
           id="path3826-7"
           inkscape:connector-curvature="0"
           sodipodi:nodetypes="cscccsccccccccccscccsccccccccc" />
      </g>
    </g>
  </g>
</svg>
