/* XPM */
static char * editcopy_xpm[] = {
"22 22 6 1",
" 	c None",
".	c #000000",
"+	c #FFFFFF",
"@	c #000082",
"#	c #3C3CFD",
"$	c #8B8BFD",
"                      ",
"                      ",
"........              ",
".++++++..             ",
".+....+.+.            ",
".++++++.++.           ",
".+....+.@@@@@@@@      ",
".++++++.@++++++@@     ",
".+.....+@+....+@#@    ",
".+++++++@++++++@$#@   ",
".+.....+@+....+@+$#@  ",
".+++++++@++++++@@@@@@ ",
".+.....+@+....++++++@ ",
".+++++++@+++++++++++@ ",
".+.....+@+.........+@ ",
".+++++++@+++++++++++@ ",
"........@+.........+@ ",
"        @+++++++++++@ ",
"        @+.........+@ ",
"        @+++++++++++@ ",
"        @@@@@@@@@@@@@ ",
"                      "};
