<?xml version="1.0" encoding="UTF-8" standalone="no"?>
<!-- Created with Inkscape (http://www.inkscape.org/) -->

<svg
   xmlns:dc="http://purl.org/dc/elements/1.1/"
   xmlns:cc="http://creativecommons.org/ns#"
   xmlns:rdf="http://www.w3.org/1999/02/22-rdf-syntax-ns#"
   xmlns:svg="http://www.w3.org/2000/svg"
   xmlns="http://www.w3.org/2000/svg"
   xmlns:xlink="http://www.w3.org/1999/xlink"
   xmlns:sodipodi="http://sodipodi.sourceforge.net/DTD/sodipodi-0.dtd"
   xmlns:inkscape="http://www.inkscape.org/namespaces/inkscape"
   width="443.15637"
   height="258.8515"
   id="svg5650"
   sodipodi:version="0.32"
   inkscape:version="0.47 r22583"
   version="1.0"
   sodipodi:docname="splash.svg"
   inkscape:output_extension="org.inkscape.output.svg.inkscape">
  <defs
     id="defs5652">
    <linearGradient
       id="linearGradient4886">
      <stop
         style="stop-color:#fffa2a;stop-opacity:1;"
         offset="0"
         id="stop4888" />
      <stop
         style="stop-color:#fffa2a;stop-opacity:0;"
         offset="1"
         id="stop4890" />
    </linearGradient>
    <filter
       inkscape:collect="always"
       id="filter5126">
      <feGaussianBlur
         inkscape:collect="always"
         stdDeviation="2.8426918"
         id="feGaussianBlur5128" />
    </filter>
    <linearGradient
       id="linearGradient4904">
      <stop
         style="stop-color:#04b315;stop-opacity:1;"
         offset="0"
         id="stop4906" />
      <stop
         id="stop3227"
         offset="0.5"
         style="stop-color:#03b614;stop-opacity:0;" />
      <stop
         id="stop3225"
         offset="1"
         style="stop-color:#01ba13;stop-opacity:1;" />
    </linearGradient>
    <linearGradient
       inkscape:collect="always"
       xlink:href="#linearGradient4904"
       id="linearGradient4912"
       x1="142.60271"
       y1="499.76523"
       x2="585.11169"
       y2="499.76523"
       gradientUnits="userSpaceOnUse"
       gradientTransform="translate(184.32804,-158.95131)" />
    <filter
       inkscape:collect="always"
       id="filter5130">
      <feGaussianBlur
         inkscape:collect="always"
         stdDeviation="2.6835434"
         id="feGaussianBlur5132" />
    </filter>
    <linearGradient
       id="linearGradient4892">
      <stop
         style="stop-color:#00e4ff;stop-opacity:1;"
         offset="0"
         id="stop4894" />
      <stop
         id="stop4902"
         offset="0.52631581"
         style="stop-color:#00e3ff;stop-opacity:0;" />
      <stop
         style="stop-color:#00e4ff;stop-opacity:1;"
         offset="1"
         id="stop4896" />
    </linearGradient>
    <linearGradient
       inkscape:collect="always"
       xlink:href="#linearGradient4892"
       id="linearGradient4898"
       x1="162.13763"
       y1="444.11441"
       x2="585.82159"
       y2="444.11441"
       gradientUnits="userSpaceOnUse"
       gradientTransform="translate(184.32804,-158.95131)"
       spreadMethod="pad" />
    <filter
       inkscape:collect="always"
       id="filter5072"
       x="-0.25927606"
       width="1.5185521"
       y="-0.26613539"
       height="1.5322708">
      <feGaussianBlur
         inkscape:collect="always"
         stdDeviation="8.4681497"
         id="feGaussianBlur5074" />
    </filter>
    <filter
       inkscape:collect="always"
       id="filter5098"
       x="-0.29641566"
       width="1.5928313"
       y="-0.048933536"
       height="1.0978671">
      <feGaussianBlur
         inkscape:collect="always"
         stdDeviation="2.316633"
         id="feGaussianBlur5100" />
    </filter>
    <filter
       inkscape:collect="always"
       id="filter5118"
       x="-0.30774987"
       width="1.6154999"
       y="-0.09398941"
       height="1.1879787">
      <feGaussianBlur
         inkscape:collect="always"
         stdDeviation="2.3332357"
         id="feGaussianBlur5120" />
    </filter>
    <filter
       inkscape:collect="always"
       id="filter5564"
       x="-0.36298603"
       width="1.7259721"
       y="-0.099092647"
       height="1.1981853">
      <feGaussianBlur
         inkscape:collect="always"
         stdDeviation="0.84938479"
         id="feGaussianBlur5566" />
    </filter>
    <filter
       inkscape:collect="always"
       id="filter5560"
       x="-0.24490859"
       width="1.4898171"
       y="-0.15099469"
       height="1.3019894">
      <feGaussianBlur
         inkscape:collect="always"
         stdDeviation="0.84938479"
         id="feGaussianBlur5562" />
    </filter>
    <filter
       inkscape:collect="always"
       id="filter5170"
       x="-0.018497335"
       width="1.0369947"
       y="-0.66947192"
       height="2.3389437">
      <feGaussianBlur
         inkscape:collect="always"
         stdDeviation="1.3275287"
         id="feGaussianBlur5172" />
    </filter>
    <filter
       inkscape:collect="always"
       id="filter5174">
      <feGaussianBlur
         inkscape:collect="always"
         stdDeviation="1.4850009"
         id="feGaussianBlur5176" />
    </filter>
    <filter
       inkscape:collect="always"
       id="filter5220"
       x="-0.091558799"
       width="1.1831176"
       y="-0.10089402"
       height="1.2017879">
      <feGaussianBlur
         inkscape:collect="always"
         stdDeviation="1.4843048"
         id="feGaussianBlur5222" />
    </filter>
    <filter
       inkscape:collect="always"
       id="filter5568"
       x="-0.26486647"
       width="1.5297329"
       y="-0.15291525"
       height="1.3058305">
      <feGaussianBlur
         inkscape:collect="always"
         stdDeviation="0.84938479"
         id="feGaussianBlur5570" />
    </filter>
    <filter
       inkscape:collect="always"
       id="filter5572"
       x="-0.2503452"
       width="1.5006903"
       y="-0.33346882"
       height="1.6669377">
      <feGaussianBlur
         inkscape:collect="always"
         stdDeviation="0.84938479"
         id="feGaussianBlur5574" />
    </filter>
    <filter
       inkscape:collect="always"
       id="filter5588"
       x="-0.11889412"
       width="1.2377882"
       y="-0.1430386"
       height="1.2860771">
      <feGaussianBlur
         inkscape:collect="always"
         stdDeviation="0.88149045"
         id="feGaussianBlur5590" />
    </filter>
    <filter
       inkscape:collect="always"
       id="filter5630"
       x="-0.15916829"
       width="1.3183366"
       y="-0.48278859"
       height="1.9655772">
      <feGaussianBlur
         inkscape:collect="always"
         stdDeviation="0.86571435"
         id="feGaussianBlur5632" />
    </filter>
    <filter
       inkscape:collect="always"
       id="filter5634"
       x="-0.2608788"
       width="1.5217576"
       y="-0.67891312"
       height="2.3578262">
      <feGaussianBlur
         inkscape:collect="always"
         stdDeviation="0.86571435"
         id="feGaussianBlur5636" />
    </filter>
    <filter
       inkscape:collect="always"
       id="filter5626"
       x="-0.20740104"
       width="1.4148021"
       y="-0.077003323"
       height="1.1540066">
      <feGaussianBlur
         inkscape:collect="always"
         stdDeviation="0.86571435"
         id="feGaussianBlur5628" />
    </filter>
    <filter
       inkscape:collect="always"
       id="filter5646"
       x="-0.33300766"
       width="1.6660153"
       y="-0.099952102"
       height="1.1999042">
      <feGaussianBlur
         inkscape:collect="always"
         stdDeviation="0.9935714"
         id="feGaussianBlur5648" />
    </filter>
    <filter
       inkscape:collect="always"
       id="filter5642"
       x="-0.45767176"
       width="1.9153435"
       y="-0.27618566"
       height="1.5523713">
      <feGaussianBlur
         inkscape:collect="always"
         stdDeviation="0.9935714"
         id="feGaussianBlur5644" />
    </filter>
    <inkscape:perspective
       sodipodi:type="inkscape:persp3d"
       inkscape:vp_x="0 : 526.18109 : 1"
       inkscape:vp_y="0 : 1000 : 0"
       inkscape:vp_z="744.09448 : 526.18109 : 1"
       inkscape:persp3d-origin="372.04724 : 350.78739 : 1"
       id="perspective5658" />
    <radialGradient
       inkscape:collect="always"
       xlink:href="#linearGradient4886"
       id="radialGradient4892"
       cx="377.79706"
       cy="476.57523"
       fx="377.79706"
       fy="476.57523"
       r="39.192898"
       gradientTransform="matrix(1,0,0,0.9742261,0,12.28319)"
       gradientUnits="userSpaceOnUse" />
  </defs>
  <sodipodi:namedview
     id="base"
     pagecolor="#ffffff"
     bordercolor="#666666"
     borderopacity="1.0"
     inkscape:pageopacity="0.0"
     inkscape:pageshadow="2"
     inkscape:zoom="2"
     inkscape:cx="196.11201"
     inkscape:cy="120.42664"
     inkscape:document-units="px"
     inkscape:current-layer="layer1"
     showgrid="false"
     inkscape:window-width="1680"
     inkscape:window-height="973"
     inkscape:window-x="0"
     inkscape:window-y="25"
     inkscape:window-maximized="0" />
  <metadata
     id="metadata5655">
    <rdf:RDF>
      <cc:Work
         rdf:about="">
        <dc:format>image/svg+xml</dc:format>
        <dc:type
           rdf:resource="http://purl.org/dc/dcmitype/StillImage" />
      </cc:Work>
    </rdf:RDF>
  </metadata>
  <g
     inkscape:label="Livello 1"
     inkscape:groupmode="layer"
     id="layer1"
     transform="translate(-326.99324,-228.65072)">
    <rect
       style="fill:#ffffff;fill-opacity:1;fill-rule:evenodd;stroke:none;stroke-width:1px;stroke-linecap:butt;stroke-linejoin:miter;stroke-opacity:1"
       id="rect2448"
       width="461.49643"
       height="267.98984"
       x="316.51318"
       y="223.25526" />
    <path
       style="opacity:0.86462881000000003;fill:url(#linearGradient4912);fill-opacity:1.0;fill-rule:nonzero;stroke:none;stroke-width:0.10000000000000001;stroke-linecap:square;stroke-linejoin:round;marker:none;marker-start:none;marker-mid:none;marker-end:none;stroke-miterlimit:10;stroke-dasharray:none;stroke-dashoffset:20;stroke-opacity:1;visibility:visible;display:inline;overflow:visible;filter:url(#filter5126);enable-background:accumulate"
       id="path3194"
       d="M 326.99324,375.99176 C 331.68711,374.13103 335.62997,370.8054 339.313,367.43035 C 342.94692,363.61726 346.65475,359.88351 350.38645,356.16641 C 353.52075,352.62457 355.79312,349.05029 359.78353,346.40795 C 362.46043,344.38956 365.71164,343.6629 368.91908,342.9756 C 371.4088,342.34172 373.87109,341.66414 376.38414,341.12444 C 385.85994,339.6512 379.32763,340.36587 397.51263,356.72247 C 397.96342,357.12793 397.22516,357.90086 397.10525,358.4952 C 396.69307,360.53827 396.2852,362.58094 395.86358,364.62328 C 394.85979,368.82678 393.75044,372.9984 393.08135,377.27155 C 392.50052,380.55423 391.87938,383.81549 391.18384,387.07521 C 390.52375,389.56059 389.15247,391.75209 387.98787,394.01646 C 387.28661,396.20968 385.67589,397.81066 384.29931,399.57446 C 384.14786,399.8194 383.34757,401.03313 383.33086,401.37109 C 383.32237,401.54306 383.5673,401.62145 383.68552,401.74663 C 377.43678,396.62457 371.11305,391.59266 364.9393,386.38046 C 364.69156,386.17131 365.53791,386.74063 365.85914,386.69669 C 366.54759,386.60252 367.16573,386.22328 367.81903,385.98657 C 373.13971,382.9068 377.43451,378.40895 381.24572,373.64875 C 383.98508,370.7772 385.33207,367.01197 387.34698,363.6731 C 389.43957,360.49561 392.23575,358.00942 395.31372,355.82834 C 397.81449,354.0809 400.51338,352.67767 403.28856,351.42893 C 406.02818,350.28906 408.78773,349.15108 411.41574,347.76965 C 413.9286,346.38449 416.35354,344.84756 419.00449,343.73612 C 427.55324,340.03072 421.30537,342.43891 440.06328,358.62933 C 440.51087,359.01566 439.69374,359.75278 439.52413,360.3192 C 438.8334,362.62591 438.02596,364.74531 437.04286,366.95035 C 434.55282,372.25542 431.97394,377.52738 429.2284,382.70363 C 427.55359,386.09315 425.81783,389.51068 423.65065,392.62047 C 421.16064,396.19351 422.68841,393.51092 420.97459,396.78804 C 420.34868,406.04891 421.19321,398.21634 402.37542,382.19064 C 402.19832,382.03981 402.68315,382.69986 402.90827,382.64127 C 403.59933,382.46142 404.17939,381.98077 404.76297,381.56926 C 406.28142,380.49855 409.19459,377.90036 410.45386,376.80926 C 416.63315,371.40801 423.32944,366.65942 430.01653,361.91973 C 430.73573,361.42736 431.4601,360.94246 432.17414,360.44262 C 433.34749,359.62126 434.44942,358.69502 435.66407,357.93605 C 437.84865,356.57103 440.26084,355.52561 442.53538,354.32081 C 446.34451,352.34087 450.12795,350.31211 453.9293,348.31679 C 464.10726,342.13844 455.01994,339.57978 476.26833,362.68044 C 476.85128,363.3142 475.37077,364.15027 474.92843,364.88907 C 474.37649,365.81095 473.83317,366.73796 473.28554,367.66241 C 469.23038,374.02794 465.67462,380.67683 461.89147,387.2014 C 460.92169,389.51323 458.50909,392.10805 458.29796,394.72283 C 458.2617,395.1718 458.35134,395.7165 458.68696,396.01692 C 458.99199,396.28996 460.22344,396.42167 459.90645,396.16261 C 453.85972,391.22095 447.53981,386.62332 441.35648,381.85367 C 441.79965,381.90675 442.24212,382.05988 442.68597,382.01292 C 444.93192,381.77532 447.34484,380.7731 449.37844,379.98866 C 455.45285,377.64552 461.28992,374.9403 467.11274,372.03699 C 474.25259,368.02764 481.37215,363.9854 488.51595,359.9849 C 492.43534,357.65391 496.53024,355.67417 500.44662,353.33341 C 502.46184,352.2099 504.41477,350.98489 506.35087,349.73208 C 507.14877,349.21578 508.29689,348.73928 508.65103,347.74962 C 515.18035,353.04071 522.10502,357.87814 528.23899,363.62288 C 528.69306,364.04814 527.64062,364.71392 527.35471,365.26645 C 526.02685,367.83256 524.53273,370.39497 523.40437,373.05567 C 523.10188,373.76893 522.90081,374.52106 522.64903,375.25376 C 523.43676,384.43932 523.08515,376.9229 504.43899,361.03456 C 504.26919,360.88987 504.80629,361.4497 505.01601,361.37362 C 505.68331,361.13156 506.20688,360.59969 506.78258,360.18441 C 509.14466,358.48054 509.3863,358.19046 511.67028,356.24268 C 514.0257,354.02836 516.46627,351.91162 518.81028,349.68511 C 520.27174,348.29692 521.47461,347.00399 523.17786,345.94454 C 541.35424,362.639 543.85701,355.09607 541.65051,366.37899 C 541.40784,367.6199 541.04824,368.83915 540.86808,370.09066 C 540.37819,373.49384 540.64528,375.48043 541.84072,378.59716 C 550.08496,384.17625 533.88729,373.26192 525.35112,365.40951 C 524.66776,364.78089 527.19846,365.72005 528.12517,365.66227 C 532.81939,365.3696 537.20144,363.38755 541.4641,361.60688 C 549.11309,358.1539 556.03959,353.35983 563.01629,348.74586 C 567.16695,345.90049 570.89793,342.50979 574.79048,339.33196 C 576.05866,338.54991 577.0401,337.40001 578.21335,336.50261 C 578.52049,336.26768 578.85885,335.62745 579.17373,335.8519 C 599.88691,350.61646 601.32947,343.33972 598.85389,352.85223 C 598.12779,356.07836 597.89234,359.37568 597.75598,362.67041 C 597.83551,365.77801 597.27427,368.83511 596.97813,371.91713 C 596.91479,372.7595 596.51184,373.38164 597.48833,373.7282 C 597.76749,373.82728 598.60976,373.93577 598.37665,373.75299 C 592.09393,368.82691 585.49235,364.31696 579.20692,359.39433 C 578.97556,359.21313 579.80465,359.50803 580.08784,359.42951 C 580.70546,359.25826 581.26295,358.91738 581.85051,358.66132 C 590.37781,353.67122 599.1536,349.1403 607.8704,344.49967 C 614.1181,341.24854 619.90011,337.21611 625.23042,332.62859 C 626.87302,331.04897 628.72365,329.66701 630.22151,327.9374 C 637.14835,319.93875 625.02773,321.14424 651.89602,341.13592 C 649.56805,345.75537 647.91663,350.70531 646.04666,355.53374 C 643.34327,361.95971 640.13788,368.14849 637.30331,374.515 C 635.16099,379.48054 632.52748,384.22169 629.89745,388.94234 C 623.75967,399.52305 629.09098,397.79642 608.13654,377.97174 C 607.61464,377.47797 609.36373,377.21761 609.92642,376.77088 C 610.93012,375.97402 611.86032,375.08874 612.82727,374.24767 C 614.04541,373.0803 615.29734,371.9472 616.48168,370.74556 C 619.09167,368.09742 621.54526,365.29942 624.09959,362.59755 C 627.76706,358.71827 631.43102,354.85639 635.00151,350.8868 C 640.21589,345.22699 645.89145,339.96792 650.87251,334.09809 C 654.16623,330.37979 656.34495,325.88073 658.9115,321.6658 C 661.6685,317.54937 664.44074,313.44551 666.28994,308.82538 C 667.42042,306.55154 669.33624,304.793 671.42858,303.39491 C 671.83709,303.12195 672.3105,302.4163 672.72101,302.68626 C 679.82912,307.36083 686.44169,312.74857 693.30203,317.77973 C 691.22008,325.88147 687.86856,333.55717 684.75113,341.29621 C 682.40775,348.20012 679.13166,354.72521 676.31634,361.43461 C 673.89395,367.57697 675.13694,364.56008 672.59365,370.48784 C 670.05669,377.17096 666.55519,383.41377 663.41973,389.82154 C 663.43909,398.87683 663.83101,398.23885 645.38971,375.88875 C 644.52919,374.84584 647.65827,374.39449 648.65005,373.4755 C 653.73066,368.76772 657.7511,362.96511 661.74896,357.36584 C 666.26324,350.48947 671.03271,343.76695 674.70899,336.38532 C 675.85389,334.08648 676.86158,331.72177 677.95423,329.39763 C 679.40246,325.85593 680.9053,322.27139 683.28221,319.22824 C 684.2621,317.9737 686.41148,315.81168 687.50625,314.67926 C 691.46252,309.95214 696.25559,306.08475 700.79611,301.95726 C 708.67107,293.94993 702.71616,295.01717 723.92077,313.63983 C 724.68029,314.30687 722.92228,315.39924 722.47874,316.30759 C 720.88617,319.56905 720.31049,321.34202 718.94053,324.90501 C 714.87083,336.34149 711.23708,347.9355 708.14429,359.67394 C 707.07922,363.23278 706.35385,366.90653 705.26363,370.4573 C 705.23715,370.54355 703.26803,376.01013 703.20341,376.25324 C 703.04088,376.86468 703.03145,377.50684 702.94547,378.13365 C 703.35937,378.04981 704.5099,378.15449 704.18716,377.88214 C 698.01244,372.67141 690.73364,368.75259 685.03812,363.02198 C 684.30693,362.28628 686.47713,361.52258 687.11431,360.70411 C 690.51877,356.33106 693.24005,351.43695 696.04842,346.67867 C 701.24572,337.01255 706.17899,327.21919 711.37842,317.55336 C 714.70203,311.07073 719.17281,305.31232 723.76701,299.69766 C 726.49984,296.722 728.10323,292.88927 730.7334,289.8424 C 731.34636,289.13234 732.04539,288.5014 732.70138,287.8309 C 735.83155,285.34737 739.23538,283.24543 742.58985,281.08626 C 744.4042,279.91842 746.16417,278.69559 748.09724,277.73674 C 770.11867,293.35044 770.92302,284.20227 768.35967,294.29552 C 767.72236,296.80497 766.86576,299.21519 766.07237,301.67795 C 765.89237,302.34862 765.758,303.03324 765.53237,303.68997 C 765.16169,304.76893 763.94534,307.39097 763.55836,308.40495 C 762.41237,311.40768 761.32426,314.44534 760.21715,317.46467 C 758.43129,321.86069 757.05914,326.40084 755.38395,330.83783 C 753.81373,335.71604 751.6659,340.37952 749.91003,345.1924 C 747.18465,352.24677 745.11817,359.51414 743.22546,366.82625 C 741.86304,372.35175 740.25277,377.3528 737.48195,382.3408 C 736.35973,384.2896 735.33206,386.29216 734.30427,388.29189 C 734.09304,388.70288 733.68062,389.07564 733.69578,389.53749 C 733.70336,389.76842 734.51659,389.41765 734.33647,389.27294 C 727.83103,384.04619 721.07575,379.13825 714.44539,374.07091 C 717.45469,370.15724 720.232,366.07483 723.16318,362.10351 C 724.74734,360.21775 725.87748,357.92327 727.54287,356.10307 C 728.00875,355.59389 729.04809,354.73994 729.60883,354.26613 C 731.77966,352.75231 733.47687,350.8408 734.80475,348.56473 C 736.50104,345.41927 738.24747,342.27935 739.84395,339.08136 L 759.70439,353.67776 C 757.72105,356.65803 756.18766,359.85726 754.57203,363.04857 C 753.16898,365.62788 751.37605,367.91389 748.96251,369.63583 C 748.34571,370.09435 747.67544,370.48776 747.10907,371.00728 C 745.32037,372.64802 744.04672,374.84366 742.50077,376.6894 C 739.50829,380.50611 736.41112,384.32459 734.34667,388.74794 C 702.13895,368.59601 708.90064,382.3064 714.66264,373.87491 C 715.91764,372.03848 716.80511,369.98423 718.04861,368.14014 C 720.56591,363.41442 722.1339,358.35499 723.79191,353.28025 C 726.02279,346.01811 728.0986,338.70791 730.42794,331.47518 C 731.94703,326.51371 734.03778,321.76608 735.57745,316.80968 C 737.1494,312.36744 738.80939,307.96289 740.81259,303.69341 C 742.83732,298.45406 744.50773,293.08378 746.16771,287.72229 C 746.71701,285.90916 747.4113,284.054 747.60145,282.15465 C 747.64645,281.70517 747.75051,281.22739 747.60574,280.79949 C 747.53246,280.58288 746.83359,280.30967 747.02137,280.44015 C 753.5647,284.98686 760.12261,289.51256 766.67323,294.04876 C 766.30928,293.98284 765.94495,293.78295 765.58139,293.85099 C 764.62052,294.03081 761.39918,295.68033 760.84415,295.97354 C 757.5181,297.73063 754.41241,299.7952 751.76663,302.49841 C 748.54662,306.21853 746.08862,310.51951 742.67858,314.09301 C 738.08396,319.51475 733.74631,325.16919 730.13382,331.30366 C 724.55645,340.71288 719.15058,350.21472 714.14696,359.94573 C 711.45974,364.93131 708.8121,369.9414 706.10612,374.9164 C 705.51013,376.01213 705.42463,378.63426 704.26522,378.17425 C 680.98568,368.93775 680.11192,373.36561 682.92027,364.19449 C 685.36269,358.4025 687.17598,352.38848 689.24505,346.4584 C 693.09892,334.96725 697.13218,323.51966 700.28424,311.80998 C 700.5548,310.75651 702.35639,304.06672 702.51718,302.40106 C 702.56,301.95746 701.80521,300.87171 702.18421,301.10619 C 709.13058,305.40386 715.74225,310.22035 722.52126,314.77744 C 722.16909,314.9272 721.77624,315.00441 721.46474,315.22673 C 720.8125,315.69222 720.26329,316.28734 719.66257,316.81765 C 714.95749,320.66009 710.35319,324.60848 706.40256,329.252 C 705.46766,330.26399 703.40792,332.44076 702.53751,333.57944 C 700.25878,336.5605 698.86881,340.05287 697.08828,343.32356 C 691.69869,352.73713 685.61208,361.69516 679.31028,370.52201 C 675.25025,376.26612 671.16142,381.99033 667.06614,387.70926 C 666.12707,389.02065 665.69864,392.2602 664.21778,391.62094 C 640.68312,381.46142 639.80813,384.73308 644.07053,375.75728 C 647.39624,369.54617 650.91113,363.4237 653.81427,356.9984 C 658.16881,347.48418 662.41687,337.90189 666.25813,328.16946 C 667.96885,323.32043 669.79703,318.49476 671.12415,313.52107 C 671.56486,311.86938 672.36555,308.72976 672.30074,306.87743 C 672.2815,306.32757 671.98397,305.82361 671.82559,305.2967 C 678.36771,309.8051 685.00855,314.1735 691.45195,318.8219 C 691.71823,319.014 690.7833,318.64945 690.46981,318.74703 C 688.39336,319.39331 687.29445,321.54842 686.111,323.16486 C 683.64191,327.50185 680.99543,331.7157 678.32049,335.92604 C 675.86375,340.39682 673.38828,344.92113 669.83819,348.63981 C 664.5305,354.29423 658.65179,359.37875 653.19783,364.89007 C 645.78985,372.65877 638.18056,380.25591 631.45683,388.64229 C 630.66518,389.62714 629.84257,390.58788 629.08188,391.59684 C 628.57789,392.26533 628.38404,394.1007 627.66556,393.67097 C 601.69913,378.14031 604.12457,385.15162 610.38211,374.60224 C 613.12447,370.05239 615.73184,365.40662 618.02854,360.61508 C 621.06119,354.38159 624.184,348.18808 626.56278,341.66403 C 628.36087,337.15501 630.46064,332.26982 630.94362,327.42213 C 637.68518,332.12743 644.53218,336.68517 651.16831,341.53804 C 651.34227,341.66526 650.73368,341.63665 650.56519,341.77103 C 650.14693,342.10463 649.82945,342.54873 649.44051,342.9161 C 647.72212,344.53925 645.81646,345.94088 643.988,347.43328 C 638.35305,352.10356 632.29263,356.1927 625.57518,359.16875 C 616.81506,363.27945 608.09879,367.6653 600.70479,374.01506 C 600.10545,374.48427 599.53134,374.98763 598.90678,375.4227 C 598.44501,375.74436 597.93303,376.5736 597.45265,376.28046 C 584.00236,368.07259 575.178,368.95802 576.55247,358.16988 C 576.94033,355.16273 577.30868,352.15863 577.39378,349.12418 C 577.64356,345.81466 577.94862,342.50613 578.14775,339.19531 C 574.05242,331.34874 578.35132,339.80485 597.3943,353.04225 C 597.6177,353.19755 597.67571,352.39853 597.46297,352.22892 C 597.20014,352.01938 596.04409,352.90036 595.38819,353.34721 C 594.8626,353.70527 594.34016,354.06794 593.81615,354.42831 C 592.08223,355.79031 590.4298,357.29409 588.67431,358.62158 C 586.31404,360.40641 583.70781,361.88576 581.24522,363.51635 C 574.01194,368.06742 567.0767,373.16181 559.07436,376.36168 C 545.6226,382.3935 529.70377,390.77065 521.25918,365.80229 C 520.81048,362.57436 521.03236,360.10367 521.38737,356.84857 C 521.52348,355.60059 521.72572,354.35797 521.79392,353.10445 C 522.35827,342.73148 515.6999,345.64709 540.7044,363.71168 C 540.78514,363.20082 541.35008,362.50272 540.94663,362.17911 C 540.55761,361.86708 540.0056,362.53816 539.59598,362.82263 C 538.89469,363.30964 538.29361,363.92711 537.63944,364.4758 C 535.16144,366.55426 532.59873,368.54497 530.36429,370.89548 C 528.25216,372.91455 526.15095,374.95668 524.0149,376.94924 C 523.33792,377.58074 522.70888,379.30489 521.9376,378.79281 C 500.94561,364.85548 499.25307,370.2701 502.9719,361.18456 C 504.19961,358.68869 505.55156,356.23115 506.59745,353.65063 C 506.93221,352.8247 507.22168,351.98031 507.49101,351.13078 C 507.69689,350.48139 507.43542,348.8108 508.02202,349.15721 C 515.13463,353.35755 521.53462,358.66182 528.29092,363.41413 C 527.49102,363.54125 528.11593,363.39523 526.85151,364.1272 C 524.27481,365.61885 521.7144,367.13901 519.10778,368.57972 C 515.12928,370.89068 511.32811,373.50333 507.06313,375.29243 C 499.49494,379.01039 491.68827,382.25942 484.23495,386.22465 C 480.79801,387.94483 475.71164,390.46888 472.30261,392.26093 C 469.39781,393.78791 466.60016,395.51498 463.68011,397.0126 C 463.00511,397.35879 460.07864,398.58365 459.18741,398.96041 C 457.02762,397.41533 435.01738,390.5189 438.57348,380.63366 C 439.54347,377.93728 441.57683,375.71216 442.8396,373.17256 C 446.72907,366.75408 450.4806,360.25936 454.02619,353.6427 C 454.45915,352.68544 454.94304,351.74962 455.32506,350.77092 C 455.6067,350.0494 455.35092,348.15035 456.01343,348.5516 C 462.9592,352.75831 468.91068,358.43275 475.59314,363.0463 C 475.84741,363.22184 475.9731,362.18364 475.67022,362.12257 C 474.55485,361.89765 473.79216,364.18188 472.69633,363.79821 C 468.87383,365.82238 465.05274,367.84853 461.11229,369.63785 C 458.93921,370.79158 456.69977,371.89021 454.59918,373.17429 C 449.71255,376.16144 456.14864,372.46907 450.85183,375.63463 C 450.10041,376.08371 449.32255,376.48699 448.55791,376.91317 C 441.6406,381.15087 434.74276,385.50134 428.88868,391.1807 C 426.57708,393.60162 424.357,396.14688 421.87032,398.39305 C 421.25706,398.94699 420.67223,400.48042 419.99198,400.01116 C 399.17102,385.64802 396.89849,391.10058 401.4588,382.39593 C 404.4887,377.94364 407.69745,373.59647 409.88514,368.63267 C 412.48939,363.45745 415.26408,358.36198 417.46168,352.99444 C 418.12238,351.11849 418.50855,350.2967 418.83952,348.38519 C 418.93929,347.80896 419.04591,347.22163 419.00291,346.63841 C 418.9785,346.30733 418.36871,345.52198 418.64226,345.71007 C 441.62631,361.51304 445.74468,363.36272 437.84724,359.72827 C 435.17086,360.51769 432.78296,361.95621 430.40112,363.38295 C 427.76641,364.874 424.99633,366.09403 422.15952,367.14819 C 419.52897,368.42662 416.83637,369.60407 414.37945,371.20462 C 411.49312,373.06557 408.88615,375.22873 407.04094,378.17245 C 405.01986,381.66078 403.26046,385.37106 400.46168,388.32811 C 396.13065,393.00969 391.337,397.22616 386.52484,401.40346 C 385.85278,401.87308 385.19592,402.36525 384.50865,402.81231 C 383.96114,403.16845 383.36207,404.1803 382.82306,403.81142 C 368.31973,393.88582 358.33169,394.24136 364.55536,384.68152 C 365.80392,383.00315 367.26776,381.47123 368.03469,379.49199 C 369.13027,377.41488 370.30304,375.32034 370.868,373.02656 C 371.72165,369.89394 372.42364,366.74276 372.94495,363.53465 C 373.77549,359.29857 374.98468,355.1502 375.8423,350.91902 C 376.06396,349.68148 376.39472,348.00639 376.50585,346.73939 C 376.55827,346.14173 376.62429,345.53748 376.56473,344.94048 C 376.52691,344.56133 375.90463,343.63418 376.21774,343.85133 C 393.5367,355.86243 401.06493,364.0534 394.95032,357.46476 C 392.38277,357.7766 389.95587,358.48042 387.46498,359.1343 C 384.4822,359.8005 381.33435,359.96165 378.77829,361.84981 C 377.80428,362.41343 376.94162,362.86012 376.06567,363.57877 C 373.5163,365.67032 371.5572,368.42345 369.28657,370.78726 C 365.63977,374.64605 362.11364,378.62636 358.15744,382.18055 C 354.36299,385.65376 350.37837,388.92439 346.15858,391.87123 L 326.99324,375.99176 z" />
    <path
       style="opacity:1;fill:url(#linearGradient4898);fill-opacity:1.0;fill-rule:nonzero;stroke:none;stroke-width:0.10000000000000001;stroke-linecap:square;stroke-linejoin:round;marker:none;marker-start:none;marker-mid:none;marker-end:none;stroke-miterlimit:10;stroke-dasharray:none;stroke-dashoffset:20;stroke-opacity:1;visibility:visible;display:inline;overflow:visible;filter:url(#filter5130);enable-background:accumulate"
       id="path3196"
       d="M 346.46568,259.70945 C 350.24796,258.00495 353.69262,255.58103 357.08195,253.20307 C 361.04969,250.78254 365.02314,248.27409 369.48784,246.89282 C 370.02615,246.83416 370.56157,246.69893 371.10276,246.71686 C 371.58875,246.73295 372.14415,246.70447 372.53501,246.99373 C 377.86232,250.93636 383.16116,254.94093 388.13447,259.32165 C 388.94177,260.03275 388.36672,264.49497 388.28466,265.45946 C 387.48993,268.89261 385.83518,272.01878 384.47032,275.23933 C 382.49345,279.904 384.51395,275.57163 382.39679,279.97173 C 380.78231,283.69439 378.41603,286.93303 375.87324,290.05874 C 375.06385,291.09483 371.3945,295.02964 371.7283,296.367 C 371.7688,296.52925 371.99105,296.57394 372.12242,296.6774 C 367.46338,292.86845 362.77147,289.09933 358.14528,285.25054 C 357.94008,285.07982 358.58142,285.631 358.84833,285.63392 C 359.92646,285.64574 362.47925,284.63715 363.18783,284.30517 C 365.67674,283.13908 367.49907,281.83204 369.81997,280.32811 C 376.34537,276.28044 381.76897,270.93463 387.12829,265.51571 C 387.81747,264.82941 388.5558,264.18915 389.19583,263.45679 C 393.94675,258.02052 386.77353,249.89672 403.38933,275.06717 C 404.14015,276.20455 401.69776,277.20741 400.93093,278.33406 C 398.41383,282.03222 396.96853,284.75459 394.73023,288.67471 C 390.22213,297.54408 385.10696,306.07274 379.89566,314.54026 C 379.31214,315.50028 378.71266,316.45077 378.14512,317.42032 C 377.97934,317.70353 375.94837,321.06104 376.03126,321.84878 C 376.074,322.25503 377.34859,322.81352 377.03516,322.55157 C 363.54083,311.27367 358.23014,311.32901 366.07179,311.86894 C 367.09184,311.50438 368.15732,311.24801 369.13195,310.77525 C 371.82277,309.47001 375.92192,306.59943 378.13962,304.93962 C 384.08931,300.48663 389.53001,295.52382 394.88961,290.39323 C 403.11524,282.4398 409.53036,272.94485 416.98446,264.31874 C 417.81246,263.34526 418.68411,262.40728 419.46845,261.39829 C 425.13316,254.11111 417.45406,251.6547 436.5144,269.83148 C 437.01189,270.30591 435.82354,271.02084 435.44954,271.59765 C 434.79579,272.60595 434.10458,273.58946 433.43209,274.58537 C 427.95463,283.57622 422.46972,292.56482 417.18623,301.67177 C 413.43441,308.16201 409.86083,314.76523 406.75144,321.58847 C 404.52068,325.82491 403.00209,330.42614 400.43272,334.4795 C 399.62576,335.83464 398.48685,337.06596 397.8205,338.50477 C 397.66387,338.84298 397.42678,339.23731 397.54892,339.58944 C 397.622,339.80011 398.38711,339.78656 398.21565,339.64399 C 393.55325,335.76736 388.72914,332.08947 383.98588,328.31221 C 390.44592,326.27033 396.28453,322.62815 401.93662,318.96915 C 412.50184,311.79236 423.1733,304.80127 433.208,296.88846 C 439.02028,292.40812 444.16685,287.18058 449.56426,282.23514 C 451.69461,280.28318 457.58071,275.15085 459.68034,273.31205 C 461.04581,271.93874 462.44254,270.59582 463.77676,269.19212 C 468.33255,264.3991 465.05768,267.71952 468.07843,264.15472 C 468.31581,263.87459 468.57185,263.1378 468.85414,263.37261 C 484.27861,276.20361 486.01391,271.04864 481.73682,279.06192 C 478.07665,285.3483 472.89998,290.55615 468.35912,296.18993 C 465.54655,299.67945 462.87932,303.26203 460.17715,306.83596 C 455.30688,313.71127 450.67675,320.75167 446.26497,327.92746 C 444.83565,330.61096 443.27034,333.24728 441.96773,335.99729 C 441.4146,337.16505 440.73347,338.48427 441.15308,339.7712 C 436.45559,335.85468 431.76498,331.92989 427.0606,328.02165 C 426.9016,327.88955 427.30965,328.44636 427.51632,328.44223 C 427.96467,328.43326 428.39089,328.20597 428.78236,327.98722 C 431.30516,326.57751 433.47573,324.27098 435.58313,322.34804 C 443.51235,315.80412 450.98073,308.75955 457.9832,301.23726 C 463.2822,295.36307 468.08744,289.10286 472.32306,282.42745 C 475.26181,278.04727 477.82807,273.42555 480.75222,269.03951 C 487.80211,259.83348 489.53799,264.38861 501.5673,275.63072 C 502.21155,276.23281 500.96859,277.28958 500.66923,278.11901 C 496.26789,289.13994 491.70968,300.0791 486.61509,310.80092 C 483.20684,317.87532 479.34442,324.70758 475.61058,331.6095 C 475.35301,332.55869 474.64353,333.55984 475.71318,334.33777 C 476.02039,334.56119 477.12291,334.80855 476.8294,334.56742 C 472.27779,330.828 467.18284,327.74851 462.84359,323.76464 C 462.42514,323.38046 463.96288,323.49163 464.45321,323.20479 C 465.43969,322.62771 466.30612,321.86636 467.23258,321.19715 C 468.30983,320.21922 469.41194,319.268 470.46432,318.26336 C 474.36414,314.54047 478.07979,310.62141 481.98776,306.90512 C 485.52404,303.5423 486.83395,302.45504 490.43688,299.2955 C 496.27449,294.30707 502.32403,289.54647 507.41862,283.77602 C 510.3918,280.12934 513.5924,276.72227 517.12853,273.62449 C 519.83937,271.6529 522.63317,269.73804 525.78384,268.53247 C 527.19199,267.99366 528.64843,267.58797 530.05966,267.05729 C 536.96683,264.52689 533.01532,265.66099 546.20965,278.69588 C 546.74161,279.22141 545.54899,280.0377 545.20495,280.70163 C 543.08087,284.80057 540.80134,288.81534 538.54039,292.83942 C 533.11593,302.22857 528.14179,311.865 523.42093,321.62387 C 521.46245,326.24233 519.67702,330.88392 517.25262,335.28467 C 517.13211,335.74931 516.90066,336.19867 516.89109,336.67859 C 516.88663,336.90177 517.10575,337.07004 517.21309,337.26576 C 512.54137,333.39732 507.87744,329.51946 503.19794,325.66044 C 503.03718,325.52787 503.45589,326.02779 503.65603,326.08577 C 504.17409,326.23584 504.98958,325.67875 505.33174,325.50361 C 507.98435,324.04013 510.27872,322.02666 512.18521,319.68494 C 514.15797,317.10743 515.74456,314.19814 517.16756,311.28185 C 519.14018,307.5151 521.28074,303.83401 523.20092,300.03603 C 525.05939,295.08143 528.01018,290.66363 530.97859,286.31963 C 532.84796,283.54694 535.11499,280.97621 537.90886,279.09857 C 539.69054,277.90118 541.64117,276.99224 543.548,276.02414 C 552.79992,271.31542 562.64794,267.96855 571.95979,263.38072 C 580.27109,260.41812 578.14726,263.49819 589.42181,275.27757 C 589.47058,275.32852 586.81389,279.82131 586.60626,280.17183 C 584.88378,283.24177 583.1968,286.3034 581.67116,289.47287 C 581.44307,289.87632 580.74672,290.28683 580.98688,290.68322 C 581.21256,291.0557 582.60059,290.76196 582.27616,290.47141 C 578.02087,286.66054 573.09736,283.64114 568.85377,279.81726 C 568.34598,279.35969 570.18758,280.14793 570.86962,280.19304 C 572.52055,280.30223 573.83903,279.96295 575.45503,279.67788 C 579.06726,278.79534 582.04447,276.70182 585.02308,274.59959 C 586.11257,273.83066 590.12389,271.13147 591.12467,270.45579 C 594.51982,268.33987 597.88182,266.17211 601.26352,264.0349 C 603.29544,262.75074 605.19565,261.40594 607.4413,260.54319 C 612.70913,264.42519 618.45519,267.73054 623.24479,272.18921 C 623.87268,272.77371 622.83013,273.85412 622.63839,274.69025 C 621.49984,279.65526 619.85412,284.04466 618.05035,288.80026 C 615.99936,295.10294 613.28814,301.13758 610.3535,307.06905 C 609.27723,308.75589 608.52878,310.61766 607.61674,312.38624 C 606.94857,313.68191 606.12999,314.87432 605.4851,316.18515 C 605.38504,316.33274 604.10068,318.13677 604.00555,318.55623 C 603.97783,318.67848 604.36746,318.90262 604.27079,318.82282 C 599.54968,314.92546 594.67213,311.20795 590.13087,307.10243 C 589.85337,306.85156 590.90701,307.19777 591.25205,307.05325 C 592.18687,306.66171 593.00656,306.03812 593.88381,305.53055 C 602.92923,299.11701 611.07744,291.52865 619.31506,284.12954 C 622.68893,280.9079 625.88371,277.46546 628.76761,273.79422 C 630.88104,271.1038 632.73085,268.23307 634.85221,265.54473 C 636.33642,263.43383 638.06035,261.50708 639.57733,259.42145 C 639.91453,258.95784 640.2828,258.50964 640.54581,258.00027 C 640.62871,257.8397 640.44599,257.35095 640.59011,257.45996 C 645.66337,261.29734 650.54966,265.37583 655.52943,269.33377 C 651.60478,275.73483 648.43298,282.56565 644.78596,289.12713 C 641.11806,294.97457 637.83866,301.05073 634.10775,306.85877 C 632.89978,309.01734 631.53927,311.09639 630.37838,313.28181 C 630.24132,313.53983 628.93255,315.78351 629.26357,316.50163 C 629.39255,316.78145 629.86586,316.63192 630.16701,316.69706 C 625.43641,312.99157 620.70581,309.28607 615.97521,305.58058 C 616.17252,305.63165 616.40073,305.61612 616.56715,305.73379 C 621.8455,309.46583 627.18538,313.12197 632.27614,317.1061 C 632.80314,317.51853 631.94228,318.95571 632.29666,319.74405 C 627.21703,315.98415 621.82372,312.61467 617.05777,308.46435 C 616.68038,308.13571 617.72978,307.7218 618.04212,307.33082 C 618.63653,306.58676 619.22769,305.8388 619.77682,305.06073 C 622.63559,301.01009 625.13546,296.71814 627.66388,292.4594 C 631.63596,285.97594 634.86571,279.08354 638.25958,272.29022 C 640.28326,267.75552 642.8898,263.51319 646.38428,259.97582 C 649.47012,257.39162 652.95108,255.5195 656.61879,253.92052 C 659.09835,252.97273 661.47136,251.75042 663.94258,250.7851 C 664.39938,250.60667 664.93635,250.06249 665.34352,250.33582 C 681.95529,261.48714 682.60438,256.03701 680.43024,264.52671 C 676.88552,273.64539 672.41453,282.38802 667.81777,291.01696 C 663.50591,298.12854 660.31229,305.87852 655.71184,312.81272 C 654.53672,314.59286 653.52257,316.47017 652.34778,318.25042 C 652.07089,318.67 651.73686,319.05247 651.48647,319.48838 C 651.39351,319.65021 651.47615,320.13918 651.32818,320.02544 C 646.33363,316.18624 641.55508,312.07393 636.66853,308.09817 C 636.97505,307.99328 637.30917,307.94832 637.58808,307.7835 C 638.85,307.0378 640.13534,305.75765 641.19172,304.81602 C 644.20881,302.12667 647.13917,299.36287 650.06203,296.57104 C 654.38567,292.60752 658.36289,288.29964 662.25849,283.92223 C 663.11114,282.96413 663.91125,281.95738 664.80814,281.04055 C 665.70511,280.12364 666.6916,279.29879 667.63333,278.42791 C 671.70501,274.63929 675.93501,271.02587 680.03026,267.26374 C 681.92156,265.4475 683.94242,263.60054 686.34922,262.47772 C 686.68562,262.32078 687.11704,261.90148 687.40786,262.13217 C 692.52237,266.18926 697.24064,270.72223 702.15703,275.01726 C 699.16061,281.58041 695.40627,287.75565 692.2356,294.23383 C 691.62081,297.01547 688.79279,299.98487 688.22574,302.65171 C 688.16801,302.92321 688.52261,303.65282 688.30489,303.48065 C 683.49409,299.67639 678.93699,295.56185 674.25303,291.60246 C 674.41056,291.69218 674.55747,291.93942 674.72561,291.87163 C 676.81484,291.02923 679.08669,287.90681 680.49002,286.31307 C 683.49227,282.90346 682.67887,283.82514 685.83861,280.42768 C 691.04138,274.38298 697.58527,269.86517 704.11427,265.39983 C 712.09551,260.05683 720.15822,254.82794 728.32831,249.77749 C 733.89718,246.93866 738.07229,242.36061 742.58919,238.19475 C 746.29881,235.24494 750.22023,232.56999 754.17576,229.96319 C 760.91681,226.93389 756.77019,228.45637 770.02935,241.94309 C 770.50643,242.42836 769.43174,243.1662 769.11213,243.767 C 767.8095,246.21569 766.40786,248.6073 764.96982,250.97784 C 762.83184,254.80176 760.49847,258.4991 757.99548,262.08941 C 757.24555,263.24173 756.25356,264.1103 755.17626,264.93351 L 740.52227,253.12308 C 741.52882,252.53187 742.40013,251.865 743.09392,250.89892 C 745.69991,247.46767 748.15604,243.92375 750.32611,240.19657 C 751.55838,238.06041 751.99212,237.42231 753.01712,235.20751 C 753.34995,234.48833 753.68797,233.76761 753.93699,233.01528 C 754.09092,232.55023 753.80224,231.31746 754.22006,231.5732 C 762.7617,236.80125 773.9937,246.51139 768.59837,241.85966 C 764.29957,243.60645 760.7411,246.84327 756.96775,249.46647 C 752.24815,253.63072 747.93962,258.37325 742.12732,261.07116 C 733.69401,265.61752 725.62873,270.79561 717.99032,276.58504 C 711.56737,280.94982 705.16229,285.45315 699.95909,291.28333 C 697.06697,294.48159 697.49181,293.91516 694.83706,297.22545 C 692.56841,300.0543 690.46636,303.05506 687.52477,305.24961 C 682.59082,301.11523 677.42291,297.24499 672.72292,292.84646 C 672.44583,292.58715 672.97449,292.12868 673.13925,291.78681 C 673.40468,291.23604 673.7083,290.70423 674.01127,290.17318 C 675.25128,287.99961 676.53228,285.85075 677.62438,283.59468 C 680.47993,278.46902 684.26856,272.65204 686.00048,267.07482 C 686.23432,266.32177 686.29377,265.5253 686.44041,264.75054 C 691.33596,268.22681 696.17073,271.79031 701.12705,275.17937 C 701.34748,275.3301 700.96277,274.55112 700.70042,274.50133 C 700.27054,274.41974 699.83251,274.6708 699.43734,274.85867 C 697.56637,275.74817 696.01583,277.25053 694.48151,278.59532 C 690.29201,282.29106 686.04674,285.92194 681.72958,289.46797 C 675.46584,295.08103 670.26707,301.77953 664.00897,307.41651 C 659.67878,311.73594 655.55174,316.2635 651.18006,320.53479 C 646.142,316.60544 640.94996,312.86591 636.06588,308.74674 C 635.87881,308.58897 636.40494,308.39364 636.56833,308.21146 C 636.87424,307.87039 637.19369,307.53992 637.4736,307.17719 C 638.78325,305.48003 639.74792,303.55266 641.06155,301.85757 C 645.92204,295.22963 649.91848,288.03878 653.86376,280.84034 C 657.27903,274.42201 660.47437,267.99634 663.03598,261.18225 C 663.52463,259.88243 664.0514,258.59254 664.43015,257.25655 C 664.71277,256.25965 664.8197,255.22112 665.01448,254.20341 C 663.76266,247.03457 664.18199,251.46738 679.33232,262.77909 C 679.69068,263.04666 678.43777,262.55906 677.99787,262.63971 C 677.04534,262.81434 673.92156,264.22503 673.18281,264.55018 C 672.35298,264.91543 671.52781,265.2912 670.70031,265.66171 C 667.32498,267.31655 664.05737,269.18195 660.9481,271.30092 C 657.45428,274.57611 655.05587,278.73774 653.02666,283.04471 C 649.38066,289.6891 645.67897,296.31313 641.62084,302.71614 C 639.14316,307.08901 636.75006,311.48381 634.39384,315.92149 C 633.93962,316.77697 633.44982,317.61313 632.98737,318.46419 C 632.70481,318.98418 632.68042,320.3142 632.15891,320.03446 C 626.55665,317.02932 621.56252,313.00729 616.26432,309.4937 C 616.31349,309.06425 616.44748,308.82881 616.07529,308.48578 C 615.91854,308.34132 615.33605,308.06449 615.50821,308.19018 C 620.41145,311.76979 625.40278,315.22872 630.27411,318.85164 C 630.45522,318.98633 629.83677,318.73987 629.61809,318.68399 C 624.36779,314.8349 619.11748,310.98582 613.86717,307.13673 C 613.88772,306.69714 613.82868,306.24649 613.92882,305.81797 C 614.70454,302.49873 617.98934,299.0369 619.51182,296.01107 C 623.31251,290.30967 626.74508,284.38204 630.44822,278.61858 C 634.1938,272.05616 637.6902,265.31481 640.24093,258.18736 C 645.46969,261.67597 650.83712,264.96519 655.92722,268.65319 C 656.1265,268.79757 655.56231,268.98541 655.40268,269.17269 C 655.01025,269.63307 654.66265,270.13028 654.27342,270.59337 C 652.61903,272.56171 650.76974,274.36256 649.25276,276.4474 C 644.16271,282.88999 639.16721,289.42383 632.91496,294.82753 C 624.45599,301.99768 616.30201,309.49389 608.02205,316.86643 C 607.20484,317.57993 606.41445,318.32536 605.57043,319.00694 C 605.00977,319.45969 604.42171,320.6509 603.81271,320.26562 C 586.20402,309.12574 585.53173,313.08452 590.3346,305.17313 C 591.94066,302.14346 593.87452,299.28724 595.55888,296.29724 C 598.70507,290.59074 601.31001,284.64047 603.5552,278.52207 C 604.88462,274.87292 606.32145,271.21409 606.96179,267.36128 C 607.12148,266.40046 607.25958,265.42584 607.23548,264.45214 C 607.22212,263.91214 606.387,262.60115 606.85084,262.87797 C 611.92823,265.90806 616.5896,269.5863 621.45898,272.94046 C 621.02169,272.88464 620.57457,272.66523 620.1471,272.77299 C 619.26715,272.99484 615.69803,275.08505 615.17458,275.38187 C 611.71976,277.34085 608.31235,279.37849 605.05448,281.65599 C 599.99925,285.32492 595.23031,289.60107 589.27397,291.75511 C 588.0796,292.02858 583.3912,293.39499 582.31215,292.72615 C 576.35369,289.03279 564.11877,286.37818 565.88515,279.59408 C 565.9929,279.18023 566.31726,278.85597 566.53332,278.48692 C 568.17782,275.35804 569.97647,272.33337 571.69664,269.24336 C 572.15728,268.38261 573.04059,266.79622 573.42471,265.84952 C 573.57427,265.48091 573.43856,264.4893 573.77114,264.70753 C 578.88525,268.06329 583.4962,272.13178 588.45549,275.71237 C 588.73997,275.91776 588.17444,274.95193 587.83533,274.86182 C 587.15225,274.68031 586.42415,274.94402 585.71857,274.98512 C 575.85625,278.04167 566.35603,282.23608 557.46798,287.49929 C 556.52403,288.0249 553.25787,289.80874 552.22859,290.50342 C 549.59414,292.28145 547.47739,294.73805 545.63053,297.29281 C 542.55099,301.48555 539.98901,305.98896 538.05732,310.8281 C 536.11769,314.62031 534.18734,318.41522 532.22797,322.19587 C 530.7085,325.23333 529.08069,328.26583 527.08266,331.01489 C 525.04448,333.45495 522.56848,335.56636 519.91228,337.30922 C 519.59864,337.54961 516.86276,339.54408 516.44744,339.24215 C 502.99884,329.46543 498.82008,332.34294 502.33031,324.35015 C 504.7884,320.06165 506.61053,315.46678 509.01674,311.14925 C 514.20663,301.66091 519.69114,292.33313 524.60365,282.69411 C 526.13268,279.52138 527.6629,276.52645 528.94179,273.251 C 529.3566,272.1886 529.73428,271.10857 530.02897,270.0068 C 530.15625,269.53094 529.78078,268.28394 530.20206,268.53921 C 548.35365,279.53799 551.11068,279.51383 544.14977,279.11951 C 539.49847,280.30531 535.3687,281.80301 531.73398,285.09122 C 528.29663,288.19284 524.64518,291.06658 521.77178,294.75452 C 521.03736,295.60497 520.3511,296.49951 519.56854,297.30588 C 514.90508,302.11124 509.1032,305.6836 504.04833,310.03031 C 500.4163,313.02617 498.9902,314.08107 495.56035,317.42469 C 490.64418,322.21725 486.18629,327.46748 481.35252,332.34077 C 480.48392,333.18799 479.65491,334.07777 478.74674,334.88242 C 478.08494,335.46877 477.43875,336.90683 476.65002,336.5072 C 473.38333,334.85206 458.22933,329.16497 460.01316,322.62063 C 460.19163,321.96588 460.57835,321.38664 460.86094,320.76964 C 464.95354,314.18109 469.1232,307.63126 472.78231,300.78713 C 478.08205,290.21271 482.99647,279.39464 485.39825,267.73645 C 484.38821,260.06361 484.56323,264.67037 500.31291,276.38238 C 500.5671,276.5714 499.67542,276.46627 499.3874,276.59816 C 497.78455,277.33213 496.56795,278.68478 495.50798,280.04165 C 492.5351,284.36679 489.85529,288.89621 486.87758,293.22106 C 482.5255,299.97149 477.10468,305.89708 471.65006,311.76942 C 464.59424,319.22308 457.39376,326.53753 449.75118,333.39577 C 447.59536,335.52914 445.52739,337.95951 443.17626,339.88517 C 443.15651,339.90134 440.38307,341.73283 440.29938,341.67408 C 435.01383,337.96392 430.34888,333.4402 425.37363,329.32326 C 426.03257,326.94961 427.44228,324.98644 428.62873,322.85097 C 429.14117,321.92865 429.611,320.98322 430.11532,320.05643 C 430.63925,319.09358 431.18067,318.14034 431.71335,317.18229 C 436.12022,309.92708 441.68549,303.4842 446.63738,296.60478 C 451.73372,290.18165 449.76522,292.70711 454.93106,286.00919 C 459.25789,280.39911 463.93057,274.92305 466.89288,268.42286 C 469.68561,259.98907 466.78371,266.03094 482.78115,276.33272 C 483.0376,276.49786 482.87243,275.36382 482.57725,275.44066 C 481.78594,275.64664 481.23595,276.37917 480.60494,276.89919 C 479.48563,277.82164 478.41657,278.80348 477.33037,279.7647 C 475.85447,281.07078 474.38928,282.38891 472.91873,283.70101 C 471.22134,285.24692 469.50103,286.76804 467.82656,288.33875 C 460.85521,294.87812 454.42042,302.02605 446.47743,307.46193 C 436.27796,315.08511 425.72856,322.21787 415.76384,330.15604 C 410.06059,333.94328 404.12171,337.32572 398.17849,340.71751 C 382.48891,330.12524 378.21903,333.69082 385.45213,323.32324 C 388.15299,319.505 389.99885,315.18781 392.11801,311.03736 C 395.35056,304.21442 399.02972,297.6353 403.05466,291.24387 C 408.69167,282.34955 414.35562,273.4507 418.93133,263.94634 C 419.42449,262.89617 419.97699,261.87187 420.41083,260.79583 C 420.65143,260.19908 420.3836,258.63488 420.94895,258.94209 C 448.19894,273.74956 440.4767,265.22718 435.5175,270.2444 C 433.96764,271.81239 432.64823,273.60014 430.97848,275.05514 C 423.14466,283.42663 416.52789,292.87959 407.98883,300.60303 C 402.60124,305.72992 397.16289,310.76451 391.50329,315.59239 C 388.60048,318.06861 386.12957,320.22582 382.97271,322.30137 C 381.94576,322.97656 380.843,323.52872 379.77815,324.14239 C 378.95406,324.31535 378.02744,325.09531 377.30589,324.66126 C 376.89832,324.41608 359.19052,317.46922 361.04852,311.07028 C 361.73386,308.70996 364.45588,306.04957 365.5244,303.87422 C 371.05115,295.69182 376.40944,287.38143 380.99301,278.62432 C 392.47218,257.10556 376.04768,287.97748 386.66916,267.75471 C 387.34032,266.47686 387.36336,263.53445 388.74436,263.95421 C 394.70753,265.76671 399.87786,269.66367 404.93492,273.30657 C 406.2411,274.24748 398.82663,275.80001 401.44618,276.64597 C 395.82915,281.97224 390.12934,287.17673 383.6467,291.46563 C 380.17847,293.98647 376.83396,296.42985 372.89166,298.15677 C 372.40044,298.37195 371.84116,299.06731 371.40073,298.76134 C 366.03618,295.03457 361.20941,290.58786 356.11375,286.50111 C 356.73408,283.44178 359.22505,281.18859 361.14691,278.87492 C 363.59737,275.86651 365.72358,272.63278 367.5317,269.1958 C 369.79162,264.78484 371.83395,260.10147 372.90912,255.25669 C 372.91671,253.91624 373.05408,252.70703 372.59788,251.41522 C 372.42889,250.93667 371.4163,249.81292 371.83739,250.09622 C 376.60799,253.30576 381.06889,256.95505 385.76449,260.27337 C 386.11836,260.52344 385.2686,259.51721 384.88457,259.31649 C 384.4577,259.09338 383.93544,259.15171 383.46087,259.06932 C 382.85545,259.14204 382.23074,259.11933 381.64461,259.28748 C 378.10489,260.30295 374.69552,263.03956 371.47742,264.77855 C 368.04155,267.17464 364.45026,269.35074 361.03133,271.77784 L 346.46568,259.70945 z" />
    <path
       sodipodi:type="arc"
       style="opacity:1;fill:url(#radialGradient4892);fill-opacity:1;fill-rule:nonzero;stroke:#fff744;stroke-width:40;stroke-linecap:square;stroke-linejoin:round;marker:none;marker-start:none;marker-mid:none;marker-end:none;stroke-miterlimit:10;stroke-dasharray:none;stroke-dashoffset:20;stroke-opacity:1;visibility:visible;display:inline;overflow:visible;filter:url(#filter5072);enable-background:accumulate"
       id="path4914"
       sodipodi:cx="377.79706"
       sodipodi:cy="476.57523"
       sodipodi:rx="19.192898"
       sodipodi:ry="18.182745"
       d="M 396.98996,476.57523 A 19.192898,18.182745 0 1 1 358.60416,476.57523 A 19.192898,18.182745 0 1 1 396.98996,476.57523 z"
       transform="translate(184.32804,-158.95131)" />
    <path
       style="fill:#000000"
       d="M 530.06736,485.73085 C 527.81225,483.90477 527.77192,483.62559 528.94769,477.98085 C 529.61853,474.76023 531.82267,468.81074 533.84577,464.75977 C 537.24683,457.94964 537.39024,457.31943 535.74805,456.40042 C 534.7712,455.85374 532.59481,454.17598 530.91163,452.67206 C 527.17865,449.33665 527.6859,447.27845 532.76379,445.15677 C 537.68539,443.10039 540.51607,443.22833 542.66631,445.60432 C 544.26738,447.37348 544.2889,447.64814 542.86919,448.19293 C 541.99566,448.52814 540.8187,448.51671 540.25373,448.16754 C 539.68876,447.81837 538.28816,448.03487 537.14128,448.64866 C 535.42826,449.56545 535.27745,450.03142 536.29641,451.25919 C 537.02215,452.13366 538.4248,452.53086 539.67714,452.21654 C 540.85435,451.92108 542.79191,452.36184 543.98283,453.196 L 546.14816,454.71265 L 541.57636,463.16812 C 536.97495,471.67838 534.21902,479.78525 534.19705,484.87517 C 534.18307,488.11499 533.25032,488.30825 530.06736,485.73085 z M 570.87031,473.24703 C 570.57945,472.48905 570.70696,471.47655 571.15366,470.99703 C 572.79054,469.2399 574.36529,446.25547 573.70941,433.6943 C 572.95901,419.32298 570.90187,403.64398 568.7146,395.62517 C 566.70003,388.23952 563.36754,376.25555 561.62357,370.12517 C 560.84125,367.37517 559.71029,362.98767 559.11031,360.37517 C 558.15793,356.22814 557.68088,355.60788 555.35232,355.48899 C 552.99593,355.36867 552.94733,355.30231 554.93518,354.91944 C 556.20397,354.67506 557.18518,353.75323 557.18518,352.80562 C 557.18518,351.77277 558.05227,351.06901 559.43518,350.97945 C 560.67268,350.89931 566.51104,350.49466 572.40931,350.08025 C 581.68195,349.42874 583.21488,349.53898 583.73514,350.89476 C 584.26248,352.269 587.88755,352.46055 613.0717,352.44493 C 644.30638,352.42556 655.95653,352.85612 687.18518,355.18397 C 709.13938,356.82049 717.5443,358.3358 726.05602,362.19196 C 729.00999,363.53023 731.59749,364.62517 731.80602,364.62517 C 732.66564,364.62517 732.01589,360.89286 728.80127,347.36521 C 726.94012,339.53319 724.87753,330.20017 724.21773,326.62517 C 723.55793,323.05017 722.38069,317.11134 721.60164,313.42776 C 719.77131,304.77345 719.81174,299.24567 721.75321,292.70804 C 722.61563,289.80396 723.11398,287.22064 722.86066,286.96732 C 722.60734,286.71399 719.08922,288.72789 715.04263,291.44264 C 672.65454,319.87963 621.69486,338.83801 569.68518,345.51952 C 529.5263,350.67861 489.89251,352.60387 463.18518,350.69289 C 454.11018,350.04355 440.61018,349.08926 433.18518,348.57225 C 412.17593,347.10934 387.6769,344.55271 380.62668,343.08743 L 377.56819,342.45177 L 375.28995,354.72149 C 374.03692,361.46983 372.15731,369.15885 371.11304,371.80819 C 368.96205,377.26529 368.9168,377.23476 376.88596,375.70226 C 379.52553,375.19466 385.96018,374.25343 391.18518,373.61064 C 396.41018,372.96784 403.16018,372.04866 406.18518,371.56802 C 409.21018,371.08737 413.93518,370.45685 416.68518,370.16687 C 419.43518,369.87688 424.61018,369.21641 428.18518,368.69916 C 434.26787,367.81909 440.13841,367.10299 461.18518,364.67374 C 465.86018,364.13414 475.31018,363.03113 482.18518,362.2226 C 489.06018,361.41407 499.41018,360.28371 505.18518,359.71069 C 510.96018,359.13767 520.66416,358.15993 526.74957,357.53793 C 532.83498,356.91594 538.68498,356.59978 539.74957,356.83537 C 540.81416,357.07096 538.31018,357.58688 534.18518,357.98185 C 527.14265,358.65619 522.95025,359.09892 499.18518,361.67796 C 493.96018,362.24498 486.31018,363.13913 482.18518,363.66495 C 478.06018,364.19077 472.66018,364.86082 470.18518,365.15394 C 467.71018,365.44707 460.51018,366.37016 454.18518,367.20526 C 447.86018,368.04036 439.31018,369.12765 435.18518,369.62145 C 431.06018,370.11525 422.73518,371.24868 416.68518,372.14017 C 410.63518,373.03167 402.76018,374.16989 399.18518,374.66956 C 395.61018,375.16923 388.22439,376.26365 382.77231,377.10161 C 377.32023,377.93957 371.30958,378.62517 369.41532,378.62517 C 366.527,378.62517 366.08764,378.34276 366.69276,376.87517 C 371.01808,366.38493 375.82211,342.70185 373.74316,342.11782 C 373.16127,341.95435 370.54768,341.26815 367.93518,340.59292 C 365.32268,339.9177 363.18518,338.97373 363.18518,338.49521 C 363.18518,338.01669 365.84679,337.62517 369.09986,337.62517 L 375.01454,337.62517 L 375.7375,329.91011 C 377.78916,308.01585 372.6588,269.28746 366.84484,262.78061 C 365.05284,260.77503 364.29886,257.11506 365.68518,257.15135 C 371.69581,257.30868 411.05235,264.5041 439.68518,270.68051 C 473.21803,277.91391 511.76849,280.26213 553.68518,277.62458 C 585.20988,275.64094 613.64532,273.03994 629.68518,270.67282 C 632.98518,270.18582 639.51018,269.265 644.18518,268.62656 C 657.9785,266.74287 686.10202,261.84116 695.68518,259.65052 C 697.88518,259.14762 703.06018,257.99869 707.18518,257.09734 C 730.50333,252.00213 736.61346,250.18803 739.75909,247.42614 C 742.43062,245.08049 743.13215,244.85635 744.1109,246.03567 C 745.03315,247.14691 744.53424,248.60392 741.7309,252.98624 C 737.69364,259.29749 730.76041,274.53373 731.56129,275.33461 C 731.8537,275.62703 734.0262,274.37861 736.38907,272.56036 C 743.49896,267.08921 743.69255,267.00322 741.33691,270.36268 C 740.08834,272.14331 736.66155,275.4787 733.72182,277.77466 C 728.76079,281.64927 728.24653,282.45828 726.56255,289.03715 C 723.23402,302.0409 723.85924,307.67036 733.3819,350.43803 C 736.17293,362.97296 737.13527,369.07508 736.43199,369.77836 C 735.7287,370.48165 733.08245,369.69269 728.04485,367.2778 C 717.20203,362.08004 712.95816,360.94357 699.68518,359.68335 C 693.08518,359.0567 683.18518,358.11051 677.68518,357.5807 C 664.94241,356.35321 636.07029,354.89814 606.80043,354.00832 L 583.91568,353.31262 L 584.62154,359.21889 C 585.71009,368.32731 587.88896,375.98576 593.35384,389.91185 C 599.27363,404.99717 612.78029,432.06354 617.12723,437.552 C 618.8091,439.67554 620.18518,442.15278 620.18518,443.05699 C 620.18518,443.9612 615.18697,450.09903 609.07805,456.69662 C 600.60616,465.84619 597.66617,468.43932 596.68646,467.62623 C 595.65103,466.7669 595.76874,465.59505 597.29359,461.58197 C 599.72968,455.1707 599.74498,445.5669 597.3303,438.5304 C 591.26886,420.86708 583.86416,402.87558 581.8109,400.82232 C 580.38892,399.40034 580.34352,399.6188 581.31877,403.1905 C 581.90966,405.35457 582.75776,407.57517 583.20343,408.12517 C 585.11042,410.47857 591.09874,441.22144 591.87266,452.63133 L 592.44963,461.13749 L 582.54337,467.88133 C 577.09493,471.59044 572.35857,474.62517 572.01813,474.62517 C 571.6777,474.62517 571.16118,474.005 570.87031,473.24703 z M 530.68518,339.62362 C 541.68518,339.10269 551.72058,338.38145 552.98608,338.02088 C 555.25485,337.37444 555.24425,337.3393 552.22694,335.50437 C 548.39425,333.17357 545.19381,328.03133 545.18892,324.19617 C 545.18686,322.58522 544.66935,319.84065 544.03888,318.09714 C 542.44385,313.68615 543.58234,310.23449 548.33179,305.08194 C 556.17378,296.57439 569.009,296.37753 577.43349,304.6356 C 585.35677,312.40237 585.75783,324.14091 578.36415,331.87517 C 574.12501,336.30958 574.64581,336.46176 586.32822,334.20226 C 590.37455,333.41965 598.86018,331.77851 605.18518,330.55527 C 638.38483,324.13454 679.94758,307.58391 714.56428,286.99962 C 723.82247,281.49438 724.56374,280.81092 726.35852,276.12517 C 728.34976,270.92647 729.88384,267.44519 733.76903,259.30848 L 736.06895,254.49179 L 732.87707,255.14225 C 731.12153,255.5 724.96018,256.90339 719.18518,258.26088 C 703.54844,261.9365 701.49065,262.37773 691.68518,264.15738 C 686.73518,265.05578 681.11018,266.16818 679.18518,266.62938 C 675.60901,267.48618 668.50889,268.68014 655.18518,270.66523 C 651.06018,271.27981 643.63518,272.39763 638.68518,273.14929 C 623.75347,275.41666 610.8654,276.77239 572.18518,280.14461 C 560.84825,281.13298 542.35904,281.68665 519.68518,281.71675 C 485.60878,281.76198 473.89646,280.99554 450.68518,277.20145 C 449.03518,276.93174 444.53518,276.20591 440.68518,275.58849 C 430.82877,274.00783 399.67029,267.79146 393.68518,266.21162 C 390.93518,265.48572 385.98518,264.33326 382.68518,263.6506 C 379.38518,262.96794 375.38053,262.00794 373.78596,261.51728 C 369.39845,260.16721 369.01265,260.38792 370.53832,263.37517 C 372.49348,267.20336 376.69402,285.28433 378.21963,296.43895 C 379.07367,302.68329 379.28863,310.95592 378.87191,321.54109 L 378.25034,337.32945 L 408.46776,338.08907 C 425.08734,338.50686 445.88518,339.16233 454.68518,339.54568 C 479.58429,340.63034 508.7947,340.66029 530.68518,339.62362 z M 571.53178,329.07703 C 574.8268,325.87694 575.18206,325.01862 575.15338,320.32703 C 575.11923,314.74194 573.88141,312.38353 569.4508,309.462 C 563.3856,305.46261 553.19013,308.48886 548.68476,315.62584 C 545.75786,320.26234 545.70036,320.78695 547.69603,324.64615 C 550.251,329.58692 555.79816,332.62517 562.26391,332.62517 C 567.34184,332.62517 568.22751,332.2861 571.53178,329.07703 z M 453.13653,469.78686 C 451.01801,468.07139 450.94379,467.6409 452.02575,463.34404 C 453.99936,455.50614 453.96608,455.46422 447.52863,457.67903 C 440.41608,460.12611 438.67786,460.11785 436.18518,457.62517 C 432.51372,453.95371 434.64985,446.62517 439.39148,446.62517 C 441.99915,446.62517 443.45983,449.15234 441.69751,450.61494 C 440.86573,451.30525 440.18518,452.53874 440.18518,453.35602 C 440.18518,455.53019 444.61704,454.21096 450.68518,450.23049 C 459.09853,444.71164 459.60955,444.53368 462.07825,446.26282 C 463.53728,447.28477 463.97184,448.19681 463.36586,448.96527 C 461.66596,451.12094 458.42665,461.09189 457.70982,466.37517 C 457.31805,469.26267 456.63958,471.62517 456.20213,471.62517 C 455.76467,471.62517 454.38515,470.79793 453.13653,469.78686 z M 360.57468,463.60452 C 358.97563,462.98953 358.33763,461.67004 357.94195,458.1596 C 357.65472,455.61133 357.09856,453.2111 356.70604,452.82577 C 356.31352,452.44044 353.81461,454.48767 351.15291,457.37517 C 346.33266,462.60434 343.39706,463.79032 341.35734,461.33261 C 340.55914,460.37084 341.23414,458.51541 343.99488,454.08261 C 350.60267,443.47275 353.84461,434.85506 352.96305,430.24349 C 352.39853,427.29044 353.74673,426.5077 356.93518,427.93734 C 358.4995,428.63875 359.18518,429.80715 359.18518,431.77133 C 359.18518,435.04722 357.35182,443.33186 356.06705,445.8616 C 354.79079,448.3746 354.92641,448.62517 357.56273,448.62517 C 360.87027,448.62517 361.94678,450.30251 363.04843,457.17265 C 364.10332,463.75112 363.69774,464.80564 360.57468,463.60452 z M 642.82838,463.35354 C 641.13683,462.11664 641.15625,461.77155 643.23712,456.09006 C 645.7639,449.19112 647.39547,447.10815 649.60764,447.95704 C 651.64201,448.7377 651.64862,453.30895 649.62177,457.72153 C 646.29028,464.97437 645.70668,465.4582 642.82838,463.35354 z M 752.66676,463.4639 C 751.55663,462.94817 748.88757,459.84847 746.73552,456.57569 C 744.58347,453.3029 742.31509,450.62517 741.69467,450.62517 C 741.07425,450.62517 738.42987,453.10017 735.81828,456.12517 C 731.15536,461.5262 728.66356,462.70355 726.49183,460.53182 C 725.10255,459.14254 730.64164,445.04772 732.92055,444.17322 C 733.77109,443.84684 735.51275,444.26501 736.7909,445.10248 C 738.06905,445.93996 740.69527,446.62517 742.62694,446.62517 C 745.38744,446.62517 746.49595,447.2137 747.80663,449.37517 C 748.72379,450.88767 751.05332,454.50851 752.98337,457.42149 C 756.55696,462.81503 756.43132,465.21279 752.66676,463.4639 z M 651.45801,439.31677 L 649.23083,438.07923 L 651.19331,434.8522 C 652.54775,432.625 653.91663,431.62517 655.61146,431.62517 C 659.13026,431.62517 659.5006,432.97626 657.09797,437.0484 C 654.75616,441.01748 654.61844,441.07287 651.45801,439.31677 z M 545.43518,355.93584 C 546.39768,355.68432 547.97268,355.68432 548.93518,355.93584 C 549.89768,356.18737 549.11018,356.39317 547.18518,356.39317 C 545.26018,356.39317 544.47268,356.18737 545.43518,355.93584 z"
       id="path2416"
       sodipodi:nodetypes="cssssssssssscccsccsssssssssssssssssssssssscccssssssssssssssssssssssssscccssssssssssssssssssssscccsssssssssscccsccssssssssssscccsssssssssssssscccsccsssssccsssssssssssccsssssssssssccsssccsssssssssccccssccssc" />
    <path
       style="fill:none;fill-rule:evenodd;stroke:#ffffff;stroke-width:2;stroke-linecap:butt;stroke-linejoin:miter;stroke-miterlimit:4;stroke-dasharray:none;stroke-opacity:1;filter:url(#filter5098)"
       d="M 562.12509,356.51479 L 575.25708,408.53765 C 575.25708,408.53765 579.55022,429.75085 578.79261,439.85238 L 576.26723,468.13665"
       id="path5078"
       sodipodi:nodetypes="cccc" />
    <path
       style="fill:none;fill-rule:evenodd;stroke:#ffffff;stroke-width:2;stroke-linecap:butt;stroke-linejoin:miter;stroke-miterlimit:4;stroke-dasharray:none;stroke-opacity:1;filter:url(#filter5118)"
       d="M 586.87383,400.2039 L 597.73297,427.22548 C 603.20901,438.59093 602.85609,444.90743 603.03627,448.69121 C 603.28881,453.99452 602.02612,457.78259 602.02612,457.78259"
       id="path5084"
       sodipodi:nodetypes="cccc" />
    <path
       style="fill:none;fill-rule:evenodd;stroke:#ffffff;stroke-width:1;stroke-linecap:butt;stroke-linejoin:miter;stroke-miterlimit:4;stroke-dasharray:none;stroke-opacity:1;filter:url(#filter5564)"
       d="M 353.9074,428.23563 C 353.9074,428.23563 357.06413,428.17249 357.94801,430.31906 C 358.94896,433.69696 355.80144,442.25149 355.80144,442.25149 L 353.52859,447.80733"
       id="path5134"
       sodipodi:nodetypes="cccc" />
    <path
       style="fill:none;fill-rule:evenodd;stroke:#ffffff;stroke-width:1;stroke-linecap:butt;stroke-linejoin:miter;stroke-miterlimit:4;stroke-dasharray:none;stroke-opacity:1;filter:url(#filter5560)"
       d="M 355.29636,449.3857 L 358.07428,449.5751 C 360.09459,450.33271 360.34712,451.46913 360.34712,451.46913 C 361.67295,453.11063 362.61997,461.88633 362.61997,461.88633"
       id="path5136"
       sodipodi:nodetypes="cccc" />
    <path
       style="fill:none;fill-rule:evenodd;stroke:#ffffff;stroke-width:1px;stroke-linecap:butt;stroke-linejoin:miter;stroke-opacity:1;filter:url(#filter5170)"
       d="M 375.06027,339.42102 C 379.60596,340.17864 466.60582,344.06888 480.73867,343.49753 C 496.19978,344.17186 524.3342,342.38278 546.30502,341.37262"
       id="path5150"
       sodipodi:nodetypes="ccc" />
    <path
       style="fill:none;fill-rule:evenodd;stroke:#ffffff;stroke-width:1px;stroke-linecap:butt;stroke-linejoin:miter;stroke-opacity:1;filter:url(#filter5174)"
       d="M 580.39947,337.69659 C 580.39947,337.69659 608.5152,332.97385 625.39947,328.41087 C 641.30937,324.11772 667.5734,312.57764 672.98933,310.30032 C 681.44936,306.76479 716.04709,288.83457 722.48681,283.78381"
       id="path5152"
       sodipodi:nodetypes="cccc" />
    <path
       style="fill:none;fill-rule:evenodd;stroke:#ffffff;stroke-width:1px;stroke-linecap:butt;stroke-linejoin:miter;stroke-opacity:1;filter:url(#filter5220)"
       d="M 544.32804,313.94659 C 545.48875,309.03587 552.45304,300.19659 562.45304,299.66088 C 572.26049,299.12948 581.80277,308.3511 582.0959,315.7323 C 583.07804,323.41087 578.70304,330.1073 574.5959,333.94658"
       id="path5210"
       sodipodi:nodetypes="cccc" />
    <path
       style="fill:none;fill-rule:evenodd;stroke:#ffffff;stroke-width:1px;stroke-linecap:butt;stroke-linejoin:miter;stroke-opacity:1;filter:url(#filter5568)"
       d="M 642.81019,461.26801 C 642.81019,461.26801 644.08879,458.18262 645.13161,455.28587 C 645.93519,453.05373 646.84559,450.91289 647.89947,449.57159 C 648.88161,448.32159 649.50661,449.30373 649.50661,449.30373"
       id="path5224"
       sodipodi:nodetypes="cccc" />
    <path
       style="fill:none;fill-rule:evenodd;stroke:#ffffff;stroke-width:1px;stroke-linecap:butt;stroke-linejoin:miter;stroke-opacity:1;filter:url(#filter5572)"
       d="M 650.48876,437.87516 L 653.16733,433.94659 C 655.39947,431.9823 657.63161,433.05373 657.63161,433.05373"
       id="path5226"
       sodipodi:nodetypes="ccc" />
    <path
       style="fill:none;fill-rule:evenodd;stroke:#ffffff;stroke-width:1px;stroke-linecap:butt;stroke-linejoin:miter;stroke-opacity:1;filter:url(#filter5588)"
       d="M 727.66384,459.67662 C 727.66384,459.67662 728.54773,454.62586 729.81042,452.10048 C 730.88912,449.39225 732.84088,446.03956 733.85103,445.91329 C 735.59693,445.6477 737.13402,447.42852 739.02806,447.68106 C 739.02806,447.68106 742.31106,448.18614 744.45763,447.9336"
       id="path5576"
       sodipodi:nodetypes="ccccc" />
    <path
       style="fill:none;fill-rule:evenodd;stroke:#ffffff;stroke-width:1px;stroke-linecap:butt;stroke-linejoin:miter;stroke-opacity:1;filter:url(#filter5630)"
       d="M 542.18518,447.16087 C 542.18518,447.16087 540.57804,444.75016 538.25661,444.75016 C 535.90787,444.75016 530.13161,448.05373 530.13161,448.05373"
       id="path5596"
       sodipodi:nodetypes="ccc" />
    <path
       style="fill:none;fill-rule:evenodd;stroke:#ffffff;stroke-width:1px;stroke-linecap:butt;stroke-linejoin:miter;stroke-opacity:1;filter:url(#filter5634)"
       d="M 544.86376,455.1073 C 544.75717,455.21389 542.78246,453.3402 541.20304,453.05373 C 540.38021,453.01755 538.41329,453.40357 537.89947,453.2323"
       id="path5598"
       sodipodi:nodetypes="ccc" />
    <path
       style="fill:none;fill-rule:evenodd;stroke:#ffffff;stroke-width:1px;stroke-linecap:butt;stroke-linejoin:miter;stroke-opacity:1;filter:url(#filter5626)"
       d="M 541.91733,459.75016 C 541.91733,459.75016 536.01374,470.54994 534.5959,475.82158 C 533.43519,478.76801 532.89947,485.7323 532.89947,485.7323"
       id="path5600"
       sodipodi:nodetypes="ccc" />
    <path
       style="fill:none;fill-rule:evenodd;stroke:#ffffff;stroke-width:1px;stroke-linecap:butt;stroke-linejoin:miter;stroke-opacity:1;filter:url(#filter5646)"
       d="M 455.66733,469.30373 C 456.05423,466.44399 456.44114,464.64314 456.82804,462.69659 C 457.72143,459.33296 458.73227,455.85188 459.86376,452.25016 C 460.30221,451.07226 460.69694,449.90894 461.82804,448.50016 C 460.99471,447.00755 460.16137,446.79107 459.32804,446.44659"
       id="path5638"
       sodipodi:nodetypes="ccccc" />
    <path
       style="fill:none;fill-rule:evenodd;stroke:#ffffff;stroke-width:1px;stroke-linecap:butt;stroke-linejoin:miter;stroke-opacity:1;filter:url(#filter5642)"
       d="M 437.00661,448.67873 C 437.90195,448.26269 437.19161,447.55683 440.66732,447.78588 C 441.71781,448.50016 440.99846,449.30373 440.66733,450.01801 C 439.56003,450.98499 438.24494,451.94988 438.70304,453.41087 C 438.30095,454.38123 439.46654,454.86738 440.2209,455.37516"
       id="path5640"
       sodipodi:nodetypes="ccccc" />
  </g>
</svg>
