/* XPM */
static char * editpaste_xpm[] = {
"22 22 8 1",
" 	c None",
".	c #000000",
"+	c #FFFF00",
"@	c #848284",
"#	c #848200",
"$	c #C6C3C6",
"%	c #000084",
"&	c #FFFFFF",
"                      ",
"       .....          ",
"  ......+++......     ",
" ......+++++......    ",
"..@#@..+...+..@#@..   ",
".@#@.$$$$$$$$$.@#@.   ",
".#@#.$$$$$$$$$.#@#.   ",
".@#@...........@#@.   ",
".#@#@#@#@#@#@#@#@#.   ",
".@#@#@#@#@#@#@#@#@.   ",
".#@#@#@#%%%%%%%%%%.   ",
".@#@#@#@%&&&&&&&%&%   ",
".#@#@#@#%&%%%%%&%&&%  ",
".@#@#@#@%&&&&&&&%&&&% ",
".#@#@#@#%&%%%%%&%&&&&%",
".@#@#@#@%&&&&&&&%%%%%%",
".#@#@#@#%&%%%%%&&&&&&%",
".@#@#@#@%&&&&&&&&&&&&%",
".#@#@#@#%&%%%%%%%%%%&%",
" .......%&&&&&&&&&&&&%",
"        %%%%%%%%%%%%%%",
"                      "};
