/* XPM */
static char * fit_pano_xpm[] = {
"22 22 2 1",
" 	g None",
".	g #000000",
"                      ",
"                      ",
"                      ",
"                      ",
"                      ",
"     .............    ",
"     .     .     .    ",
"     .   .....   .    ",
"     .    ...    .    ",
"     . .   .   . .    ",
"     . ..     .. .    ",
"     .....   .....    ",
"     . ..     .. .    ",
"     . .   .   . .    ",
"     .    ...    .    ",
"     .   .....   .    ",
"     .     .     .    ",
"     .............    ",
"                      ",
"                      ",
"                      ",
"                      "};
