/* XPM */
static char * hugin_xpm[] = {
"32 32 256 2",
"  	c None",
". 	c #020202",
"+ 	c #C6C6BE",
"@ 	c #6286A2",
"# 	c #42566A",
"$ 	c #15160F",
"% 	c #968671",
"& 	c #2E4252",
"* 	c #CCD6DA",
"= 	c #9E8E72",
"- 	c #5E666E",
"; 	c #D6E2E2",
"> 	c #1E262A",
", 	c #BA9E6E",
"' 	c #7A6E5E",
") 	c #E2EEF6",
"! 	c #2C3640",
"~ 	c #564228",
"{ 	c #E2BA7E",
"] 	c #5C7692",
"^ 	c #5A564A",
"/ 	c #7EA6CA",
"( 	c #F3F6F9",
"_ 	c #12120F",
": 	c #666662",
"< 	c #3E2E1E",
"[ 	c #F6D6A2",
"} 	c #CEC6B6",
"| 	c #FEE2B2",
"1 	c #A6B2B6",
"2 	c #6E92B8",
"3 	c #3E3626",
"4 	c #BAB29E",
"5 	c #46423A",
"6 	c #2A2622",
"7 	c #0E0E0F",
"8 	c #72664E",
"9 	c #D6DEE6",
"0 	c #161E26",
"a 	c #7E827E",
"b 	c #DAC6AA",
"c 	c #2A2A24",
"d 	c #FAEED7",
"e 	c #6A6662",
"f 	c #42525E",
"g 	c #8A9AA2",
"h 	c #524632",
"i 	c #EEE2CA",
"j 	c #363636",
"k 	c #60563E",
"l 	c #D0BAA0",
"m 	c #484E50",
"n 	c #4E626E",
"o 	c #AAAA9E",
"p 	c #BEAE9A",
"q 	c #605A58",
"r 	c #282216",
"s 	c #749EC6",
"t 	c #6A6E6E",
"u 	c #2E2E29",
"v 	c #3A4E5E",
"w 	c #0A0A08",
"x 	c #DEC29A",
"y 	c #CAB696",
"z 	c #7A6E62",
"A 	c #64523A",
"B 	c #FAFAEE",
"C 	c #E2D6C6",
"D 	c #F2CE9A",
"E 	c #5E7A92",
"F 	c #BAA68A",
"G 	c #423622",
"H 	c #5A5246",
"I 	c #526A80",
"J 	c #F9EAD6",
"K 	c #98928A",
"L 	c #1A1A1A",
"M 	c #4E4232",
"N 	c #E3EAEB",
"O 	c #9E9A8E",
"P 	c #26323E",
"Q 	c #7E7266",
"R 	c #59728D",
"S 	c #E8EEF2",
"T 	c #3E3A3A",
"U 	c #1E1E1D",
"V 	c #6E7682",
"W 	c #344250",
"X 	c #362E22",
"Y 	c #E2CAA6",
"Z 	c #B6AEA1",
"` 	c #A29276",
" .	c #6E6E6F",
"..	c #E2D6D2",
"+.	c #6A96BE",
"@.	c #BEB6AA",
"#.	c #6A5A46",
"$.	c #2C3E4A",
"%.	c #6A624E",
"&.	c #4E565A",
"*.	c #364652",
"=.	c #F6FAFA",
"-.	c #E2D2C2",
";.	c #D2C2AB",
">.	c #B6B6A8",
",.	c #423626",
"'.	c #FAFAF2",
").	c #7B766F",
"!.	c #8A7A56",
"~.	c #767676",
"{.	c #8E7E6A",
"].	c #5A4A36",
"^.	c #96928E",
"/.	c #665A4E",
"(.	c #CAB69A",
"_.	c #666E72",
":.	c #1A120C",
"<.	c #A89682",
"[.	c #DAE6EA",
"}.	c #837A6F",
"|.	c #2E3234",
"1.	c #C6BEAE",
"2.	c #627E9E",
"3.	c #22221A",
"4.	c #7196B7",
"5.	c #565E62",
"6.	c #C6A682",
"7.	c #5E6672",
"8.	c #FEFEF6",
"9.	c #322A22",
"0.	c #4A3E2E",
"a.	c #FADEA6",
"b.	c #32322E",
"c.	c #363E4A",
"d.	c #736E67",
"e.	c #3E464A",
"f.	c #363232",
"g.	c #719ABD",
"h.	c #DABEA2",
"i.	c #252621",
"j.	c #83725A",
"k.	c #B6AAA2",
"l.	c #C6B6A4",
"m.	c #727272",
"n.	c #4A423E",
"o.	c #EEF2F6",
"p.	c #3A464E",
"q.	c #6E665E",
"r.	c #252628",
"s.	c #32383E",
"t.	c #42321E",
"u.	c #32261A",
"v.	c #DEEAF2",
"w.	c #060606",
"x.	c #564E3E",
"y.	c #4E4A3E",
"z.	c #E6D2AE",
"A.	c #EADECA",
"B.	c #C4C8CE",
"C.	c #F0D8B2",
"D.	c #68625E",
"E.	c #62666E",
"F.	c #465666",
"G.	c #2E2212",
"H.	c #463E36",
"I.	c #726A62",
"J.	c #766656",
"K.	c #948A7A",
"L.	c #3E3A30",
"M.	c #211A11",
"N.	c #CADAE6",
"O.	c #524A42",
"P.	c #EED2AA",
"Q.	c #A29686",
"R.	c #EAF2F5",
"S.	c #CABAA3",
"T.	c #6A8AAA",
"U.	c #66829E",
"V.	c #C6B29E",
"W.	c #242A2A",
"X.	c #D6C6B4",
"Y.	c #4A361A",
"Z.	c #EACEAA",
"`.	c #6686A6",
" +	c #443A30",
".+	c #AB9A86",
"++	c #FEFEFA",
"@+	c #665E56",
"#+	c #D7EAF5",
"$+	c #1E1A17",
"%+	c #2E2A1F",
"&+	c #4E4E46",
"*+	c #7A9EC2",
"=+	c #322E26",
"-+	c #E6C296",
";+	c #323E4A",
">+	c #769ABE",
",+	c #9A8A76",
"'+	c #3A362F",
")+	c #625E54",
"!+	c #485A6C",
"~+	c #5A4E3F",
"{+	c #36322A",
"]+	c #434243",
"^+	c #3B4A57",
"/+	c #4D6277",
"(+	c #B2AEAA",
"_+	c #729AC6",
":+	c #626A6E",
"<+	c #BAB4A8",
"[+	c #8A8074",
"}+	c #5A5A56",
"|+	c #4E463E",
"1+	c #4E5A66",
"2+	c #3A3226",
"3+	c #120E0B",
"4+	c #3F3E3A",
"5+	c #695E4F",
"6+	c #5F82A1",
"7+	c #76726A",
"8+	c #161616",
"9+	c #26221E",
"0+	c #56524E",
"a+	c #7096BE",
"b+	c #C8BAAA",
"c+	c #2A3A46",
"d+	c #6A6A66",
"e+	c #524A3A",
"f+	c #C0B2A0",
"g+	c #76A2CA",
"h+	c #6E5E46",
"i+	c #766A5A",
"j+	c #648AAE",
"k+	c #3E362C",
"l+	c #666A70",
"m+	c #362E27",
"n+	c #0E1216",
"o+	c #1E2222",
"p+	c #FEFEFE",
"q+	c #FAEEDE",
"r+	c #CEC2B2",
"s+	c #2E2A26",
"t+	c #2E261E",
"u+	c #0E0A06",
"v+	c #3E3226",
"w+	c #22221E",
"x+	c #625646",
"y+	c #FAFAFA",
"z+	c #F2E6CE",
"A+	c #363A3A",
"B+	c #3E5262",
"C+	c #E6DAC6",
"D+	c #BAAA92",
"E+	c #E2CEAE",
"F+	c #5A4E3A",
"G+	c #9A9692",
"                                                                ",
"                                                                ",
"                                                                ",
"                                                                ",
"  c :+:+:+E.- 7.l+d+l+_.d+ . . . .m.m.~.U                       ",
"  5.#+[.#+v.S ) ) R.o.o.( ( y+p+p+p+p+p+]+                      ",
"  &.N.[.v.v.) R.R.R.o.( =.p+p+p+p+p+p+p+]+.                     ",
"  c.n _.1 * 9 N S S o.( y+p+p+p+p+p+p+p+]+.                     ",
"  P F./+n g ; * B.N y+p+p+p+p+p+p+p+p+p+]+.                     ",
"  n+! R 4.4.T.f ;+m a + B '.8.++p+p+p+p+]+.                     ",
"  0 I g.*+>+E W ] I F.e.).C+A.i z+z+J J L.#. +:.. .             ",
"  c+@ 2 ^+# B+;+6+!+U.s.b.)+K l.S.;.X.;.m+l V.6.{ , !.H =+w.    ",
"  *./ / g.j+a+R `.R # W.u s+'+}+K @.4 4 f.} r+h.-+D [ a.| 8     ",
"  *./ / g+s a+^+2.] ^+> i.r.i.u 4+^.>.>.b.1.;.l h.Y Z.P.C.k+.   ",
"  & s _++.a+2 # !+r.! o+o+A+=+0+'+y.o O b.f+b+f+S.b E+z.C._ .   ",
"  & g.j+6+/+^+c w+U 6 |.u m ~+F+|+0.i+% 6 K.Z 4 p ` F y (.. .   ",
"  $.6+$.$ _ U U w+w+=+'+%+t.v+q ~ : ].5+s+Q ' }.{.Q..+,+I.. .   ",
"  0 > *.^+p.1+4+U r G X x+M t.v+'+' e A $+d.@+/.5+i+[+}.4+. .   ",
"  7 |.b.r.c U _ 8+w+M.:.9.5 M.G.T H.t.]+7 ~ h e+H @+d.@+w+.     ",
"    . . . . . . . V k.Z O.t+t+$+G.,.d.~+A J.h )+d+d+D.q u+.     ",
"                w.+ J d .+m+m+t+U #.j..+<.j.j.5+)+H H &+. .     ",
"                r...q+J l.d.X 2+%+ +-.D+,+% <.% k O.5 j . .     ",
"                L 7+Z C b+).G %+c 9.S.X.(+G+% {.Q 6 9+7 . .     ",
"                  . . . 8+$+:.$+9+r Y.h+q.0+D.n.2+3 =+3+.       ",
"                    . . . . . . . . u+_ $ u.< k+s+w+~+3+.       ",
"                              . . . . . . . . u+w m+}.w .       ",
"                                          . . . . . . . .       ",
"                                                    . . .       ",
"                                                                ",
"                                                                ",
"                                                                ",
"                                                                "};
