/* XPM */
static char * undo_xpm[] = {
"22 22 3 1",
" 	c None",
".	c #000084",
"+	c #848284",
"                      ",
"                      ",
"                      ",
"                      ",
"                      ",
"           ......+    ",
"  .      ..........   ",
"  ..   ....      ..+  ",
"  ... ...         ..  ",
"  ......          ..  ",
"  .....           ..  ",
"  ......          ..  ",
"  .......         ..  ",
"  ........       ..+  ",
"               +...   ",
"               ...    ",
"                      ",
"                      ",
"                      ",
"                      ",
"                      ",
"                      "};
