<?xml version="1.0" encoding="UTF-8" standalone="no"?>
<!-- Created with Inkscape (http://www.inkscape.org/) -->
<svg
   xmlns:dc="http://purl.org/dc/elements/1.1/"
   xmlns:cc="http://creativecommons.org/ns#"
   xmlns:rdf="http://www.w3.org/1999/02/22-rdf-syntax-ns#"
   xmlns:svg="http://www.w3.org/2000/svg"
   xmlns="http://www.w3.org/2000/svg"
   xmlns:sodipodi="http://sodipodi.sourceforge.net/DTD/sodipodi-0.dtd"
   xmlns:inkscape="http://www.inkscape.org/namespaces/inkscape"
   width="22"
   height="22"
   id="svg2"
   sodipodi:version="0.32"
   inkscape:version="0.46"
   version="1.0"
   sodipodi:docname="autocrop_tool.svg"
   inkscape:output_extension="org.inkscape.output.svg.inkscape">
  <defs
     id="defs4">
    <linearGradient
       id="linearGradient3169">
      <stop
         style="stop-color:#000000;stop-opacity:0;"
         offset="0"
         id="stop3171" />
      <stop
         id="stop3179"
         offset="0.18367347"
         style="stop-color:#000000;stop-opacity:0;" />
      <stop
         style="stop-color:#000000;stop-opacity:0.78504676;"
         offset="1"
         id="stop3173" />
    </linearGradient>
    <linearGradient
       id="linearGradient3159">
      <stop
         style="stop-color:#295c96;stop-opacity:1;"
         offset="0"
         id="stop3161" />
      <stop
         style="stop-color:#75cbd9;stop-opacity:1;"
         offset="1"
         id="stop3163" />
    </linearGradient>
    <inkscape:perspective
       sodipodi:type="inkscape:persp3d"
       inkscape:vp_x="0 : 526.18109 : 1"
       inkscape:vp_y="0 : 1000 : 0"
       inkscape:vp_z="744.09448 : 526.18109 : 1"
       inkscape:persp3d-origin="372.04724 : 350.78739 : 1"
       id="perspective10" />
  </defs>
  <sodipodi:namedview
     id="base"
     pagecolor="#ffffff"
     bordercolor="#666666"
     borderopacity="1.0"
     gridtolerance="10000"
     guidetolerance="10"
     objecttolerance="10"
     inkscape:pageopacity="0.0"
     inkscape:pageshadow="2"
     inkscape:zoom="1"
     inkscape:cx="1.2783603"
     inkscape:cy="21.806813"
     inkscape:document-units="px"
     inkscape:current-layer="layer1"
     showgrid="false"
     inkscape:window-width="1404"
     inkscape:window-height="790"
     inkscape:window-x="212"
     inkscape:window-y="46">
    <inkscape:grid
       type="xygrid"
       id="grid2383"
       visible="true"
       enabled="true"
       empspacing="2"
       spacingx="0.5px"
       spacingy="0.5px" />
  </sodipodi:namedview>
  <metadata
     id="metadata7">
    <rdf:RDF>
      <cc:Work
         rdf:about="">
        <dc:format>image/svg+xml</dc:format>
        <dc:type
           rdf:resource="http://purl.org/dc/dcmitype/StillImage" />
      </cc:Work>
    </rdf:RDF>
  </metadata>
  <g
     inkscape:label="Layer 1"
     inkscape:groupmode="layer"
     id="layer1">
    <path
       transform="matrix(0.5,0,0,0.5333333,-1.05e-7,1.9333338)"
       style="fill:#80b3ff;fill-opacity:1;fill-rule:evenodd;stroke:none;stroke-width:1;stroke-linecap:butt;stroke-linejoin:miter;stroke-miterlimit:1;stroke-dashoffset:0;stroke-opacity:1;marker:none;marker-start:none;marker-mid:none;marker-end:none;visibility:visible;display:inline;overflow:visible"
       d="M 8.0000002,3.8749994 L 38,5.7499995 L 36,30.125001 L 6.0000002,28.250001 L 8.0000002,3.8749994 z"
       id="rect2385"
       sodipodi:nodetypes="ccccc" />
    <path
       style="fill:#165016;fill-opacity:1;fill-rule:evenodd;stroke:none;stroke-width:1px;stroke-linecap:butt;stroke-linejoin:miter;stroke-opacity:1"
       d="M 3.5,10.5 C 9.5,14.232028 12.5,8.5 18.5,11.5 L 18,18 L 3,17 L 3.5,10.5 z"
       id="path2387"
       sodipodi:nodetypes="ccccc" />
    <path
       id="rect2753"
       style="opacity:0.32211538;fill:#1a1a1a;fill-opacity:1;fill-rule:evenodd;stroke:#000000;stroke-width:0;stroke-linecap:butt;stroke-linejoin:miter;stroke-miterlimit:4;stroke-dashoffset:0;stroke-opacity:1;marker:none;marker-start:none;marker-mid:none;marker-end:none;visibility:visible;display:inline;overflow:visible"
       d="M 0,1 L 22,1 L 22,21 L 0,21 L 0,1 z M 4.5,5.5 L 17.5,5.5 L 17.5,16.5 L 4.5,16.5 L 4.5,5.5 z"
       sodipodi:nodetypes="cccccccccc" />
    <path
       style="opacity:0.45192308;fill:#ffffff;fill-opacity:1;fill-rule:evenodd;stroke:none;stroke-width:1px;stroke-linecap:butt;stroke-linejoin:miter;stroke-opacity:1"
       d="M 7,5.5 L 7,8 L 4.5,8 L 4.5,14 L 7,14 L 7,16.5 L 15,16.5 L 15,14 L 17.5,14 L 17.5,8 L 15,8 L 15,5.5 L 7,5.5 z M 7,8 L 15,8 L 15,14 L 7,14 L 7,8 z"
       id="path3532"
       sodipodi:nodetypes="cccccccccccccccccc" />
    <rect
       style="opacity:1;fill:none;fill-opacity:1;fill-rule:evenodd;stroke:#ffffff;stroke-width:0.45747283;stroke-linecap:butt;stroke-linejoin:miter;marker:none;marker-start:none;marker-mid:none;marker-end:none;stroke-miterlimit:4;stroke-dasharray:none;stroke-dashoffset:0;stroke-opacity:1;visibility:visible;display:inline;overflow:visible"
       id="rect3530"
       width="12.076884"
       height="9.9122381"
       x="4.9621692"
       y="6.0450559"
       transform="matrix(1.0764366,0,0,1.1097393,-0.8414607,-1.208436)" />
    <path
       style="fill:#ffffff;fill-opacity:1;fill-rule:evenodd;stroke:none;stroke-width:1px;stroke-linecap:butt;stroke-linejoin:miter;stroke-opacity:1"
       d="M 0.5,19 L 2,20.5 L 4,18.5 L 5,19.5 L 5,16 L 1.5,16 L 2.5,17 L 0.5,19 z"
       id="path3182"
       sodipodi:nodetypes="cccccccc" />
    <path
       style="fill:#ffffff;fill-opacity:1;fill-rule:evenodd;stroke:none;stroke-width:1px;stroke-linecap:butt;stroke-linejoin:miter;stroke-opacity:1"
       d="M 20,20.5 L 21.5,19 L 19.5,17 L 20.5,16 L 17,16 L 17,19.5 L 18,18.5 L 20,20.5 z"
       id="path3184"
       sodipodi:nodetypes="cccccccc" />
    <path
       style="fill:#ffffff;fill-opacity:1;fill-rule:evenodd;stroke:none;stroke-width:1px;stroke-linecap:butt;stroke-linejoin:miter;stroke-opacity:1"
       d="M 2,1.4999999 L 0.50000005,3 L 2.5,5 L 1.5,6 L 5,6 L 5,2.5 L 4,3.5 L 2,1.4999999 z"
       id="path3186"
       sodipodi:nodetypes="cccccccc" />
    <path
       style="fill:#ffffff;fill-opacity:1;fill-rule:evenodd;stroke:none;stroke-width:1px;stroke-linecap:butt;stroke-linejoin:miter;stroke-opacity:1"
       d="M 21.5,3 L 20,1.5 L 18,3.5 L 17,2.5 L 17,6 L 20.5,6 L 19.5,5 L 21.5,3 z"
       id="path3188"
       sodipodi:nodetypes="cccccccc" />
  </g>
</svg>
