<?xml version="1.0" encoding="UTF-8" standalone="no"?>
<!-- Created with Inkscape (http://www.inkscape.org/) -->
<svg
   xmlns:dc="http://purl.org/dc/elements/1.1/"
   xmlns:cc="http://creativecommons.org/ns#"
   xmlns:rdf="http://www.w3.org/1999/02/22-rdf-syntax-ns#"
   xmlns:svg="http://www.w3.org/2000/svg"
   xmlns="http://www.w3.org/2000/svg"
   xmlns:sodipodi="http://sodipodi.sourceforge.net/DTD/sodipodi-0.dtd"
   xmlns:inkscape="http://www.inkscape.org/namespaces/inkscape"
   width="22"
   height="22"
   id="svg2"
   sodipodi:version="0.32"
   inkscape:version="0.46"
   sodipodi:docname="info.svg"
   inkscape:output_extension="org.inkscape.output.svg.inkscape"
   version="1.0"
   inkscape:export-filename="info.png"
   inkscape:export-xdpi="90"
   inkscape:export-ydpi="90">
  <defs
     id="defs4">
    <inkscape:perspective
       sodipodi:type="inkscape:persp3d"
       inkscape:vp_x="0 : 526.18109 : 1"
       inkscape:vp_y="0 : 1000 : 0"
       inkscape:vp_z="744.09448 : 526.18109 : 1"
       inkscape:persp3d-origin="372.04724 : 350.78739 : 1"
       id="perspective10" />
    <inkscape:perspective
       id="perspective2578"
       inkscape:persp3d-origin="0.5 : 0.33333333 : 1"
       inkscape:vp_z="1 : 0.5 : 1"
       inkscape:vp_y="0 : 1000 : 0"
       inkscape:vp_x="0 : 0.5 : 1"
       sodipodi:type="inkscape:persp3d" />
  </defs>
  <sodipodi:namedview
     id="base"
     pagecolor="#ffffff"
     bordercolor="#666666"
     borderopacity="1.0"
     gridtolerance="10000"
     guidetolerance="10"
     objecttolerance="10"
     inkscape:pageopacity="0.0"
     inkscape:pageshadow="2"
     inkscape:zoom="22.4"
     inkscape:cx="2.6003842"
     inkscape:cy="6.5535166"
     inkscape:document-units="px"
     inkscape:current-layer="layer1"
     showgrid="true"
     inkscape:window-width="1400"
     inkscape:window-height="1003"
     inkscape:window-x="0"
     inkscape:window-y="20">
    <inkscape:grid
       type="xygrid"
       id="grid2388" />
  </sodipodi:namedview>
  <metadata
     id="metadata7">
    <rdf:RDF>
      <cc:Work
         rdf:about="">
        <dc:format>image/svg+xml</dc:format>
        <dc:type
           rdf:resource="http://purl.org/dc/dcmitype/StillImage" />
        <dc:title />
      </cc:Work>
    </rdf:RDF>
  </metadata>
  <g
     inkscape:label="Layer 1"
     inkscape:groupmode="layer"
     id="layer1"
     style="display:inline">
    <rect
       style="opacity:1;fill:#f5f5f5;fill-opacity:1;stroke:none;stroke-width:4;stroke-linecap:round;stroke-linejoin:round;stroke-miterlimit:5.69999980999999960;stroke-dasharray:none;stroke-opacity:1"
       id="rect2390"
       width="22"
       height="22"
       x="0"
       y="0" />
    <path
       id="path2511"
       style="fill:#76cdf1;fill-opacity:1"
       d="M 1.8649629,10.439839 C 1.7845856,10.309785 2.2877077,9.9106233 2.4523677,9.9738096 C 2.5351298,10.005568 2.5411141,10.34798 2.460319,10.428775 C 2.390908,10.498186 1.9065861,10.507186 1.8649629,10.439839 z M 1.6459938,9.6424573 C 1.6459938,9.5623883 1.7189481,9.4626897 1.8753887,9.3289683 C 2.0594398,9.171646 2.0927544,9.1208587 2.0439274,9.0720317 C 2.0104567,9.038561 1.9071872,9.0177133 1.8144394,9.0257039 C 1.6951412,9.0359823 1.6371157,9.0175824 1.6160974,8.9628094 C 1.5787969,8.8656051 1.7764589,8.5704442 1.9238183,8.5033026 C 1.9842907,8.4757498 2.0337677,8.4296392 2.0337677,8.4008348 C 2.0337677,8.3720305 2.0151516,8.3599688 1.992399,8.3740304 C 1.9383996,8.4074042 1.6459938,8.2968082 1.6459938,8.2430108 C 1.6459938,8.2202141 1.7518745,8.0905682 1.8812843,7.9549089 C 2.0344512,7.7943453 2.1424593,7.7181884 2.1907347,7.7367134 C 2.2709763,7.767505 2.3744411,8.2379543 2.399423,8.6856073 C 2.4073636,8.8279004 2.4264949,8.9569564 2.4419371,8.972398 C 2.4877501,9.0182111 2.4738799,9.4525542 2.4222692,9.5883008 C 2.35984,9.7525017 2.2318145,9.8004776 2.150999,9.6899557 C 2.0926265,9.6101262 2.0777481,9.6095901 1.9324385,9.68208 C 1.7164998,9.7898046 1.6459938,9.7800516 1.6459938,9.6424573 z M 20.170944,7.8112144 C 20.179794,7.750235 20.300812,7.6158059 20.45328,7.4975892 C 20.692182,7.3123554 20.756192,7.2873372 21.064521,7.2586807 C 21.6526,7.2040245 21.598111,7.3704163 20.91351,7.7198224 C 20.456015,7.9533176 20.144761,7.9916257 20.170944,7.8112144 z M 9.5554889,7.7846417 C 9.5641295,7.7379877 9.642072,7.6686144 9.7286939,7.6304788 C 9.8246723,7.5882246 9.8861893,7.5260983 9.8861893,7.4714246 C 9.8861893,7.3622188 10.026674,7.2983442 10.079362,7.3835948 C 10.140614,7.4827016 10.39174,7.3761534 10.411271,7.2427718 C 10.425021,7.1488767 10.446478,7.1378164 10.556687,7.1678161 C 10.627794,7.1871723 10.797641,7.2000643 10.934124,7.1964648 C 11.110087,7.1918246 11.201283,7.212825 11.247618,7.2686552 C 11.303851,7.3364124 11.296894,7.3603996 11.197717,7.4407086 C 11.134333,7.4920343 11.047791,7.5536123 11.005402,7.5775496 C 10.943691,7.6123979 10.940406,7.6332645 10.988921,7.6822558 C 11.081819,7.7760666 11.062913,7.8103492 10.898347,7.8464941 C 10.807473,7.8664533 10.702379,7.8557173 10.634848,7.8195758 C 10.548207,7.7732063 10.472551,7.7720367 10.304067,7.8144615 C 10.183921,7.8447147 9.9628051,7.8694673 9.8126993,7.8694673 C 9.5791048,7.8694673 9.5420423,7.8572446 9.5554889,7.7846417 z M 8.1412067,7.7603967 C 8.1412067,7.720216 8.2023485,7.6620155 8.2770778,7.6310619 C 8.3518067,7.6001079 8.4735837,7.5185585 8.5476926,7.4498406 C 8.668426,7.3378903 8.7300016,7.3228243 9.1398796,7.304947 C 9.5197628,7.2883774 9.6021846,7.2976651 9.6259993,7.3597254 C 9.6640888,7.4589858 9.559736,7.5786368 9.4350764,7.5786368 C 9.3801089,7.5786368 9.2371018,7.6260941 9.1172831,7.6840978 C 8.8357258,7.8203969 8.1412067,7.8746867 8.1412067,7.7603967 z M 12.851843,7.6212949 C 12.883084,7.5225313 13.472836,7.2417234 13.651711,7.2404413 C 13.736619,7.2398325 13.866641,7.2163125 13.94065,7.1881747 C 14.120789,7.1196856 14.297117,7.1679799 14.297117,7.285807 C 14.297117,7.3602663 14.217062,7.4032617 13.897226,7.500577 C 13.394898,7.6534181 12.820709,7.719724 12.851843,7.6212949 z M 14.403247,7.4783697 C 14.439744,7.3688807 15.094694,7.137005 15.448321,7.1083766 C 15.666936,7.0906782 15.799741,7.0980497 15.799741,7.1278822 C 15.799741,7.2202203 15.627995,7.3246285 15.387732,7.3783531 C 14.679311,7.5367602 14.373426,7.5678359 14.403247,7.4783697 z M 1.5611683,7.4016753 C 1.4760834,7.3665628 1.4856798,7.1642146 1.5767485,7.0731459 C 1.6780409,6.9718536 1.7011968,6.975344 1.9324744,7.1267654 C 2.1268751,7.2540434 2.1669656,7.3096933 2.0943574,7.3514774 C 2.0289884,7.3890954 1.623248,7.427294 1.5611683,7.4016753 z M 5.3904356,7.4037227 C 5.2592643,7.3451587 5.3314067,7.1987551 5.5415695,7.0970173 C 5.7842965,6.979515 6.3647597,6.906851 6.4147345,6.9877121 C 6.5295999,7.1735677 5.6631356,7.525475 5.3904356,7.4037227 z M 16.255371,7.2314847 C 16.213371,7.1635263 16.372566,7.0276489 16.671904,6.8759629 C 16.944339,6.7379101 17.56896,6.6859566 17.56896,6.8013499 C 17.56896,6.8807199 17.089441,7.1400267 16.938827,7.1421038 C 16.885508,7.1428391 16.734809,7.175923 16.603939,7.2156233 C 16.317594,7.3024895 16.299756,7.3033009 16.255371,7.2314847 z M 4.4210008,7.2042702 C 4.1152963,7.1663328 4.2940766,6.8375277 4.6088811,6.8587288 C 4.6990022,6.8647979 4.8157275,6.8457054 4.8682709,6.8163005 C 4.9752417,6.7564369 5.1371334,6.8158279 5.1341926,6.9138557 C 5.1314806,7.0042589 4.7938721,7.2403172 4.67979,7.2315773 C 4.6240993,7.2273108 4.507644,7.2150227 4.4210008,7.2042702 z M 20.392438,7.1829834 C 20.095168,7.0744411 20.340939,6.8216634 20.81559,6.7477668 C 21.091282,6.704846 21.154687,6.7084262 21.216676,6.7704152 C 21.306982,6.8607214 21.263238,6.996976 21.143939,6.996976 C 21.095715,6.996976 21.013234,7.0263038 20.960649,7.0621487 C 20.908063,7.0979935 20.821413,7.1391431 20.768094,7.1535925 C 20.714776,7.168042 20.638433,7.1915168 20.598443,7.2057593 C 20.558454,7.2200012 20.465752,7.2097524 20.392438,7.1829834 z M 17.787083,6.9570256 C 17.787083,6.9292721 17.829404,6.893133 17.88113,6.8767157 C 17.943265,6.8569949 17.980272,6.7943428 17.990191,6.6920771 C 18.006202,6.52701 18.153419,6.4476157 18.225932,6.5649425 C 18.256238,6.6139795 18.303691,6.6154152 18.449863,6.5717174 C 18.892117,6.4395054 19.241235,6.4555215 19.241235,6.6080213 C 19.241235,6.6543487 18.503539,6.8818469 18.223328,6.9219345 C 18.103361,6.9390973 17.956128,6.9653676 17.896144,6.9803124 C 17.835484,6.9954259 17.787083,6.9850912 17.787083,6.9570256 z M 2.7971976,6.8943293 C 2.6333214,6.8318173 2.6292348,6.7795657 2.7804729,6.6804706 C 2.9439046,6.5733863 3.4561393,6.5987288 3.4782551,6.7149931 C 3.5080298,6.8715214 3.0521201,6.9915719 2.7971976,6.8943293 z M 20.588808,6.4862322 C 20.507532,6.3078504 20.603659,6.2367055 21.023015,6.1648723 C 21.339657,6.1106329 21.383153,6.1128733 21.45753,6.1872498 C 21.530004,6.2597238 21.531441,6.2783258 21.469204,6.3383313 C 21.410265,6.3951567 20.784259,6.6092021 20.677004,6.6092021 C 20.659312,6.6092021 20.619624,6.5538658 20.588808,6.4862322 z M 6.1781013,10.76743 C 6.0981229,10.740755 5.9647229,10.686686 5.8816569,10.647277 C 5.7473892,10.583576 5.7055101,10.584152 5.5043068,10.652462 C 5.3798304,10.694723 5.1721959,10.7293 5.0428961,10.7293 C 4.8456215,10.7293 4.7950344,10.709808 4.7284066,10.60812 C 4.6320783,10.461105 4.5167843,10.455146 4.2954391,10.585743 C 4.152923,10.66983 4.0803783,10.679668 3.808366,10.6518 C 3.6325774,10.63379 3.46408,10.589328 3.4339281,10.552997 C 3.4037758,10.516666 3.2979087,10.486941 3.1986667,10.486941 C 2.9236245,10.486941 2.8577873,10.381324 2.8577873,9.940098 C 2.8577873,9.736841 2.8838369,9.5133664 2.9156756,9.4434881 C 2.9610408,9.3439228 2.9604005,9.295358 2.9127164,9.2190033 C 2.8780295,9.163461 2.855463,8.9930741 2.8602293,8.8227028 C 2.8656532,8.6288265 2.8349968,8.430182 2.7729632,8.2572412 C 2.7203684,8.1106142 2.6510451,7.851413 2.6189122,7.6812384 C 2.5472846,7.3019073 2.5923967,7.2246666 2.8103703,7.3534265 C 2.8931236,7.4023102 2.9967354,7.4264225 3.0505889,7.4093304 C 3.1026733,7.3927991 3.2278331,7.4043921 3.3287217,7.4350926 C 3.4296103,7.4657927 3.5994048,7.5090043 3.7060427,7.5311181 C 3.8126805,7.5532318 3.9871787,7.5966014 4.0938166,7.6274944 C 4.2004544,7.6583874 4.3858588,7.7008743 4.5058263,7.7219101 C 4.6257939,7.7429454 4.7948119,7.7868758 4.8814217,7.8195327 L 5.0388938,7.8789086 L 4.9374856,8.0213234 C 4.8326911,8.1684938 4.8415687,8.3057129 4.9558845,8.3057129 C 4.9918137,8.3057129 5.1472722,8.2824092 5.3013469,8.2539272 C 5.5436508,8.2091344 5.5937188,8.2132148 5.6720888,8.2841381 C 5.7312147,8.3376466 5.8094175,8.3572035 5.8971746,8.3404279 C 6.0665693,8.3080459 6.2023372,8.3783483 6.2023372,8.4984448 C 6.2023372,8.5492524 6.2227123,8.6034147 6.2476151,8.6188054 C 6.2968997,8.6492651 6.6585953,8.4800003 6.797874,8.3612979 C 6.9869729,8.2001357 7.9476571,8.1501831 8.1057894,8.2932911 C 8.1816937,8.3619838 8.222662,8.3640583 8.4339435,8.3099086 C 8.5747554,8.2738195 8.9226128,8.2508424 9.2686588,8.2547725 C 9.5949711,8.2584782 10.020092,8.2478541 10.213373,8.2311624 C 10.406655,8.2144712 10.564794,8.215824 10.564794,8.2341696 C 10.564794,8.2525152 10.508634,8.3117001 10.439994,8.3656918 C 10.371355,8.419684 10.295361,8.5160284 10.271118,8.579791 C 10.235464,8.6735664 10.203733,8.6898728 10.105087,8.6651139 C 10.010533,8.6413826 9.9831327,8.6530633 9.9831327,8.7171032 C 9.9831327,8.7625319 9.9381287,8.8629028 9.8831244,8.9401498 C 9.8281196,9.0173968 9.7965815,9.1023876 9.8130401,9.129018 C 9.8459393,9.1822501 9.7838315,9.3219006 9.7334141,9.3080585 C 9.7160365,9.303287 9.6220769,9.3719467 9.5246153,9.4606345 C 9.3805011,9.5917752 9.350197,9.6506068 9.3623242,9.7757008 C 9.3758308,9.9150241 9.3928769,9.9297609 9.543244,9.9321152 C 9.7284385,9.9350153 9.8234203,10.037138 9.7701164,10.176046 C 9.7447356,10.242187 9.7256019,10.24999 9.6980622,10.20543 C 9.6694198,10.159086 9.6328362,10.166548 9.5431364,10.237032 C 9.4785507,10.287782 9.2834064,10.426688 9.1094825,10.545713 C 8.8212395,10.742972 8.7604603,10.764602 8.4226254,10.790152 C 8.097586,10.814735 8.0416501,10.806753 7.9679081,10.725269 C 7.9216612,10.674167 7.8490321,10.631583 7.8065098,10.630638 C 7.763988,10.629694 7.6748625,10.598848 7.6084533,10.562092 C 7.5077053,10.506329 7.4675697,10.505883 7.3660946,10.559396 C 6.8911821,10.809844 6.506984,10.877123 6.1781013,10.76743 z M 13.54185,9.8524378 C 13.495772,9.8015226 13.410558,9.7598651 13.352485,9.7598651 C 13.181265,9.7598651 13.175777,9.7073474 13.328786,9.5330803 C 13.408157,9.442681 13.473098,9.3518334 13.473098,9.331197 C 13.473098,9.2364231 13.332134,9.1182272 13.179899,9.0853546 L 13.012616,9.049233 L 13.24165,8.9077135 C 13.367619,8.829878 13.483463,8.728466 13.499081,8.6823533 C 13.514699,8.6362412 13.550687,8.6035228 13.579054,8.6096457 C 13.687594,8.633075 13.667383,8.5020957 13.550658,8.4256145 C 13.448233,8.3585035 13.400387,8.354666 13.256818,8.4020481 C 13.162496,8.4331771 13.085324,8.4787672 13.085324,8.5033588 C 13.085324,8.56352 12.808018,8.560697 12.770601,8.5001549 C 12.753233,8.4720539 12.777107,8.4639222 12.82833,8.4804918 C 12.897099,8.5027365 12.901072,8.4983726 12.847011,8.4599694 C 12.803857,8.4293134 12.735302,8.4275602 12.662472,8.4552502 C 12.442073,8.5390462 12.601411,8.4036854 12.907086,8.247447 C 13.348347,8.0219065 13.816032,7.956934 14.399246,8.0401503 C 14.582619,8.0663149 14.665795,8.0501016 14.864345,7.9494883 C 15.070654,7.8449444 15.193907,7.8229276 15.70424,7.7994595 C 16.085853,7.7819103 16.338954,7.7479661 16.403491,7.7056803 C 16.521239,7.6285288 16.768913,7.5890684 17.375073,7.5508843 C 17.672113,7.5321728 17.904122,7.485971 18.102149,7.4060964 C 18.346596,7.3074976 19.188015,7.0939195 19.332012,7.0939195 C 19.355844,7.0939195 19.387492,7.1403772 19.402341,7.1971584 C 19.420614,7.2670353 19.453769,7.290531 19.504937,7.2698661 C 19.546517,7.253074 19.613255,7.2260946 19.653244,7.2099128 C 19.769161,7.1630062 19.737888,7.2786297 19.582245,7.4724178 C 19.503206,7.5708276 19.420552,7.738025 19.398569,7.8439677 C 19.362299,8.0187641 19.327374,8.0539609 19.021205,8.2242692 C 18.835637,8.3274917 18.596561,8.468353 18.489923,8.5372934 C 18.234758,8.7022558 17.4874,9.0805608 17.4159,9.0809529 C 17.385036,9.0811221 17.245606,9.140498 17.106056,9.2128993 C 16.91567,9.311675 16.777405,9.3457584 16.552216,9.3494243 C 16.290649,9.353683 16.202821,9.3822547 15.868389,9.5718849 C 15.240023,9.9281832 15.125481,9.9664303 14.775813,9.9367098 C 14.388985,9.903831 14.438442,9.9044829 13.997726,9.9264571 C 13.678579,9.9423704 13.613705,9.931837 13.54185,9.8524378 z" />
    <path
       id="path2557"
       style="fill:#9cd1a2;fill-opacity:1"
       d="M 3.3788584,13.795512 C 3.252226,13.78572 3.1486177,13.77066 3.1486177,13.762047 C 3.1486177,13.753434 3.1828281,13.664509 3.2246408,13.564437 C 3.3194103,13.337623 3.2664593,13.264636 3.0594845,13.336788 C 2.8528451,13.408822 1.9020322,13.366724 1.6270491,13.273365 C 1.3493671,13.17909 1.2554827,13.205677 0.98470503,13.455271 C 0.82382781,13.603563 0.7586372,13.637137 0.70998418,13.596759 C 0.67359015,13.566554 0.56981313,13.556212 0.46834821,13.572678 C 0.2454165,13.608855 0.1773268,13.494369 0.32531926,13.332189 C 0.378818,13.273562 0.46648786,13.1245 0.52014171,13.000939 C 0.58961238,12.840955 0.70911799,12.703022 0.93528809,12.521781 C 1.1099647,12.381804 1.2643046,12.23751 1.2782654,12.201129 C 1.2922267,12.164747 1.3466711,12.13498 1.3992533,12.13498 C 1.4518354,12.13498 1.5091697,12.111822 1.5266622,12.083519 C 1.5441552,12.055215 1.6112706,12.011981 1.6758073,11.987444 C 1.7403445,11.962907 1.8120652,11.893363 1.8351872,11.832901 C 1.8583092,11.772439 1.9238866,11.680937 1.9809151,11.629563 C 2.0833989,11.53724 2.0861371,11.537315 2.2167185,11.635991 C 2.3308011,11.722199 2.3467735,11.764721 2.333737,11.947521 C 2.3254338,12.063953 2.2740833,12.287038 2.2196248,12.443264 C 2.1315599,12.695898 2.1286599,12.735363 2.1934011,12.800105 C 2.2563252,12.863029 2.3210762,12.8648 2.6710518,12.813168 C 2.8937237,12.780317 3.1522531,12.74598 3.2455612,12.736863 C 3.3388693,12.727746 3.5569921,12.698328 3.7302785,12.671491 C 3.903565,12.644653 4.2198431,12.600141 4.4331187,12.572576 C 4.6463944,12.545011 4.9517663,12.50316 5.1117231,12.479575 C 5.665184,12.397971 6.1806805,12.327627 6.783998,12.251381 C 7.7892733,12.124335 8.0959821,12.091126 8.5774523,12.057194 C 8.8307172,12.039345 9.0745959,12.00596 9.1194056,11.983006 C 9.1971543,11.943179 9.9311861,11.89406 10.710209,11.876555 C 10.995069,11.870153 11.073747,11.883219 11.073747,11.936927 C 11.073747,12.086939 10.499261,12.26717 9.9831327,12.27908 C 9.9431436,12.280003 9.8340821,12.328954 9.740774,12.387861 C 9.5553944,12.504894 9.0626743,12.550042 8.9006575,12.464841 C 8.8330448,12.429285 8.7667703,12.449383 8.622929,12.549066 C 8.4967387,12.636515 8.3983003,12.670654 8.3264817,12.651873 C 8.2673442,12.636408 8.1905781,12.647309 8.1558907,12.676097 C 8.1105706,12.713709 8.0543715,12.712512 7.9561857,12.671842 C 7.6583594,12.548478 7.2029863,12.765679 6.8045636,13.221137 L 6.592968,13.463022 L 6.2587239,13.476471 C 5.9768559,13.487814 5.9108926,13.474908 5.837773,13.394112 C 5.7827246,13.333284 5.6888353,13.298302 5.5806265,13.298302 C 5.4868846,13.298302 5.3736891,13.265272 5.329081,13.224902 C 5.2559464,13.158716 5.2306587,13.164671 5.0717843,13.285492 C 4.4653655,13.746662 4.4624882,13.748065 4.0985702,13.760114 C 3.9093394,13.766378 3.721796,13.780912 3.6818068,13.792411 C 3.6418176,13.803909 3.5054909,13.805305 3.3788584,13.795512 z M 13.028846,12.656051 C 12.760745,12.293383 12.727443,12.028216 12.921094,11.798075 L 13.047694,11.647619 L 13.926883,11.671871 C 15.67753,11.720162 16.407474,11.759087 16.502373,11.809212 C 16.555577,11.837315 16.793634,11.868724 17.031388,11.879011 C 17.269143,11.889298 17.506988,11.920898 17.559934,11.949234 C 17.648614,11.996694 17.629849,12.024958 17.321749,12.307982 C 17.00943,12.594881 16.971852,12.615359 16.753872,12.617454 C 16.411568,12.620744 16.33293,12.56252 16.33293,12.305786 C 16.33293,12.18833 16.313162,12.080012 16.289001,12.06508 C 16.26484,12.050147 16.073983,12.070669 15.864873,12.110683 C 15.655764,12.150697 15.390889,12.183439 15.276263,12.183444 C 15.161637,12.183448 15.001905,12.217554 14.921305,12.259234 C 14.827327,12.307832 14.722698,12.323581 14.629626,12.303139 C 14.524949,12.280148 14.457888,12.29534 14.389049,12.357639 C 14.306153,12.432659 14.271882,12.43616 14.128382,12.38427 C 13.980906,12.330942 13.938145,12.337258 13.730247,12.443078 C 13.602145,12.508281 13.444454,12.61832 13.379823,12.687607 C 13.226809,12.851646 13.169639,12.846506 13.028846,12.656051 z M 18.432619,12.673369 C 18.406632,12.573995 18.234426,12.522754 17.926439,12.522754 C 17.699896,12.522754 17.683263,12.446471 17.871908,12.272662 C 18.108346,12.054818 18.240743,11.989565 18.446301,11.989565 C 18.686633,11.989565 18.788927,12.080795 18.711278,12.225884 C 18.635384,12.367694 18.71636,12.387362 18.929248,12.278825 C 19.164046,12.159118 19.296413,12.158329 19.441449,12.275772 L 19.555459,12.368091 L 19.458936,12.47594 C 19.226104,12.736094 18.486241,12.878419 18.432619,12.673369 z M 2.4474265,12.573894 C 2.4318569,12.548702 2.4536217,12.379656 2.495793,12.198238 C 2.5379644,12.016819 2.5876513,11.802949 2.6062083,11.72297 C 2.6329147,11.60787 2.6952736,11.550593 2.9053288,11.448223 C 3.1457084,11.331075 3.1850335,11.324875 3.3227539,11.382418 C 3.4117247,11.419593 3.566018,11.435665 3.6946916,11.421162 C 3.8832025,11.399914 3.9224297,11.411034 3.9695525,11.499084 C 4.0380707,11.627112 4.2728862,11.636027 4.5591913,11.52147 C 4.726192,11.45465 4.7871733,11.450999 4.9219964,11.499752 C 5.0151111,11.533423 5.1575449,11.544569 5.2567849,11.525952 C 5.3974926,11.499555 5.4642614,11.517632 5.6169886,11.623472 C 5.808816,11.756408 6.0145465,11.787559 6.2664241,11.721806 C 6.3515031,11.699596 6.4475189,11.709805 6.520401,11.74881 C 6.6167182,11.800358 6.6729173,11.799863 6.8360247,11.746033 C 6.984179,11.697137 7.0691805,11.693645 7.1714574,11.73225 C 7.2823893,11.774122 7.3338857,11.767273 7.4421604,11.696246 C 7.5708417,11.611832 7.8060086,11.57677 8.6016882,11.523363 C 8.9879323,11.497439 10.104493,11.484617 10.395143,11.502769 C 10.50178,11.509429 10.733277,11.498968 10.909581,11.479523 C 11.12257,11.456032 11.240946,11.461665 11.262358,11.496312 C 11.315501,11.582298 11.097871,11.662858 10.879064,11.638195 C 10.766466,11.625504 10.643811,11.632205 10.606497,11.653087 C 10.569183,11.673969 10.331866,11.703274 10.079124,11.718211 C 9.8263829,11.733147 9.4996272,11.767413 9.3530001,11.794358 C 9.2063731,11.821303 9.0209687,11.842387 8.9409904,11.841211 C 8.6881026,11.837492 7.2233987,12.0063 6.3465765,12.14022 C 6.1726429,12.166784 5.8634412,12.195995 5.6594605,12.205132 C 5.4554803,12.214269 5.2678825,12.234541 5.2425769,12.25018 C 5.2172717,12.26582 4.9811664,12.302062 4.7178994,12.330719 C 4.4546324,12.359376 4.1591904,12.403769 4.0613618,12.429371 C 3.9635333,12.454972 3.7345043,12.484578 3.5524086,12.495161 C 3.3703129,12.505743 3.1451263,12.538093 3.0519941,12.56705 C 2.8435603,12.631855 2.4857516,12.635906 2.4474265,12.573894 z M 19.576747,11.966005 C 19.484386,11.901448 19.271266,11.825113 19.095819,11.793748 C 18.922533,11.762768 18.689071,11.696777 18.577015,11.647102 C 18.414294,11.574965 18.343942,11.567008 18.227566,11.607577 C 18.147424,11.635514 17.922828,11.647276 17.728463,11.633713 C 16.981114,11.581562 15.268029,11.503506 14.781835,11.499451 C 14.501911,11.497116 14.099257,11.477844 13.88705,11.456624 C 13.662026,11.434122 13.451665,11.436882 13.382322,11.463245 C 13.213782,11.527324 13.144763,11.439671 13.285912,11.340806 C 13.347409,11.297732 13.42559,11.262489 13.459647,11.262489 C 13.493705,11.262489 13.564275,11.219783 13.616471,11.167588 C 13.69437,11.089688 13.753784,11.077709 13.948098,11.100722 C 14.146732,11.124248 14.223106,11.107601 14.422739,10.997271 C 14.553593,10.924953 14.681377,10.845981 14.706704,10.821778 C 14.769115,10.762134 14.946058,10.766334 15.087584,10.830818 C 15.220469,10.891364 15.40386,10.809438 15.822164,10.502659 C 15.954464,10.405631 16.188522,10.27694 16.342294,10.216677 C 16.496066,10.156414 16.682286,10.064725 16.756117,10.012922 C 16.939242,9.884436 17.232009,9.794858 17.348245,9.83175 C 17.451409,9.864493 17.607486,9.7987 17.762847,9.656976 C 17.816166,9.608337 17.935676,9.49921 18.028426,9.414471 C 18.121175,9.329732 18.295673,9.214115 18.4162,9.157544 C 18.536726,9.100972 18.700775,8.993033 18.780753,8.917679 C 18.960902,8.747946 19.1798,8.631282 19.24385,8.670867 C 19.271679,8.688066 19.279942,8.796582 19.263378,8.927325 C 19.247062,9.056109 19.26805,9.342329 19.311986,9.590214 C 19.354512,9.830149 19.412656,10.22277 19.441195,10.462705 C 19.470966,10.713009 19.523872,10.93358 19.565318,10.980195 C 19.605047,11.02488 19.64968,11.199378 19.664503,11.367969 C 19.679326,11.53656 19.721029,11.717524 19.757175,11.77011 C 19.830875,11.87733 19.843549,12.019551 19.782752,12.057125 C 19.760673,12.070771 19.667971,12.029766 19.576747,11.966005 z M 20.092238,11.784893 C 20.050738,11.725642 20.016771,11.63294 20.016758,11.578888 C 20.016745,11.524836 19.97092,11.360644 19.914925,11.214017 C 19.83925,11.015854 19.820265,10.88615 19.840961,10.708713 C 19.862927,10.520398 19.848224,10.436701 19.771313,10.312257 C 19.665668,10.141319 19.515622,9.41538 19.522948,9.110639 C 19.529284,8.84705 19.768208,8.397009 19.895603,8.408699 C 20.050145,8.422881 20.260719,8.349706 20.473673,8.207821 C 20.720228,8.04355 21.203015,7.9742971 21.350392,8.082062 C 21.442136,8.149146 21.439854,8.154734 21.285593,8.240771 C 20.777513,8.524148 20.721918,8.596543 21.012384,8.596543 C 21.214335,8.596543 21.567878,8.763499 21.567878,8.858868 C 21.567878,8.895425 21.513623,8.938953 21.447312,8.955596 C 21.381001,8.97224 21.291243,9.040041 21.24785,9.106266 C 21.204458,9.172491 21.142547,9.226676 21.110271,9.226676 C 21.077995,9.226676 21.002955,9.278443 20.943516,9.341713 C 20.841296,9.45052 20.83996,9.461268 20.918836,9.540144 C 20.983657,9.604965 21.073312,9.62098 21.321408,9.612056 C 21.761858,9.596211 21.810237,9.603795 21.810237,9.688678 C 21.810237,9.729505 21.772065,9.777552 21.725411,9.795451 C 21.459458,9.897482 20.839438,10.429357 20.84188,10.553376 C 20.842473,10.583485 20.883267,10.660551 20.932534,10.724632 C 21.011828,10.827771 21.047738,10.837632 21.245382,10.810541 C 21.368181,10.79371 21.501885,10.792691 21.542502,10.808277 C 21.66779,10.856354 21.624385,10.973248 21.454958,11.044039 C 21.366193,11.081128 21.265366,11.145451 21.2309,11.186981 C 21.196434,11.22851 21.140289,11.262489 21.106133,11.262489 C 21.04808,11.262489 20.94849,11.340042 20.499245,11.735088 C 20.288494,11.920414 20.195161,11.931835 20.092238,11.784893 z" />
    <path
       id="path2467"
       style="fill:#ffff00;fill-opacity:1"
       d="M 10.589029,10.701201 C 10.532531,10.658374 10.451641,10.64079 10.395143,10.659055 C 10.341824,10.676293 10.161872,10.695208 9.9952507,10.701089 C 9.6980191,10.71158 9.6923023,10.709386 9.6923023,10.58482 C 9.6923023,10.514991 9.7106188,10.437136 9.733005,10.41181 C 9.7553917,10.386483 9.801893,10.294315 9.8363419,10.206992 C 9.8910515,10.068308 9.8882992,10.036424 9.8145892,9.9549759 C 9.73497,9.8669978 9.7348018,9.8471103 9.8116102,9.6029165 C 9.856384,9.460569 9.8860279,9.3122286 9.8774852,9.2732713 C 9.865661,9.2193475 9.930473,9.196655 10.149007,9.1782042 C 10.388812,9.1579576 10.438525,9.1380114 10.451034,9.0570249 C 10.535349,8.5111487 10.527054,8.5276403 10.734445,8.493522 C 10.841082,8.4759786 11.037393,8.478884 11.17069,8.4999784 C 11.429285,8.5409017 11.509254,8.5092322 11.561286,8.3452944 C 11.587163,8.2637635 11.619105,8.253282 11.760724,8.2798498 C 11.862557,8.298954 11.955909,8.2894434 11.996399,8.2558394 C 12.077531,8.1885058 12.358927,8.239928 12.356706,8.3216819 C 12.355858,8.352888 12.32314,8.4207611 12.283999,8.4725105 C 12.095305,8.7219853 12.288555,8.835129 12.540811,8.6228693 C 12.639619,8.5397286 12.697698,8.5191364 12.733214,8.5546526 C 12.761194,8.5826329 12.926396,8.6089579 13.100328,8.6131527 C 13.27426,8.6173474 13.431338,8.6355539 13.44939,8.653612 C 13.467443,8.6716697 13.361736,8.7664368 13.214486,8.8642052 C 13.067236,8.9619737 12.933125,9.0774969 12.91646,9.1209242 C 12.882851,9.2085078 13.006951,9.3236194 13.134981,9.3236194 C 13.282442,9.3236194 13.280637,9.3880766 13.129647,9.5141289 C 12.992519,9.6286084 12.983299,9.6541017 13.023109,9.8087207 C 13.058918,9.9477982 13.092126,9.9808143 13.209304,9.9938357 C 13.287742,10.002552 13.371925,10.029102 13.396378,10.052836 C 13.469812,10.124114 13.296752,10.160437 13.1804,10.098168 C 13.094528,10.05221 13.059551,10.055695 12.999007,10.116238 C 12.937549,10.177697 12.935172,10.204706 12.985849,10.265768 C 13.086161,10.386637 13.01106,10.486941 12.82025,10.486941 C 12.631804,10.486941 12.613497,10.455168 12.720857,10.314437 C 12.888349,10.09488 12.698968,9.4247411 12.387096,9.1334013 C 12.317911,9.06877 12.26097,8.9924271 12.260562,8.9637502 C 12.260154,8.9350729 12.240004,8.880294 12.215785,8.8420188 C 12.178755,8.7834993 12.159259,8.7827941 12.09324,8.8375851 C 12.040983,8.8809542 11.903373,8.8991306 11.681714,8.8919413 C 10.95006,8.8682114 10.598115,9.2886693 10.704861,10.058959 C 10.744075,10.34193 10.779053,10.430637 10.901047,10.556503 C 10.982702,10.64075 11.049511,10.725 11.049511,10.743725 C 11.049511,10.80817 10.685837,10.774586 10.589029,10.701201 z M 11.398901,10.500197 C 11.279487,10.485453 11.203259,10.430691 11.095952,10.282559 C 11.017091,10.173693 10.952567,10.0414 10.952567,9.9885731 C 10.952567,9.9357462 11.047853,9.7972392 11.164312,9.6807795 C 11.356814,9.4882784 11.397683,9.4690346 11.614008,9.4690346 C 11.882609,9.4690346 12.032688,9.5521055 12.140402,9.7604002 C 12.281729,10.033697 12.183414,10.323908 11.904694,10.456169 C 11.738706,10.534935 11.704423,10.53792 11.398901,10.500197 z" />
    <path
       style="fill:#000000;fill-opacity:1;stroke:none;stroke-width:1px;stroke-linecap:butt;stroke-linejoin:miter;stroke-opacity:1"
       d="M 1.9593287,10.854808 C 1.9492136,11.046989 5.0961777,11.590627 9.5330378,11.456377 C 17.066549,11.227905 20.439179,7.4401473 20.439179,7.4401473 C 20.439179,7.4401473 16.730488,10.361269 11.471907,10.833169 C 7.6217191,11.178681 1.9723118,10.608122 1.9593287,10.854808 z"
       id="path2584"
       sodipodi:nodetypes="cscss" />
    <path
       style="fill:#000000;fill-opacity:1;stroke:none;stroke-width:1px;stroke-linecap:butt;stroke-linejoin:miter;stroke-opacity:1"
       d="M 10.792438,9.9243238 C 10.96222,9.8637342 11.080245,9.3532153 11.632037,9.3746887 C 12.188001,9.3963251 12.2639,9.6257035 12.281212,9.9546187 C 12.298751,10.28785 12.043204,10.621065 11.580103,10.616777 C 11.112675,10.612449 10.855555,10.048695 10.792437,10.028192 C 10.677628,9.9908974 10.863794,10.852671 11.575775,10.863464 C 12.292083,10.874322 12.663865,10.390302 12.675045,10.03252 C 12.688029,9.6170474 12.557874,8.9700006 11.649349,8.9678727 C 10.736495,8.9657351 10.618811,9.9862853 10.792438,9.9243238 L 10.792438,9.9243238 z"
       id="path3358"
       sodipodi:nodetypes="czzzszszz" />
    <path
       style="fill:#000000;fill-opacity:1;stroke:none;stroke-width:1px;stroke-linecap:butt;stroke-linejoin:miter;stroke-opacity:1"
       d="M 11.385351,11.482344 C 11.406258,11.444079 12.593252,11.369219 12.631767,11.395787 C 12.668147,11.420883 12.824714,12.570934 13.280942,13.715506 C 13.774315,14.953267 14.466769,15.827489 14.466769,15.922701 C 14.466769,16.017914 13.441072,17.225379 13.302581,17.130167 C 13.16409,17.034955 13.470247,16.639517 13.454055,16.191027 C 13.437981,15.754428 12.493276,13.481803 12.493276,13.481803 C 12.493276,13.481803 12.874125,14.953267 12.969338,15.619753 C 13.06455,16.286239 13.090517,16.814235 13.090517,16.814235 C 13.090517,16.814235 12.170894,17.540774 12.077804,17.490459 C 11.984266,17.439902 12.298093,16.222867 12.207639,15.238903 C 12.105027,14.13133 11.376695,11.473689 11.385351,11.482344 C 11.385351,11.482344 11.365518,11.518643 11.385351,11.482344 z"
       id="path3361"
       sodipodi:nodetypes="czsssscsczscz" />
    <path
       style="fill:none;fill-opacity:1;fill-rule:evenodd;stroke:#000000;stroke-width:0.19388695;stroke-linecap:round;stroke-linejoin:round;stroke-miterlimit:5.69999981;stroke-dasharray:none;stroke-opacity:1"
       d="M 2.2363103,12.754727 C 2.2016874,12.633548 2.5891443,12.296111 2.7037164,9.7944894 C 2.7916437,7.8746314 2.0698137,7.0380156 2.1497533,6.9900528 C 2.2363103,6.9381187 6.7428838,8.2786919 11.264171,8.0114216 C 16.491346,7.702424 20.266065,6.6265147 20.266065,6.6265147 C 20.266065,6.6265147 19.400499,8.4615161 19.383188,8.9808564 C 19.365876,9.5001961 20.084296,12.27001 19.997739,12.287321 C 19.911183,12.304633 18.962948,11.274232 11.142992,11.716047 C 5.8781538,12.013502 2.2709326,12.798006 2.2363103,12.754727 z"
       id="path3154"
       sodipodi:nodetypes="cssscsssc" />
  </g>
  <g
     inkscape:groupmode="layer"
     id="layer2"
     inkscape:label="dark blue" />
</svg>
