<?xml version="1.0" encoding="UTF-8" standalone="no"?>
<!-- Created with Inkscape (http://www.inkscape.org/) -->
<!-- Created by Mattthew Petroff -->

<svg
   xmlns:dc="http://purl.org/dc/elements/1.1/"
   xmlns:cc="http://creativecommons.org/ns#"
   xmlns:rdf="http://www.w3.org/1999/02/22-rdf-syntax-ns#"
   xmlns:svg="http://www.w3.org/2000/svg"
   xmlns="http://www.w3.org/2000/svg"
   xmlns:xlink="http://www.w3.org/1999/xlink"
   xmlns:sodipodi="http://sodipodi.sourceforge.net/DTD/sodipodi-0.dtd"
   xmlns:inkscape="http://www.inkscape.org/namespaces/inkscape"
   width="48px"
   height="48px"
   id="svg4198"
   sodipodi:version="0.32"
   inkscape:version="0.48.0 r9654"
   sodipodi:docname="Edit-copy.svg"
   inkscape:output_extension="org.inkscape.output.svg.inkscape"
   version="1.1">
  <defs
     id="defs4200">
    <linearGradient
       id="linearGradient15218">
      <stop
         style="stop-color: rgb(240, 240, 239); stop-opacity: 1;"
         offset="0.0000000"
         id="stop15220" />
      <stop
         id="stop2269"
         offset="0.59928656"
         style="stop-color: rgb(232, 232, 232); stop-opacity: 1;" />
      <stop
         id="stop2267"
         offset="0.82758623"
         style="stop-color: rgb(255, 255, 255); stop-opacity: 1;" />
      <stop
         style="stop-color: rgb(216, 216, 211); stop-opacity: 1;"
         offset="1.0000000"
         id="stop15222" />
    </linearGradient>
    <linearGradient
       inkscape:collect="always"
       id="linearGradient2259">
      <stop
         style="stop-color: rgb(255, 255, 255); stop-opacity: 1;"
         offset="0"
         id="stop2261" />
      <stop
         style="stop-color: rgb(255, 255, 255); stop-opacity: 0;"
         offset="1"
         id="stop2263" />
    </linearGradient>
    <linearGradient
       id="linearGradient2224">
      <stop
         style="stop-color: rgb(124, 124, 124); stop-opacity: 1;"
         offset="0"
         id="stop2226" />
      <stop
         style="stop-color: rgb(184, 184, 184); stop-opacity: 1;"
         offset="1"
         id="stop2228" />
    </linearGradient>
    <linearGradient
       inkscape:collect="always"
       xlink:href="#linearGradient2224"
       id="linearGradient2230"
       x1="35.996582"
       y1="40.458221"
       x2="33.664921"
       y2="37.770721"
       gradientUnits="userSpaceOnUse"
       gradientTransform="translate(6.16184,4.03341)" />
    <linearGradient
       inkscape:collect="always"
       id="linearGradient2251">
      <stop
         style="stop-color: rgb(255, 255, 255); stop-opacity: 1;"
         offset="0"
         id="stop2253" />
      <stop
         style="stop-color: rgb(255, 255, 255); stop-opacity: 0;"
         offset="1"
         id="stop2255" />
    </linearGradient>
    <linearGradient
       inkscape:collect="always"
       xlink:href="#linearGradient2251"
       id="linearGradient2257"
       x1="33.396004"
       y1="36.921333"
       x2="34.170048"
       y2="38.070381"
       gradientUnits="userSpaceOnUse"
       gradientTransform="translate(6.16184,3.65841)" />
    <linearGradient
       inkscape:collect="always"
       xlink:href="#linearGradient15218"
       id="linearGradient4258"
       gradientUnits="userSpaceOnUse"
       gradientTransform="matrix(1.0657, 0, 0, 0.987595, -8.54832, -4.89171)"
       x1="22.308331"
       y1="18.992140"
       x2="35.785294"
       y2="39.498238" />
    <linearGradient
       inkscape:collect="always"
       xlink:href="#linearGradient2259"
       id="linearGradient4260"
       gradientUnits="userSpaceOnUse"
       gradientTransform="matrix(0.998504, 0, 0, 0.998246, -6.97039, -4.8929)"
       x1="26.076092"
       y1="26.696676"
       x2="30.811172"
       y2="42.007351" />
    <linearGradient
       inkscape:collect="always"
       xlink:href="#linearGradient2259"
       id="linearGradient13651"
       gradientUnits="userSpaceOnUse"
       gradientTransform="matrix(0.999421,0,0,1,5.99132,4.03341)"
       x1="26.076092"
       y1="26.696676"
       x2="30.811172"
       y2="42.007351" />
    <linearGradient
       inkscape:collect="always"
       xlink:href="#linearGradient15218"
       id="linearGradient13653"
       gradientUnits="userSpaceOnUse"
       gradientTransform="matrix(1.06724,0,0,0.989276,4.39168,4.03523)"
       x1="22.308331"
       y1="18.992140"
       x2="35.785294"
       y2="39.498238" />
    <filter
       color-interpolation-filters="sRGB"
       inkscape:collect="always"
       id="filter3884">
      <feGaussianBlur
         inkscape:collect="always"
         stdDeviation="1.0377025"
         id="feGaussianBlur3886" />
    </filter>
  </defs>
  <sodipodi:namedview
     id="base"
     pagecolor="#ffffff"
     bordercolor="#bebebe"
     borderopacity="1.0000000"
     inkscape:pageopacity="0.0"
     inkscape:pageshadow="2"
     inkscape:zoom="4.0000001"
     inkscape:cx="-3.0122615"
     inkscape:cy="27.062471"
     inkscape:current-layer="layer1"
     showgrid="false"
     inkscape:grid-bbox="true"
     inkscape:document-units="px"
     inkscape:window-width="1280"
     inkscape:window-height="744"
     inkscape:window-x="-4"
     inkscape:window-y="-4"
     inkscape:showpageshadow="false"
     inkscape:window-maximized="1" />
  <metadata
     id="metadata4203">
    <rdf:RDF>
      <cc:Work
         rdf:about="">
        <dc:format>image/svg+xml</dc:format>
        <dc:type
           rdf:resource="http://purl.org/dc/dcmitype/StillImage" />
        <dc:title></dc:title>
        <dc:date>2005-10-15</dc:date>
        <dc:creator>
          <cc:Agent>
            <dc:title>Andreas Nilsson</dc:title>
          </cc:Agent>
        </dc:creator>
        <dc:subject>
          <rdf:Bag>
            <rdf:li>edit</rdf:li>
            <rdf:li>copy</rdf:li>
          </rdf:Bag>
        </dc:subject>
        <cc:license
           rdf:resource="http://creativecommons.org/licenses/by-sa/2.0/" />
        <dc:contributor>
          <cc:Agent>
            <dc:title>Jakub Steiner</dc:title>
          </cc:Agent>
        </dc:contributor>
      </cc:Work>
      <cc:License
         rdf:about="http://creativecommons.org/licenses/by-sa/2.0/">
        <cc:permits
           rdf:resource="http://web.resource.org/cc/Reproduction" />
        <cc:permits
           rdf:resource="http://web.resource.org/cc/Distribution" />
        <cc:requires
           rdf:resource="http://web.resource.org/cc/Notice" />
        <cc:requires
           rdf:resource="http://web.resource.org/cc/Attribution" />
        <cc:permits
           rdf:resource="http://web.resource.org/cc/DerivativeWorks" />
        <cc:requires
           rdf:resource="http://web.resource.org/cc/ShareAlike" />
      </cc:License>
    </rdf:RDF>
  </metadata>
  <g
     id="layer1"
     inkscape:label="Layer 1"
     inkscape:groupmode="layer">
    <g
       id="g12863"
       transform="matrix(1.2342927,0,0,1.2342927,-13.039449,-11.210512)">
      <path
         style="fill:url(#linearGradient13653);fill-opacity:1;fill-rule:evenodd;stroke:#888a85;stroke-width:1;stroke-linecap:butt;stroke-linejoin:miter;stroke-miterlimit:4;stroke-opacity:1;stroke-dashoffset:0"
         d="m 15.072946,10.500852 29.856385,0 c 0.31574,0 0.569926,0.253093 0.569926,0.567472 l 0,27.167362 c 0,2.476452 -6.87981,8.303087 -9.267932,8.303087 l -21.158379,0 c -0.31574,0 -0.569926,-0.253092 -0.569926,-0.567473 l 0,-34.902976 c 0,-0.314379 0.254186,-0.567472 0.569926,-0.567472 z"
         id="rect12413"
         sodipodi:nodetypes="ccccccccc"
         inkscape:connector-curvature="0" />
      <rect
         ry="0"
         rx="0"
         y="11.5"
         x="15.502951"
         height="34.040764"
         width="28.997349"
         id="rect15244"
         style="fill:none;stroke:url(#linearGradient13651);stroke-width:1;stroke-linecap:butt;stroke-linejoin:miter;stroke-miterlimit:4;stroke-opacity:1;stroke-dasharray:none;stroke-dashoffset:0" />
      <path
         sodipodi:nodetypes="cccc"
         id="path2210"
         d="m 36.220918,46.536966 c 2.030418,0.329898 9.588793,-4.529929 9.284411,-8.497844 -1.563262,2.423097 -4.758522,1.286738 -8.86728,1.445748 0,0 0.395369,6.552096 -0.417131,7.052096 z"
         style="color:#000000;fill:url(#linearGradient2230);fill-opacity:1;fill-rule:evenodd;stroke:#868a84;stroke-width:1;stroke-linecap:butt;stroke-linejoin:miter;stroke-miterlimit:4;stroke-opacity:1;stroke-dasharray:none;stroke-dashoffset:0;marker:none;visibility:visible;display:inline;overflow:visible"
         inkscape:connector-curvature="0" />
      <path
         style="opacity:0.36931799;color:#000000;fill:none;stroke:url(#linearGradient2257);stroke-width:1;stroke-linecap:butt;stroke-linejoin:miter;stroke-miterlimit:4;stroke-opacity:1;stroke-dasharray:none;stroke-dashoffset:0;marker:none;visibility:visible;display:inline;overflow:visible"
         d="m 37.671355,44.345464 c 1.369779,-0.683829 4.428249,-2.146465 5.72763,-4.027469 -1.596094,0.680055 -2.94781,0.209496 -5.702334,0.190405 0,0 0.162322,3.062094 -0.0253,3.837064 z"
         id="path2247"
         sodipodi:nodetypes="cccc"
         inkscape:connector-curvature="0" />
    </g>
    <g
       id="g3060"
       transform="matrix(0.25042956,0,0,0.25042956,7.5989024,5.6175715)"
       style="filter:url(#filter3884)">
      <path
         sodipodi:nodetypes="cccccc"
         inkscape:connector-curvature="0"
         d="m 9.8555132,24.577947 0,0 C 14.878892,38.571644 16.676123,63.094331 9.4904942,72.51711 41.737279,61.329385 85.712137,55.031885 117.41445,68.380228 111.84506,52.467698 110.03653,27.837507 120.09125,18.737643 89.586809,30.778871 37.079786,38.256757 9.8555132,24.577947 z"
         style="fill:#9bc158;fill-opacity:1;stroke:#000000;stroke-width:1.9965694;stroke-linecap:round;stroke-linejoin:round;stroke-miterlimit:4;stroke-opacity:1;stroke-dasharray:none"
         id="path3861" />
      <path
         inkscape:connector-curvature="0"
         id="path3861-4"
         d="m 119.91587,18.737643 c -30.504434,12.04122 -83.025721,19.52256 -110.2499944,5.84375 3.0642174,8.53603 4.8932214,20.97679 4.2500004,31.53125 27.214471,2.48141 54.613413,0.87056 77.625,-9.5625 7.85887,-3.56308 14.648404,-7.35228 21.656244,-12.4375 0.87191,-6.44657 2.97323,-11.98517 6.71875,-15.375 z"
         style="fill:#a8e1f8;fill-opacity:1;stroke:#000000;stroke-width:1.9965694;stroke-linecap:round;stroke-linejoin:round;stroke-miterlimit:4;stroke-opacity:1;stroke-dasharray:none" />
      <path
         transform="matrix(0.93323903,0,0,1.0835064,4.8575798,-3.5351597)"
         d="m 78.292582,44.545269 c 0,5.606919 -5.277178,10.152225 -11.786906,10.152225 -6.509728,0 -11.786905,-4.545306 -11.786905,-10.152225 0,-5.606919 5.277177,-10.152225 11.786905,-10.152225 6.509728,0 11.786906,4.545306 11.786906,10.152225 z"
         sodipodi:ry="10.152225"
         sodipodi:rx="11.786905"
         sodipodi:cy="44.545269"
         sodipodi:cx="66.505676"
         id="path3962"
         style="fill:#fefe98;fill-opacity:1;fill-rule:nonzero;stroke:none"
         sodipodi:type="arc" />
      <path
         sodipodi:nodetypes="ssssssss"
         inkscape:connector-curvature="0"
         id="path3065"
         d="m 63.320057,51.492527 c -1.661404,-0.698568 -3.323675,-2.059572 -3.693935,-3.024453 -0.984639,-2.565929 -0.203971,-2.764071 1.86833,-0.474205 5.102418,5.638109 14.045908,-0.494607 9.377092,-6.430045 -2.55537,-3.248626 -4.912237,-3.241908 -8.794819,0.02507 C 59.11593,44.080238 59,44.099078 59,42.088894 c 0,-6.409705 9.884789,-8.391391 14.499703,-2.906878 5.88178,6.990098 -1.526354,15.948947 -10.179646,12.310511 z"
         style="fill:#000000" />
      <path
         inkscape:connector-curvature="0"
         id="path3906"
         d="m 66.950394,111.94335 c 4.021184,-9.51279 4.014557,-9.43994 2.18712,-24.046096 C 67.516955,74.944625 66.225546,67.093539 64.8468,61.811982 c -0.519353,-1.989483 -0.107216,-2.263335 4.282618,-2.845667 6.640902,-0.880947 6.71799,-0.832812 7.915982,4.942839 1.307214,6.302223 4.113638,11.764658 13.847578,26.952981 8.998713,14.041125 8.791636,12.266495 1.983114,16.995195 -6.307522,4.38074 -6.982721,4.3212 -4.994556,-0.44047 1.658635,-3.97244 0.576216,-8.331534 -3.480572,-14.016854 -1.32785,-1.860888 -4.089934,-6.53417 -6.137964,-10.385067 -4.662683,-8.767209 -4.771011,-6.341311 -0.65406,14.646977 1.107999,5.648594 1.107999,5.648594 -3.149338,9.500004 -6.559824,5.93435 -8.525694,7.1861 -7.509208,4.78143 z"
         style="fill:#000000" />
      <path
         sodipodi:nodetypes="scscs"
         inkscape:connector-curvature="0"
         d="M 92.714829,49.885932 C 69.219042,62.939147 33.848655,61.876058 8.9004192,55.600442 37.806302,58.778769 67.25147,57.635743 91.731206,46.537056 102.77158,41.531542 111.66033,36.155046 122.0833,27.229756 113.0369,36.843333 103.58313,43.847988 92.714829,49.885932 z"
         style="fill:#000000;fill-opacity:1;stroke:#000000;stroke-width:1.9965694;stroke-linecap:round;stroke-linejoin:round;stroke-miterlimit:4;stroke-opacity:1;stroke-dasharray:none"
         id="path3883-7" />
    </g>
  </g>
</svg>
